<mxfile host="app.diagrams.net" modified="2023-11-23T06:06:14.806Z" agent="Mozilla/5.0 (Macintosh; Intel Mac OS X 10_15_7) AppleWebKit/537.36 (KHTML, like Gecko) Chrome/119.0.0.0 Safari/537.36" etag="tjXZXmrwtCWaasQ-8XMq" version="22.1.3" type="github">
  <diagram name="Page-1" id="zidWxDZTBbv9Yz6WOGqk">
    <mxGraphModel dx="672" dy="448" grid="1" gridSize="10" guides="1" tooltips="1" connect="1" arrows="1" fold="1" page="1" pageScale="1" pageWidth="4681" pageHeight="3300" math="0" shadow="0">
      <root>
        <mxCell id="0" />
        <mxCell id="1" parent="0" />
        <mxCell id="OQNPQIhbmYLAiWT2xSHp-117" style="edgeStyle=orthogonalEdgeStyle;rounded=0;orthogonalLoop=1;jettySize=auto;html=1;exitX=0;exitY=0.75;exitDx=0;exitDy=0;entryX=0.996;entryY=0.38;entryDx=0;entryDy=0;entryPerimeter=0;" parent="1" source="OQNPQIhbmYLAiWT2xSHp-4" target="OQNPQIhbmYLAiWT2xSHp-23" edge="1">
          <mxGeometry relative="1" as="geometry">
            <Array as="points">
              <mxPoint x="2000" y="2381" />
              <mxPoint x="2000" y="2393" />
            </Array>
          </mxGeometry>
        </mxCell>
        <mxCell id="OQNPQIhbmYLAiWT2xSHp-120" value="&lt;font style=&quot;font-size: 7px;&quot;&gt;GND&lt;/font&gt;" style="edgeLabel;html=1;align=center;verticalAlign=middle;resizable=0;points=[];" parent="OQNPQIhbmYLAiWT2xSHp-117" vertex="1" connectable="0">
          <mxGeometry x="-0.5706" relative="1" as="geometry">
            <mxPoint x="-1" y="-2" as="offset" />
          </mxGeometry>
        </mxCell>
        <mxCell id="OQNPQIhbmYLAiWT2xSHp-132" value="&lt;font style=&quot;font-size: 7px;&quot;&gt;&amp;nbsp;B -&amp;nbsp;&lt;/font&gt;" style="edgeLabel;html=1;align=center;verticalAlign=middle;resizable=0;points=[];" parent="OQNPQIhbmYLAiWT2xSHp-117" vertex="1" connectable="0">
          <mxGeometry x="0.6425" relative="1" as="geometry">
            <mxPoint x="1" y="-1" as="offset" />
          </mxGeometry>
        </mxCell>
        <mxCell id="OQNPQIhbmYLAiWT2xSHp-127" style="edgeStyle=orthogonalEdgeStyle;rounded=0;orthogonalLoop=1;jettySize=auto;html=1;exitX=0;exitY=0.75;exitDx=0;exitDy=0;entryX=1;entryY=0.25;entryDx=0;entryDy=0;endArrow=none;endFill=0;" parent="1" source="OQNPQIhbmYLAiWT2xSHp-23" target="OQNPQIhbmYLAiWT2xSHp-18" edge="1">
          <mxGeometry relative="1" as="geometry">
            <Array as="points">
              <mxPoint x="1720" y="2433" />
              <mxPoint x="1720" y="2419" />
            </Array>
          </mxGeometry>
        </mxCell>
        <mxCell id="OQNPQIhbmYLAiWT2xSHp-128" value="&lt;font style=&quot;font-size: 7px;&quot;&gt;GND&lt;/font&gt;" style="edgeLabel;html=1;align=center;verticalAlign=middle;resizable=0;points=[];" parent="OQNPQIhbmYLAiWT2xSHp-127" vertex="1" connectable="0">
          <mxGeometry x="-0.267" relative="1" as="geometry">
            <mxPoint x="-7" y="-2" as="offset" />
          </mxGeometry>
        </mxCell>
        <mxCell id="Z8KLKE9RpnlIuwhyJ7ig-65" style="edgeStyle=orthogonalEdgeStyle;rounded=0;orthogonalLoop=1;jettySize=auto;html=1;exitX=1;exitY=0.5;exitDx=0;exitDy=0;entryX=0;entryY=0.5;entryDx=0;entryDy=0;" parent="1" source="Z8KLKE9RpnlIuwhyJ7ig-1" target="Z8KLKE9RpnlIuwhyJ7ig-42" edge="1">
          <mxGeometry relative="1" as="geometry">
            <Array as="points">
              <mxPoint x="151" y="405" />
              <mxPoint x="151" y="447" />
            </Array>
          </mxGeometry>
        </mxCell>
        <mxCell id="Z8KLKE9RpnlIuwhyJ7ig-101" value="24V DC" style="edgeLabel;html=1;align=center;verticalAlign=middle;resizable=0;points=[];" parent="Z8KLKE9RpnlIuwhyJ7ig-65" vertex="1" connectable="0">
          <mxGeometry x="0.4263" y="-1" relative="1" as="geometry">
            <mxPoint as="offset" />
          </mxGeometry>
        </mxCell>
        <mxCell id="Z8KLKE9RpnlIuwhyJ7ig-86" style="edgeStyle=orthogonalEdgeStyle;rounded=0;orthogonalLoop=1;jettySize=auto;html=1;exitX=1;exitY=0.25;exitDx=0;exitDy=0;entryX=0;entryY=0.5;entryDx=0;entryDy=0;" parent="1" source="Z8KLKE9RpnlIuwhyJ7ig-1" target="Z8KLKE9RpnlIuwhyJ7ig-2" edge="1">
          <mxGeometry relative="1" as="geometry">
            <Array as="points">
              <mxPoint x="154" y="293" />
              <mxPoint x="154" y="220" />
            </Array>
          </mxGeometry>
        </mxCell>
        <mxCell id="Z8KLKE9RpnlIuwhyJ7ig-87" value="24V DC" style="edgeLabel;html=1;align=center;verticalAlign=middle;resizable=0;points=[];" parent="Z8KLKE9RpnlIuwhyJ7ig-86" vertex="1" connectable="0">
          <mxGeometry x="0.1038" relative="1" as="geometry">
            <mxPoint as="offset" />
          </mxGeometry>
        </mxCell>
        <mxCell id="Z8KLKE9RpnlIuwhyJ7ig-1" value="Fuente de AlimentaciÃ³n&lt;br&gt;24V DC" style="rounded=1;whiteSpace=wrap;html=1;fillColor=#f8cecc;strokeColor=#b85450;" parent="1" vertex="1">
          <mxGeometry x="61" y="180" width="100" height="450" as="geometry" />
        </mxCell>
        <mxCell id="Z8KLKE9RpnlIuwhyJ7ig-85" style="edgeStyle=orthogonalEdgeStyle;rounded=0;orthogonalLoop=1;jettySize=auto;html=1;exitX=0;exitY=0.75;exitDx=0;exitDy=0;entryX=0.5;entryY=0;entryDx=0;entryDy=0;" parent="1" source="Z8KLKE9RpnlIuwhyJ7ig-2" target="Z8KLKE9RpnlIuwhyJ7ig-42" edge="1">
          <mxGeometry relative="1" as="geometry" />
        </mxCell>
        <mxCell id="Z8KLKE9RpnlIuwhyJ7ig-88" value="Enable" style="edgeLabel;html=1;align=center;verticalAlign=middle;resizable=0;points=[];" parent="Z8KLKE9RpnlIuwhyJ7ig-85" vertex="1" connectable="0">
          <mxGeometry x="-0.0081" y="-1" relative="1" as="geometry">
            <mxPoint as="offset" />
          </mxGeometry>
        </mxCell>
        <mxCell id="Z8KLKE9RpnlIuwhyJ7ig-2" value="Tarjeta de Control de Encendido de Motores" style="rounded=1;whiteSpace=wrap;html=1;fillColor=#d5e8d4;strokeColor=#82b366;" parent="1" vertex="1">
          <mxGeometry x="445" y="180" width="120" height="80" as="geometry" />
        </mxCell>
        <mxCell id="Z8KLKE9RpnlIuwhyJ7ig-95" style="edgeStyle=orthogonalEdgeStyle;rounded=0;orthogonalLoop=1;jettySize=auto;html=1;exitX=1;exitY=0.5;exitDx=0;exitDy=0;entryX=0;entryY=0.5;entryDx=0;entryDy=0;" parent="1" source="Z8KLKE9RpnlIuwhyJ7ig-5" target="Z8KLKE9RpnlIuwhyJ7ig-89" edge="1">
          <mxGeometry relative="1" as="geometry" />
        </mxCell>
        <mxCell id="Z8KLKE9RpnlIuwhyJ7ig-5" value="Motor 1" style="rounded=1;whiteSpace=wrap;html=1;fillColor=#e1d5e7;strokeColor=#9673a6;" parent="1" vertex="1">
          <mxGeometry x="435" y="280" width="60" height="35" as="geometry" />
        </mxCell>
        <mxCell id="Z8KLKE9RpnlIuwhyJ7ig-74" style="edgeStyle=orthogonalEdgeStyle;rounded=0;orthogonalLoop=1;jettySize=auto;html=1;exitX=1;exitY=0.25;exitDx=0;exitDy=0;entryX=0;entryY=0.5;entryDx=0;entryDy=0;" parent="1" source="Z8KLKE9RpnlIuwhyJ7ig-42" target="Z8KLKE9RpnlIuwhyJ7ig-5" edge="1">
          <mxGeometry relative="1" as="geometry">
            <Array as="points">
              <mxPoint x="318" y="293" />
              <mxPoint x="315" y="293" />
              <mxPoint x="315" y="298" />
            </Array>
          </mxGeometry>
        </mxCell>
        <mxCell id="Z8KLKE9RpnlIuwhyJ7ig-103" value="PWM" style="edgeLabel;html=1;align=center;verticalAlign=middle;resizable=0;points=[];" parent="Z8KLKE9RpnlIuwhyJ7ig-74" vertex="1" connectable="0">
          <mxGeometry x="0.4263" y="-3" relative="1" as="geometry">
            <mxPoint y="-3" as="offset" />
          </mxGeometry>
        </mxCell>
        <mxCell id="Z8KLKE9RpnlIuwhyJ7ig-75" style="edgeStyle=orthogonalEdgeStyle;rounded=0;orthogonalLoop=1;jettySize=auto;html=1;exitX=1;exitY=0.5;exitDx=0;exitDy=0;entryX=0;entryY=0.5;entryDx=0;entryDy=0;" parent="1" source="Z8KLKE9RpnlIuwhyJ7ig-42" target="Z8KLKE9RpnlIuwhyJ7ig-43" edge="1">
          <mxGeometry relative="1" as="geometry">
            <Array as="points">
              <mxPoint x="318" y="358" />
              <mxPoint x="435" y="358" />
            </Array>
          </mxGeometry>
        </mxCell>
        <mxCell id="Z8KLKE9RpnlIuwhyJ7ig-104" value="PWM" style="edgeLabel;html=1;align=center;verticalAlign=middle;resizable=0;points=[];" parent="Z8KLKE9RpnlIuwhyJ7ig-75" vertex="1" connectable="0">
          <mxGeometry x="0.4664" y="-1" relative="1" as="geometry">
            <mxPoint as="offset" />
          </mxGeometry>
        </mxCell>
        <mxCell id="Z8KLKE9RpnlIuwhyJ7ig-76" style="edgeStyle=orthogonalEdgeStyle;rounded=0;orthogonalLoop=1;jettySize=auto;html=1;exitX=1;exitY=0.5;exitDx=0;exitDy=0;entryX=0;entryY=0.5;entryDx=0;entryDy=0;" parent="1" source="Z8KLKE9RpnlIuwhyJ7ig-42" target="Z8KLKE9RpnlIuwhyJ7ig-46" edge="1">
          <mxGeometry relative="1" as="geometry">
            <Array as="points">
              <mxPoint x="315" y="447" />
              <mxPoint x="315" y="417" />
            </Array>
          </mxGeometry>
        </mxCell>
        <mxCell id="Z8KLKE9RpnlIuwhyJ7ig-105" value="PWM" style="edgeLabel;html=1;align=center;verticalAlign=middle;resizable=0;points=[];" parent="Z8KLKE9RpnlIuwhyJ7ig-76" vertex="1" connectable="0">
          <mxGeometry x="0.2965" y="1" relative="1" as="geometry">
            <mxPoint as="offset" />
          </mxGeometry>
        </mxCell>
        <mxCell id="Z8KLKE9RpnlIuwhyJ7ig-77" style="edgeStyle=orthogonalEdgeStyle;rounded=0;orthogonalLoop=1;jettySize=auto;html=1;exitX=1;exitY=0.75;exitDx=0;exitDy=0;entryX=0;entryY=0.5;entryDx=0;entryDy=0;" parent="1" source="Z8KLKE9RpnlIuwhyJ7ig-42" target="Z8KLKE9RpnlIuwhyJ7ig-49" edge="1">
          <mxGeometry relative="1" as="geometry">
            <Array as="points">
              <mxPoint x="318" y="477" />
            </Array>
          </mxGeometry>
        </mxCell>
        <mxCell id="Z8KLKE9RpnlIuwhyJ7ig-106" value="PWM" style="edgeLabel;html=1;align=center;verticalAlign=middle;resizable=0;points=[];" parent="Z8KLKE9RpnlIuwhyJ7ig-77" vertex="1" connectable="0">
          <mxGeometry x="0.396" y="-2" relative="1" as="geometry">
            <mxPoint y="-2" as="offset" />
          </mxGeometry>
        </mxCell>
        <mxCell id="Z8KLKE9RpnlIuwhyJ7ig-79" style="edgeStyle=orthogonalEdgeStyle;rounded=0;orthogonalLoop=1;jettySize=auto;html=1;exitX=1;exitY=0.5;exitDx=0;exitDy=0;entryX=0;entryY=0.5;entryDx=0;entryDy=0;" parent="1" source="Z8KLKE9RpnlIuwhyJ7ig-42" target="Z8KLKE9RpnlIuwhyJ7ig-52" edge="1">
          <mxGeometry relative="1" as="geometry">
            <Array as="points">
              <mxPoint x="318" y="537" />
            </Array>
          </mxGeometry>
        </mxCell>
        <mxCell id="Z8KLKE9RpnlIuwhyJ7ig-107" value="PWM" style="edgeLabel;html=1;align=center;verticalAlign=middle;resizable=0;points=[];" parent="Z8KLKE9RpnlIuwhyJ7ig-79" vertex="1" connectable="0">
          <mxGeometry x="0.4713" y="-1" relative="1" as="geometry">
            <mxPoint as="offset" />
          </mxGeometry>
        </mxCell>
        <mxCell id="Z8KLKE9RpnlIuwhyJ7ig-80" style="edgeStyle=orthogonalEdgeStyle;rounded=0;orthogonalLoop=1;jettySize=auto;html=1;exitX=1;exitY=0.5;exitDx=0;exitDy=0;entryX=0;entryY=0.5;entryDx=0;entryDy=0;" parent="1" source="Z8KLKE9RpnlIuwhyJ7ig-42" target="Z8KLKE9RpnlIuwhyJ7ig-55" edge="1">
          <mxGeometry relative="1" as="geometry">
            <mxPoint x="321" y="447.5" as="sourcePoint" />
            <mxPoint x="539" y="597.5" as="targetPoint" />
            <Array as="points">
              <mxPoint x="315" y="447" />
              <mxPoint x="315" y="597" />
            </Array>
          </mxGeometry>
        </mxCell>
        <mxCell id="Z8KLKE9RpnlIuwhyJ7ig-108" value="PWM" style="edgeLabel;html=1;align=center;verticalAlign=middle;resizable=0;points=[];" parent="Z8KLKE9RpnlIuwhyJ7ig-80" vertex="1" connectable="0">
          <mxGeometry x="0.5924" y="1" relative="1" as="geometry">
            <mxPoint as="offset" />
          </mxGeometry>
        </mxCell>
        <mxCell id="Z8KLKE9RpnlIuwhyJ7ig-42" value="Tarjeta Controladora de Motores&lt;br&gt;Salida PWM" style="rounded=1;whiteSpace=wrap;html=1;fillColor=#dae8fc;strokeColor=#6c8ebf;" parent="1" vertex="1">
          <mxGeometry x="234" y="265" width="86" height="365" as="geometry" />
        </mxCell>
        <mxCell id="Z8KLKE9RpnlIuwhyJ7ig-96" style="edgeStyle=orthogonalEdgeStyle;rounded=0;orthogonalLoop=1;jettySize=auto;html=1;exitX=1;exitY=0.5;exitDx=0;exitDy=0;entryX=0;entryY=0.5;entryDx=0;entryDy=0;" parent="1" source="Z8KLKE9RpnlIuwhyJ7ig-43" target="Z8KLKE9RpnlIuwhyJ7ig-90" edge="1">
          <mxGeometry relative="1" as="geometry" />
        </mxCell>
        <mxCell id="Z8KLKE9RpnlIuwhyJ7ig-43" value="Motor 2" style="rounded=1;whiteSpace=wrap;html=1;fillColor=#e1d5e7;strokeColor=#9673a6;" parent="1" vertex="1">
          <mxGeometry x="435" y="340" width="60" height="35" as="geometry" />
        </mxCell>
        <mxCell id="Z8KLKE9RpnlIuwhyJ7ig-97" style="edgeStyle=orthogonalEdgeStyle;rounded=0;orthogonalLoop=1;jettySize=auto;html=1;exitX=1;exitY=0.5;exitDx=0;exitDy=0;entryX=0;entryY=0.5;entryDx=0;entryDy=0;" parent="1" source="Z8KLKE9RpnlIuwhyJ7ig-46" target="Z8KLKE9RpnlIuwhyJ7ig-91" edge="1">
          <mxGeometry relative="1" as="geometry" />
        </mxCell>
        <mxCell id="Z8KLKE9RpnlIuwhyJ7ig-46" value="Motor 3" style="rounded=1;whiteSpace=wrap;html=1;fillColor=#e1d5e7;strokeColor=#9673a6;" parent="1" vertex="1">
          <mxGeometry x="435" y="400" width="60" height="35" as="geometry" />
        </mxCell>
        <mxCell id="Z8KLKE9RpnlIuwhyJ7ig-98" style="edgeStyle=orthogonalEdgeStyle;rounded=0;orthogonalLoop=1;jettySize=auto;html=1;exitX=1;exitY=0.5;exitDx=0;exitDy=0;entryX=0;entryY=0.5;entryDx=0;entryDy=0;" parent="1" source="Z8KLKE9RpnlIuwhyJ7ig-49" target="Z8KLKE9RpnlIuwhyJ7ig-92" edge="1">
          <mxGeometry relative="1" as="geometry" />
        </mxCell>
        <mxCell id="Z8KLKE9RpnlIuwhyJ7ig-49" value="Motor 4" style="rounded=1;whiteSpace=wrap;html=1;fillColor=#e1d5e7;strokeColor=#9673a6;" parent="1" vertex="1">
          <mxGeometry x="435" y="460" width="60" height="35" as="geometry" />
        </mxCell>
        <mxCell id="Z8KLKE9RpnlIuwhyJ7ig-99" style="edgeStyle=orthogonalEdgeStyle;rounded=0;orthogonalLoop=1;jettySize=auto;html=1;exitX=1;exitY=0.5;exitDx=0;exitDy=0;entryX=0;entryY=0.5;entryDx=0;entryDy=0;" parent="1" source="Z8KLKE9RpnlIuwhyJ7ig-52" target="Z8KLKE9RpnlIuwhyJ7ig-93" edge="1">
          <mxGeometry relative="1" as="geometry" />
        </mxCell>
        <mxCell id="Z8KLKE9RpnlIuwhyJ7ig-52" value="Motor 5" style="rounded=1;whiteSpace=wrap;html=1;fillColor=#e1d5e7;strokeColor=#9673a6;" parent="1" vertex="1">
          <mxGeometry x="435" y="520" width="60" height="35" as="geometry" />
        </mxCell>
        <mxCell id="Z8KLKE9RpnlIuwhyJ7ig-100" style="edgeStyle=orthogonalEdgeStyle;rounded=0;orthogonalLoop=1;jettySize=auto;html=1;exitX=1;exitY=0.5;exitDx=0;exitDy=0;entryX=0;entryY=0.5;entryDx=0;entryDy=0;" parent="1" source="Z8KLKE9RpnlIuwhyJ7ig-55" target="Z8KLKE9RpnlIuwhyJ7ig-94" edge="1">
          <mxGeometry relative="1" as="geometry" />
        </mxCell>
        <mxCell id="Z8KLKE9RpnlIuwhyJ7ig-55" value="Motor 6" style="rounded=1;whiteSpace=wrap;html=1;fillColor=#e1d5e7;strokeColor=#9673a6;" parent="1" vertex="1">
          <mxGeometry x="435" y="580" width="60" height="35" as="geometry" />
        </mxCell>
        <mxCell id="PI7zL99VQ0MmY-ACMDeV-3" style="edgeStyle=orthogonalEdgeStyle;rounded=0;orthogonalLoop=1;jettySize=auto;html=1;exitX=1;exitY=0.5;exitDx=0;exitDy=0;entryX=0;entryY=0.5;entryDx=0;entryDy=0;" parent="1" source="Z8KLKE9RpnlIuwhyJ7ig-89" target="PI7zL99VQ0MmY-ACMDeV-1" edge="1">
          <mxGeometry relative="1" as="geometry" />
        </mxCell>
        <mxCell id="Z8KLKE9RpnlIuwhyJ7ig-89" value="Encoder" style="rounded=1;whiteSpace=wrap;html=1;fillColor=#fff2cc;strokeColor=#d6b656;" parent="1" vertex="1">
          <mxGeometry x="515" y="280" width="50" height="35" as="geometry" />
        </mxCell>
        <mxCell id="PI7zL99VQ0MmY-ACMDeV-5" style="edgeStyle=orthogonalEdgeStyle;rounded=0;orthogonalLoop=1;jettySize=auto;html=1;exitX=1;exitY=0.5;exitDx=0;exitDy=0;entryX=0;entryY=0.5;entryDx=0;entryDy=0;" parent="1" source="Z8KLKE9RpnlIuwhyJ7ig-90" target="PI7zL99VQ0MmY-ACMDeV-4" edge="1">
          <mxGeometry relative="1" as="geometry" />
        </mxCell>
        <mxCell id="Z8KLKE9RpnlIuwhyJ7ig-90" value="Encoder" style="rounded=1;whiteSpace=wrap;html=1;fillColor=#fff2cc;strokeColor=#d6b656;" parent="1" vertex="1">
          <mxGeometry x="515" y="340" width="50" height="35" as="geometry" />
        </mxCell>
        <mxCell id="PI7zL99VQ0MmY-ACMDeV-7" style="edgeStyle=orthogonalEdgeStyle;rounded=0;orthogonalLoop=1;jettySize=auto;html=1;exitX=1;exitY=0.5;exitDx=0;exitDy=0;entryX=0;entryY=0.5;entryDx=0;entryDy=0;" parent="1" source="Z8KLKE9RpnlIuwhyJ7ig-91" target="PI7zL99VQ0MmY-ACMDeV-6" edge="1">
          <mxGeometry relative="1" as="geometry" />
        </mxCell>
        <mxCell id="Z8KLKE9RpnlIuwhyJ7ig-91" value="Encoder" style="rounded=1;whiteSpace=wrap;html=1;fillColor=#fff2cc;strokeColor=#d6b656;" parent="1" vertex="1">
          <mxGeometry x="515" y="400" width="50" height="35" as="geometry" />
        </mxCell>
        <mxCell id="PI7zL99VQ0MmY-ACMDeV-9" style="edgeStyle=orthogonalEdgeStyle;rounded=0;orthogonalLoop=1;jettySize=auto;html=1;exitX=1;exitY=0.5;exitDx=0;exitDy=0;" parent="1" source="Z8KLKE9RpnlIuwhyJ7ig-92" target="PI7zL99VQ0MmY-ACMDeV-8" edge="1">
          <mxGeometry relative="1" as="geometry" />
        </mxCell>
        <mxCell id="Z8KLKE9RpnlIuwhyJ7ig-92" value="Encoder" style="rounded=1;whiteSpace=wrap;html=1;fillColor=#fff2cc;strokeColor=#d6b656;" parent="1" vertex="1">
          <mxGeometry x="515" y="460" width="50" height="35" as="geometry" />
        </mxCell>
        <mxCell id="PI7zL99VQ0MmY-ACMDeV-11" style="edgeStyle=orthogonalEdgeStyle;rounded=0;orthogonalLoop=1;jettySize=auto;html=1;exitX=1;exitY=0.5;exitDx=0;exitDy=0;entryX=0;entryY=0.5;entryDx=0;entryDy=0;" parent="1" source="Z8KLKE9RpnlIuwhyJ7ig-93" target="PI7zL99VQ0MmY-ACMDeV-10" edge="1">
          <mxGeometry relative="1" as="geometry" />
        </mxCell>
        <mxCell id="Z8KLKE9RpnlIuwhyJ7ig-93" value="Encoder" style="rounded=1;whiteSpace=wrap;html=1;fillColor=#fff2cc;strokeColor=#d6b656;" parent="1" vertex="1">
          <mxGeometry x="515" y="520" width="50" height="35" as="geometry" />
        </mxCell>
        <mxCell id="PI7zL99VQ0MmY-ACMDeV-13" style="edgeStyle=orthogonalEdgeStyle;rounded=0;orthogonalLoop=1;jettySize=auto;html=1;exitX=1;exitY=0.5;exitDx=0;exitDy=0;entryX=0;entryY=0.5;entryDx=0;entryDy=0;" parent="1" source="Z8KLKE9RpnlIuwhyJ7ig-94" target="PI7zL99VQ0MmY-ACMDeV-12" edge="1">
          <mxGeometry relative="1" as="geometry" />
        </mxCell>
        <mxCell id="Z8KLKE9RpnlIuwhyJ7ig-94" value="Encoder" style="rounded=1;whiteSpace=wrap;html=1;fillColor=#fff2cc;strokeColor=#d6b656;" parent="1" vertex="1">
          <mxGeometry x="515" y="580" width="50" height="35" as="geometry" />
        </mxCell>
        <mxCell id="PI7zL99VQ0MmY-ACMDeV-21" style="edgeStyle=orthogonalEdgeStyle;rounded=0;orthogonalLoop=1;jettySize=auto;html=1;exitX=1;exitY=0.5;exitDx=0;exitDy=0;entryX=0.5;entryY=1;entryDx=0;entryDy=0;strokeColor=#A680B8;" parent="1" source="PI7zL99VQ0MmY-ACMDeV-1" target="Z8KLKE9RpnlIuwhyJ7ig-42" edge="1">
          <mxGeometry relative="1" as="geometry" />
        </mxCell>
        <mxCell id="PI7zL99VQ0MmY-ACMDeV-1" value="Control de PosiciÃ³n PID" style="rounded=1;whiteSpace=wrap;html=1;fillColor=#ffe6cc;strokeColor=#d79b00;" parent="1" vertex="1">
          <mxGeometry x="600" y="274" width="141" height="47" as="geometry" />
        </mxCell>
        <mxCell id="PI7zL99VQ0MmY-ACMDeV-4" value="Control de PosiciÃ³n PID" style="rounded=1;whiteSpace=wrap;html=1;fillColor=#ffe6cc;strokeColor=#d79b00;" parent="1" vertex="1">
          <mxGeometry x="600" y="334" width="141" height="47" as="geometry" />
        </mxCell>
        <mxCell id="PI7zL99VQ0MmY-ACMDeV-19" style="edgeStyle=orthogonalEdgeStyle;rounded=0;orthogonalLoop=1;jettySize=auto;html=1;exitX=1;exitY=0.5;exitDx=0;exitDy=0;entryX=0.5;entryY=1;entryDx=0;entryDy=0;strokeColor=#A680B8;" parent="1" source="PI7zL99VQ0MmY-ACMDeV-6" target="Z8KLKE9RpnlIuwhyJ7ig-42" edge="1">
          <mxGeometry relative="1" as="geometry" />
        </mxCell>
        <mxCell id="PI7zL99VQ0MmY-ACMDeV-6" value="Control de PosiciÃ³n PID" style="rounded=1;whiteSpace=wrap;html=1;fillColor=#ffe6cc;strokeColor=#d79b00;" parent="1" vertex="1">
          <mxGeometry x="600" y="394" width="141" height="47" as="geometry" />
        </mxCell>
        <mxCell id="PI7zL99VQ0MmY-ACMDeV-18" style="edgeStyle=orthogonalEdgeStyle;rounded=0;orthogonalLoop=1;jettySize=auto;html=1;exitX=1;exitY=0.5;exitDx=0;exitDy=0;entryX=0.5;entryY=1;entryDx=0;entryDy=0;strokeColor=#A680B8;" parent="1" source="PI7zL99VQ0MmY-ACMDeV-8" target="Z8KLKE9RpnlIuwhyJ7ig-42" edge="1">
          <mxGeometry relative="1" as="geometry">
            <Array as="points">
              <mxPoint x="761" y="478" />
              <mxPoint x="761" y="650" />
              <mxPoint x="276" y="650" />
            </Array>
          </mxGeometry>
        </mxCell>
        <mxCell id="PI7zL99VQ0MmY-ACMDeV-8" value="Control de PosiciÃ³n PID" style="rounded=1;whiteSpace=wrap;html=1;fillColor=#ffe6cc;strokeColor=#d79b00;" parent="1" vertex="1">
          <mxGeometry x="600" y="454" width="141" height="47" as="geometry" />
        </mxCell>
        <mxCell id="PI7zL99VQ0MmY-ACMDeV-17" style="edgeStyle=orthogonalEdgeStyle;rounded=0;orthogonalLoop=1;jettySize=auto;html=1;exitX=1;exitY=0.5;exitDx=0;exitDy=0;entryX=0.5;entryY=1;entryDx=0;entryDy=0;strokeColor=#A680B8;" parent="1" source="PI7zL99VQ0MmY-ACMDeV-10" target="Z8KLKE9RpnlIuwhyJ7ig-42" edge="1">
          <mxGeometry relative="1" as="geometry">
            <Array as="points">
              <mxPoint x="761" y="538" />
              <mxPoint x="761" y="650" />
              <mxPoint x="276" y="650" />
            </Array>
          </mxGeometry>
        </mxCell>
        <mxCell id="PI7zL99VQ0MmY-ACMDeV-10" value="Control de PosiciÃ³n PID" style="rounded=1;whiteSpace=wrap;html=1;fillColor=#ffe6cc;strokeColor=#d79b00;" parent="1" vertex="1">
          <mxGeometry x="600" y="514" width="141" height="47" as="geometry" />
        </mxCell>
        <mxCell id="PI7zL99VQ0MmY-ACMDeV-14" style="edgeStyle=orthogonalEdgeStyle;rounded=0;orthogonalLoop=1;jettySize=auto;html=1;exitX=1;exitY=0.5;exitDx=0;exitDy=0;entryX=0.5;entryY=1;entryDx=0;entryDy=0;strokeColor=#A680B8;" parent="1" source="PI7zL99VQ0MmY-ACMDeV-12" target="Z8KLKE9RpnlIuwhyJ7ig-42" edge="1">
          <mxGeometry relative="1" as="geometry">
            <Array as="points">
              <mxPoint x="761" y="598" />
              <mxPoint x="761" y="650" />
              <mxPoint x="276" y="650" />
            </Array>
          </mxGeometry>
        </mxCell>
        <mxCell id="PI7zL99VQ0MmY-ACMDeV-12" value="Control de PosiciÃ³n PID" style="rounded=1;whiteSpace=wrap;html=1;fillColor=#ffe6cc;strokeColor=#d79b00;" parent="1" vertex="1">
          <mxGeometry x="600" y="574" width="141" height="47" as="geometry" />
        </mxCell>
        <mxCell id="PI7zL99VQ0MmY-ACMDeV-20" style="edgeStyle=orthogonalEdgeStyle;rounded=0;orthogonalLoop=1;jettySize=auto;html=1;exitX=1;exitY=0.5;exitDx=0;exitDy=0;entryX=0.5;entryY=1;entryDx=0;entryDy=0;strokeColor=#A680B8;" parent="1" source="PI7zL99VQ0MmY-ACMDeV-4" target="Z8KLKE9RpnlIuwhyJ7ig-42" edge="1">
          <mxGeometry relative="1" as="geometry">
            <Array as="points">
              <mxPoint x="761" y="358" />
              <mxPoint x="761" y="650" />
              <mxPoint x="276" y="650" />
            </Array>
          </mxGeometry>
        </mxCell>
        <mxCell id="PI7zL99VQ0MmY-ACMDeV-22" style="edgeStyle=orthogonalEdgeStyle;rounded=0;orthogonalLoop=1;jettySize=auto;html=1;exitX=1;exitY=0.5;exitDx=0;exitDy=0;entryX=0;entryY=0.5;entryDx=0;entryDy=0;" parent="1" source="PI7zL99VQ0MmY-ACMDeV-26" target="PI7zL99VQ0MmY-ACMDeV-44" edge="1">
          <mxGeometry relative="1" as="geometry">
            <Array as="points">
              <mxPoint x="157" y="971" />
              <mxPoint x="157" y="1013" />
            </Array>
          </mxGeometry>
        </mxCell>
        <mxCell id="PI7zL99VQ0MmY-ACMDeV-23" value="24V DC" style="edgeLabel;html=1;align=center;verticalAlign=middle;resizable=0;points=[];" parent="PI7zL99VQ0MmY-ACMDeV-22" vertex="1" connectable="0">
          <mxGeometry x="0.4263" y="-1" relative="1" as="geometry">
            <mxPoint as="offset" />
          </mxGeometry>
        </mxCell>
        <mxCell id="PI7zL99VQ0MmY-ACMDeV-24" style="edgeStyle=orthogonalEdgeStyle;rounded=0;orthogonalLoop=1;jettySize=auto;html=1;exitX=1;exitY=0.25;exitDx=0;exitDy=0;entryX=0;entryY=0.5;entryDx=0;entryDy=0;" parent="1" source="PI7zL99VQ0MmY-ACMDeV-26" target="PI7zL99VQ0MmY-ACMDeV-29" edge="1">
          <mxGeometry relative="1" as="geometry">
            <Array as="points">
              <mxPoint x="160" y="859" />
              <mxPoint x="160" y="786" />
            </Array>
          </mxGeometry>
        </mxCell>
        <mxCell id="PI7zL99VQ0MmY-ACMDeV-25" value="24V DC" style="edgeLabel;html=1;align=center;verticalAlign=middle;resizable=0;points=[];" parent="PI7zL99VQ0MmY-ACMDeV-24" vertex="1" connectable="0">
          <mxGeometry x="0.1038" relative="1" as="geometry">
            <mxPoint as="offset" />
          </mxGeometry>
        </mxCell>
        <mxCell id="PI7zL99VQ0MmY-ACMDeV-26" value="Fuente de AlimentaciÃ³n&lt;br&gt;24V DC" style="rounded=1;whiteSpace=wrap;html=1;fillColor=#f8cecc;strokeColor=#b85450;" parent="1" vertex="1">
          <mxGeometry x="67" y="746" width="100" height="450" as="geometry" />
        </mxCell>
        <mxCell id="PI7zL99VQ0MmY-ACMDeV-27" style="edgeStyle=orthogonalEdgeStyle;rounded=0;orthogonalLoop=1;jettySize=auto;html=1;exitX=0;exitY=0.75;exitDx=0;exitDy=0;entryX=0.5;entryY=0;entryDx=0;entryDy=0;" parent="1" source="PI7zL99VQ0MmY-ACMDeV-29" target="PI7zL99VQ0MmY-ACMDeV-44" edge="1">
          <mxGeometry relative="1" as="geometry" />
        </mxCell>
        <mxCell id="PI7zL99VQ0MmY-ACMDeV-28" value="Enable" style="edgeLabel;html=1;align=center;verticalAlign=middle;resizable=0;points=[];" parent="PI7zL99VQ0MmY-ACMDeV-27" vertex="1" connectable="0">
          <mxGeometry x="-0.0081" y="-1" relative="1" as="geometry">
            <mxPoint as="offset" />
          </mxGeometry>
        </mxCell>
        <mxCell id="PI7zL99VQ0MmY-ACMDeV-29" value="Tarjeta de Control de Encendido de Motores" style="rounded=1;whiteSpace=wrap;html=1;fillColor=#d5e8d4;strokeColor=#82b366;" parent="1" vertex="1">
          <mxGeometry x="451" y="746" width="120" height="80" as="geometry" />
        </mxCell>
        <mxCell id="PI7zL99VQ0MmY-ACMDeV-30" style="edgeStyle=orthogonalEdgeStyle;rounded=0;orthogonalLoop=1;jettySize=auto;html=1;exitX=1;exitY=0.5;exitDx=0;exitDy=0;entryX=0;entryY=0.5;entryDx=0;entryDy=0;" parent="1" source="PI7zL99VQ0MmY-ACMDeV-31" target="PI7zL99VQ0MmY-ACMDeV-56" edge="1">
          <mxGeometry relative="1" as="geometry" />
        </mxCell>
        <mxCell id="PI7zL99VQ0MmY-ACMDeV-31" value="Motor 1" style="rounded=1;whiteSpace=wrap;html=1;fillColor=#e1d5e7;strokeColor=#9673a6;" parent="1" vertex="1">
          <mxGeometry x="441" y="846" width="60" height="35" as="geometry" />
        </mxCell>
        <mxCell id="PI7zL99VQ0MmY-ACMDeV-32" style="edgeStyle=orthogonalEdgeStyle;rounded=0;orthogonalLoop=1;jettySize=auto;html=1;exitX=1;exitY=0.25;exitDx=0;exitDy=0;entryX=0;entryY=0.5;entryDx=0;entryDy=0;" parent="1" source="PI7zL99VQ0MmY-ACMDeV-44" target="PI7zL99VQ0MmY-ACMDeV-31" edge="1">
          <mxGeometry relative="1" as="geometry">
            <Array as="points">
              <mxPoint x="324" y="859" />
              <mxPoint x="321" y="859" />
              <mxPoint x="321" y="864" />
            </Array>
          </mxGeometry>
        </mxCell>
        <mxCell id="PI7zL99VQ0MmY-ACMDeV-33" value="PWM" style="edgeLabel;html=1;align=center;verticalAlign=middle;resizable=0;points=[];" parent="PI7zL99VQ0MmY-ACMDeV-32" vertex="1" connectable="0">
          <mxGeometry x="0.4263" y="-3" relative="1" as="geometry">
            <mxPoint y="-3" as="offset" />
          </mxGeometry>
        </mxCell>
        <mxCell id="PI7zL99VQ0MmY-ACMDeV-34" style="edgeStyle=orthogonalEdgeStyle;rounded=0;orthogonalLoop=1;jettySize=auto;html=1;exitX=1;exitY=0.5;exitDx=0;exitDy=0;entryX=0;entryY=0.5;entryDx=0;entryDy=0;" parent="1" source="PI7zL99VQ0MmY-ACMDeV-44" target="PI7zL99VQ0MmY-ACMDeV-46" edge="1">
          <mxGeometry relative="1" as="geometry">
            <Array as="points">
              <mxPoint x="324" y="924" />
              <mxPoint x="441" y="924" />
            </Array>
          </mxGeometry>
        </mxCell>
        <mxCell id="PI7zL99VQ0MmY-ACMDeV-35" value="PWM" style="edgeLabel;html=1;align=center;verticalAlign=middle;resizable=0;points=[];" parent="PI7zL99VQ0MmY-ACMDeV-34" vertex="1" connectable="0">
          <mxGeometry x="0.4664" y="-1" relative="1" as="geometry">
            <mxPoint as="offset" />
          </mxGeometry>
        </mxCell>
        <mxCell id="PI7zL99VQ0MmY-ACMDeV-36" style="edgeStyle=orthogonalEdgeStyle;rounded=0;orthogonalLoop=1;jettySize=auto;html=1;exitX=1;exitY=0.5;exitDx=0;exitDy=0;entryX=0;entryY=0.5;entryDx=0;entryDy=0;" parent="1" source="PI7zL99VQ0MmY-ACMDeV-44" target="PI7zL99VQ0MmY-ACMDeV-48" edge="1">
          <mxGeometry relative="1" as="geometry">
            <Array as="points">
              <mxPoint x="321" y="1013" />
              <mxPoint x="321" y="983" />
            </Array>
          </mxGeometry>
        </mxCell>
        <mxCell id="PI7zL99VQ0MmY-ACMDeV-37" value="PWM" style="edgeLabel;html=1;align=center;verticalAlign=middle;resizable=0;points=[];" parent="PI7zL99VQ0MmY-ACMDeV-36" vertex="1" connectable="0">
          <mxGeometry x="0.2965" y="1" relative="1" as="geometry">
            <mxPoint as="offset" />
          </mxGeometry>
        </mxCell>
        <mxCell id="PI7zL99VQ0MmY-ACMDeV-38" style="edgeStyle=orthogonalEdgeStyle;rounded=0;orthogonalLoop=1;jettySize=auto;html=1;exitX=1;exitY=0.75;exitDx=0;exitDy=0;entryX=0;entryY=0.5;entryDx=0;entryDy=0;" parent="1" source="PI7zL99VQ0MmY-ACMDeV-44" target="PI7zL99VQ0MmY-ACMDeV-50" edge="1">
          <mxGeometry relative="1" as="geometry">
            <Array as="points">
              <mxPoint x="324" y="1043" />
            </Array>
          </mxGeometry>
        </mxCell>
        <mxCell id="PI7zL99VQ0MmY-ACMDeV-39" value="PWM" style="edgeLabel;html=1;align=center;verticalAlign=middle;resizable=0;points=[];" parent="PI7zL99VQ0MmY-ACMDeV-38" vertex="1" connectable="0">
          <mxGeometry x="0.396" y="-2" relative="1" as="geometry">
            <mxPoint y="-2" as="offset" />
          </mxGeometry>
        </mxCell>
        <mxCell id="PI7zL99VQ0MmY-ACMDeV-40" style="edgeStyle=orthogonalEdgeStyle;rounded=0;orthogonalLoop=1;jettySize=auto;html=1;exitX=1;exitY=0.5;exitDx=0;exitDy=0;entryX=0;entryY=0.5;entryDx=0;entryDy=0;" parent="1" source="PI7zL99VQ0MmY-ACMDeV-44" target="PI7zL99VQ0MmY-ACMDeV-52" edge="1">
          <mxGeometry relative="1" as="geometry">
            <Array as="points">
              <mxPoint x="324" y="1103" />
            </Array>
          </mxGeometry>
        </mxCell>
        <mxCell id="PI7zL99VQ0MmY-ACMDeV-41" value="PWM" style="edgeLabel;html=1;align=center;verticalAlign=middle;resizable=0;points=[];" parent="PI7zL99VQ0MmY-ACMDeV-40" vertex="1" connectable="0">
          <mxGeometry x="0.4713" y="-1" relative="1" as="geometry">
            <mxPoint as="offset" />
          </mxGeometry>
        </mxCell>
        <mxCell id="PI7zL99VQ0MmY-ACMDeV-44" value="Tarjeta Controladora de Motores&lt;br&gt;Salida PWM" style="rounded=1;whiteSpace=wrap;html=1;fillColor=#dae8fc;strokeColor=#6c8ebf;" parent="1" vertex="1">
          <mxGeometry x="240" y="831" width="86" height="365" as="geometry" />
        </mxCell>
        <mxCell id="PI7zL99VQ0MmY-ACMDeV-45" style="edgeStyle=orthogonalEdgeStyle;rounded=0;orthogonalLoop=1;jettySize=auto;html=1;exitX=1;exitY=0.5;exitDx=0;exitDy=0;entryX=0;entryY=0.5;entryDx=0;entryDy=0;" parent="1" source="PI7zL99VQ0MmY-ACMDeV-46" target="PI7zL99VQ0MmY-ACMDeV-58" edge="1">
          <mxGeometry relative="1" as="geometry" />
        </mxCell>
        <mxCell id="PI7zL99VQ0MmY-ACMDeV-46" value="Motor 2" style="rounded=1;whiteSpace=wrap;html=1;fillColor=#e1d5e7;strokeColor=#9673a6;" parent="1" vertex="1">
          <mxGeometry x="441" y="906" width="60" height="35" as="geometry" />
        </mxCell>
        <mxCell id="PI7zL99VQ0MmY-ACMDeV-47" style="edgeStyle=orthogonalEdgeStyle;rounded=0;orthogonalLoop=1;jettySize=auto;html=1;exitX=1;exitY=0.5;exitDx=0;exitDy=0;entryX=0;entryY=0.5;entryDx=0;entryDy=0;" parent="1" source="PI7zL99VQ0MmY-ACMDeV-48" target="PI7zL99VQ0MmY-ACMDeV-60" edge="1">
          <mxGeometry relative="1" as="geometry" />
        </mxCell>
        <mxCell id="PI7zL99VQ0MmY-ACMDeV-48" value="Motor 3" style="rounded=1;whiteSpace=wrap;html=1;fillColor=#e1d5e7;strokeColor=#9673a6;" parent="1" vertex="1">
          <mxGeometry x="441" y="966" width="60" height="35" as="geometry" />
        </mxCell>
        <mxCell id="PI7zL99VQ0MmY-ACMDeV-49" style="edgeStyle=orthogonalEdgeStyle;rounded=0;orthogonalLoop=1;jettySize=auto;html=1;exitX=1;exitY=0.5;exitDx=0;exitDy=0;entryX=0;entryY=0.5;entryDx=0;entryDy=0;" parent="1" source="PI7zL99VQ0MmY-ACMDeV-50" target="PI7zL99VQ0MmY-ACMDeV-62" edge="1">
          <mxGeometry relative="1" as="geometry" />
        </mxCell>
        <mxCell id="PI7zL99VQ0MmY-ACMDeV-50" value="Motor 4" style="rounded=1;whiteSpace=wrap;html=1;fillColor=#e1d5e7;strokeColor=#9673a6;" parent="1" vertex="1">
          <mxGeometry x="441" y="1026" width="60" height="35" as="geometry" />
        </mxCell>
        <mxCell id="PI7zL99VQ0MmY-ACMDeV-51" style="edgeStyle=orthogonalEdgeStyle;rounded=0;orthogonalLoop=1;jettySize=auto;html=1;exitX=1;exitY=0.5;exitDx=0;exitDy=0;entryX=0;entryY=0.5;entryDx=0;entryDy=0;" parent="1" source="PI7zL99VQ0MmY-ACMDeV-52" target="PI7zL99VQ0MmY-ACMDeV-64" edge="1">
          <mxGeometry relative="1" as="geometry" />
        </mxCell>
        <mxCell id="PI7zL99VQ0MmY-ACMDeV-52" value="Motor 5" style="rounded=1;whiteSpace=wrap;html=1;fillColor=#e1d5e7;strokeColor=#9673a6;" parent="1" vertex="1">
          <mxGeometry x="441" y="1086" width="60" height="35" as="geometry" />
        </mxCell>
        <mxCell id="PI7zL99VQ0MmY-ACMDeV-55" style="edgeStyle=orthogonalEdgeStyle;rounded=0;orthogonalLoop=1;jettySize=auto;html=1;exitX=1;exitY=0.5;exitDx=0;exitDy=0;entryX=0;entryY=0.5;entryDx=0;entryDy=0;" parent="1" source="PI7zL99VQ0MmY-ACMDeV-56" target="PI7zL99VQ0MmY-ACMDeV-68" edge="1">
          <mxGeometry relative="1" as="geometry" />
        </mxCell>
        <mxCell id="PI7zL99VQ0MmY-ACMDeV-56" value="Encoder" style="rounded=1;whiteSpace=wrap;html=1;fillColor=#fff2cc;strokeColor=#d6b656;" parent="1" vertex="1">
          <mxGeometry x="521" y="846" width="50" height="35" as="geometry" />
        </mxCell>
        <mxCell id="PI7zL99VQ0MmY-ACMDeV-57" style="edgeStyle=orthogonalEdgeStyle;rounded=0;orthogonalLoop=1;jettySize=auto;html=1;exitX=1;exitY=0.5;exitDx=0;exitDy=0;entryX=0;entryY=0.5;entryDx=0;entryDy=0;" parent="1" source="PI7zL99VQ0MmY-ACMDeV-58" target="PI7zL99VQ0MmY-ACMDeV-69" edge="1">
          <mxGeometry relative="1" as="geometry" />
        </mxCell>
        <mxCell id="PI7zL99VQ0MmY-ACMDeV-58" value="Encoder" style="rounded=1;whiteSpace=wrap;html=1;fillColor=#fff2cc;strokeColor=#d6b656;" parent="1" vertex="1">
          <mxGeometry x="521" y="906" width="50" height="35" as="geometry" />
        </mxCell>
        <mxCell id="PI7zL99VQ0MmY-ACMDeV-59" style="edgeStyle=orthogonalEdgeStyle;rounded=0;orthogonalLoop=1;jettySize=auto;html=1;exitX=1;exitY=0.5;exitDx=0;exitDy=0;entryX=0;entryY=0.5;entryDx=0;entryDy=0;" parent="1" source="PI7zL99VQ0MmY-ACMDeV-60" target="PI7zL99VQ0MmY-ACMDeV-71" edge="1">
          <mxGeometry relative="1" as="geometry" />
        </mxCell>
        <mxCell id="PI7zL99VQ0MmY-ACMDeV-60" value="Encoder" style="rounded=1;whiteSpace=wrap;html=1;fillColor=#fff2cc;strokeColor=#d6b656;" parent="1" vertex="1">
          <mxGeometry x="521" y="966" width="50" height="35" as="geometry" />
        </mxCell>
        <mxCell id="PI7zL99VQ0MmY-ACMDeV-61" style="edgeStyle=orthogonalEdgeStyle;rounded=0;orthogonalLoop=1;jettySize=auto;html=1;exitX=1;exitY=0.5;exitDx=0;exitDy=0;" parent="1" source="PI7zL99VQ0MmY-ACMDeV-62" target="PI7zL99VQ0MmY-ACMDeV-73" edge="1">
          <mxGeometry relative="1" as="geometry" />
        </mxCell>
        <mxCell id="PI7zL99VQ0MmY-ACMDeV-62" value="Encoder" style="rounded=1;whiteSpace=wrap;html=1;fillColor=#fff2cc;strokeColor=#d6b656;" parent="1" vertex="1">
          <mxGeometry x="521" y="1026" width="50" height="35" as="geometry" />
        </mxCell>
        <mxCell id="PI7zL99VQ0MmY-ACMDeV-63" style="edgeStyle=orthogonalEdgeStyle;rounded=0;orthogonalLoop=1;jettySize=auto;html=1;exitX=1;exitY=0.5;exitDx=0;exitDy=0;entryX=0;entryY=0.5;entryDx=0;entryDy=0;" parent="1" source="PI7zL99VQ0MmY-ACMDeV-64" target="PI7zL99VQ0MmY-ACMDeV-75" edge="1">
          <mxGeometry relative="1" as="geometry" />
        </mxCell>
        <mxCell id="PI7zL99VQ0MmY-ACMDeV-64" value="Encoder" style="rounded=1;whiteSpace=wrap;html=1;fillColor=#fff2cc;strokeColor=#d6b656;" parent="1" vertex="1">
          <mxGeometry x="521" y="1086" width="50" height="35" as="geometry" />
        </mxCell>
        <mxCell id="PI7zL99VQ0MmY-ACMDeV-67" style="edgeStyle=orthogonalEdgeStyle;rounded=0;orthogonalLoop=1;jettySize=auto;html=1;exitX=1;exitY=0.5;exitDx=0;exitDy=0;entryX=0.5;entryY=1;entryDx=0;entryDy=0;strokeColor=#A680B8;" parent="1" source="PI7zL99VQ0MmY-ACMDeV-68" target="PI7zL99VQ0MmY-ACMDeV-44" edge="1">
          <mxGeometry relative="1" as="geometry" />
        </mxCell>
        <mxCell id="PI7zL99VQ0MmY-ACMDeV-68" value="Control de PosiciÃ³n PID" style="rounded=1;whiteSpace=wrap;html=1;fillColor=#ffe6cc;strokeColor=#d79b00;" parent="1" vertex="1">
          <mxGeometry x="606" y="840" width="141" height="47" as="geometry" />
        </mxCell>
        <mxCell id="PI7zL99VQ0MmY-ACMDeV-69" value="Control de PosiciÃ³n PID" style="rounded=1;whiteSpace=wrap;html=1;fillColor=#ffe6cc;strokeColor=#d79b00;" parent="1" vertex="1">
          <mxGeometry x="606" y="900" width="141" height="47" as="geometry" />
        </mxCell>
        <mxCell id="PI7zL99VQ0MmY-ACMDeV-70" style="edgeStyle=orthogonalEdgeStyle;rounded=0;orthogonalLoop=1;jettySize=auto;html=1;exitX=1;exitY=0.5;exitDx=0;exitDy=0;entryX=0.5;entryY=1;entryDx=0;entryDy=0;strokeColor=#A680B8;" parent="1" source="PI7zL99VQ0MmY-ACMDeV-71" target="PI7zL99VQ0MmY-ACMDeV-44" edge="1">
          <mxGeometry relative="1" as="geometry" />
        </mxCell>
        <mxCell id="PI7zL99VQ0MmY-ACMDeV-71" value="Control de PosiciÃ³n PID" style="rounded=1;whiteSpace=wrap;html=1;fillColor=#ffe6cc;strokeColor=#d79b00;" parent="1" vertex="1">
          <mxGeometry x="606" y="960" width="141" height="47" as="geometry" />
        </mxCell>
        <mxCell id="PI7zL99VQ0MmY-ACMDeV-72" style="edgeStyle=orthogonalEdgeStyle;rounded=0;orthogonalLoop=1;jettySize=auto;html=1;exitX=1;exitY=0.5;exitDx=0;exitDy=0;entryX=0.5;entryY=1;entryDx=0;entryDy=0;strokeColor=#A680B8;" parent="1" source="PI7zL99VQ0MmY-ACMDeV-73" target="PI7zL99VQ0MmY-ACMDeV-44" edge="1">
          <mxGeometry relative="1" as="geometry">
            <Array as="points">
              <mxPoint x="767" y="1044" />
              <mxPoint x="767" y="1216" />
              <mxPoint x="282" y="1216" />
            </Array>
          </mxGeometry>
        </mxCell>
        <mxCell id="PI7zL99VQ0MmY-ACMDeV-73" value="Control de PosiciÃ³n PID" style="rounded=1;whiteSpace=wrap;html=1;fillColor=#ffe6cc;strokeColor=#d79b00;" parent="1" vertex="1">
          <mxGeometry x="606" y="1020" width="141" height="47" as="geometry" />
        </mxCell>
        <mxCell id="PI7zL99VQ0MmY-ACMDeV-74" style="edgeStyle=orthogonalEdgeStyle;rounded=0;orthogonalLoop=1;jettySize=auto;html=1;exitX=1;exitY=0.5;exitDx=0;exitDy=0;entryX=0.5;entryY=1;entryDx=0;entryDy=0;strokeColor=#A680B8;" parent="1" source="PI7zL99VQ0MmY-ACMDeV-75" target="PI7zL99VQ0MmY-ACMDeV-44" edge="1">
          <mxGeometry relative="1" as="geometry">
            <Array as="points">
              <mxPoint x="767" y="1104" />
              <mxPoint x="767" y="1216" />
              <mxPoint x="282" y="1216" />
            </Array>
          </mxGeometry>
        </mxCell>
        <mxCell id="PI7zL99VQ0MmY-ACMDeV-75" value="Control de PosiciÃ³n PID" style="rounded=1;whiteSpace=wrap;html=1;fillColor=#ffe6cc;strokeColor=#d79b00;" parent="1" vertex="1">
          <mxGeometry x="606" y="1080" width="141" height="47" as="geometry" />
        </mxCell>
        <mxCell id="PI7zL99VQ0MmY-ACMDeV-78" style="edgeStyle=orthogonalEdgeStyle;rounded=0;orthogonalLoop=1;jettySize=auto;html=1;exitX=1;exitY=0.5;exitDx=0;exitDy=0;entryX=0.5;entryY=1;entryDx=0;entryDy=0;strokeColor=#A680B8;" parent="1" source="PI7zL99VQ0MmY-ACMDeV-69" target="PI7zL99VQ0MmY-ACMDeV-44" edge="1">
          <mxGeometry relative="1" as="geometry">
            <Array as="points">
              <mxPoint x="767" y="924" />
              <mxPoint x="767" y="1216" />
              <mxPoint x="282" y="1216" />
            </Array>
          </mxGeometry>
        </mxCell>
        <mxCell id="PI7zL99VQ0MmY-ACMDeV-81" style="edgeStyle=orthogonalEdgeStyle;rounded=0;orthogonalLoop=1;jettySize=auto;html=1;exitX=1;exitY=0.25;exitDx=0;exitDy=0;entryX=0;entryY=0.5;entryDx=0;entryDy=0;strokeColor=#EA6B66;" parent="1" source="PI7zL99VQ0MmY-ACMDeV-83" target="PI7zL99VQ0MmY-ACMDeV-86" edge="1">
          <mxGeometry relative="1" as="geometry">
            <Array as="points">
              <mxPoint x="1048" y="305.5" />
              <mxPoint x="1048" y="232.5" />
            </Array>
          </mxGeometry>
        </mxCell>
        <mxCell id="PI7zL99VQ0MmY-ACMDeV-82" value="24V DC" style="edgeLabel;html=1;align=center;verticalAlign=middle;resizable=0;points=[];" parent="PI7zL99VQ0MmY-ACMDeV-81" vertex="1" connectable="0">
          <mxGeometry x="0.1038" relative="1" as="geometry">
            <mxPoint as="offset" />
          </mxGeometry>
        </mxCell>
        <mxCell id="PI7zL99VQ0MmY-ACMDeV-136" style="edgeStyle=orthogonalEdgeStyle;rounded=0;orthogonalLoop=1;jettySize=auto;html=1;exitX=1;exitY=0.5;exitDx=0;exitDy=0;strokeColor=#EA6B66;" parent="1" source="PI7zL99VQ0MmY-ACMDeV-83" target="PI7zL99VQ0MmY-ACMDeV-101" edge="1">
          <mxGeometry relative="1" as="geometry">
            <Array as="points">
              <mxPoint x="1047" y="417.5" />
              <mxPoint x="1047" y="312.5" />
            </Array>
          </mxGeometry>
        </mxCell>
        <mxCell id="PI7zL99VQ0MmY-ACMDeV-143" style="edgeStyle=orthogonalEdgeStyle;rounded=0;orthogonalLoop=1;jettySize=auto;html=1;exitX=1;exitY=0.5;exitDx=0;exitDy=0;strokeColor=#EA6B66;" parent="1" source="PI7zL99VQ0MmY-ACMDeV-83" target="PI7zL99VQ0MmY-ACMDeV-138" edge="1">
          <mxGeometry relative="1" as="geometry">
            <Array as="points">
              <mxPoint x="1052" y="417.5" />
              <mxPoint x="1052" y="369.5" />
            </Array>
          </mxGeometry>
        </mxCell>
        <mxCell id="PI7zL99VQ0MmY-ACMDeV-144" style="edgeStyle=orthogonalEdgeStyle;rounded=0;orthogonalLoop=1;jettySize=auto;html=1;exitX=1;exitY=0.5;exitDx=0;exitDy=0;entryX=0;entryY=0.5;entryDx=0;entryDy=0;strokeColor=#EA6B66;" parent="1" source="PI7zL99VQ0MmY-ACMDeV-83" target="PI7zL99VQ0MmY-ACMDeV-139" edge="1">
          <mxGeometry relative="1" as="geometry">
            <Array as="points">
              <mxPoint x="1047" y="417.5" />
              <mxPoint x="1047" y="429.5" />
            </Array>
          </mxGeometry>
        </mxCell>
        <mxCell id="PI7zL99VQ0MmY-ACMDeV-145" style="edgeStyle=orthogonalEdgeStyle;rounded=0;orthogonalLoop=1;jettySize=auto;html=1;exitX=1;exitY=0.5;exitDx=0;exitDy=0;strokeColor=#EA6B66;" parent="1" source="PI7zL99VQ0MmY-ACMDeV-83" target="PI7zL99VQ0MmY-ACMDeV-140" edge="1">
          <mxGeometry relative="1" as="geometry">
            <Array as="points">
              <mxPoint x="1049" y="417.5" />
              <mxPoint x="1049" y="489.5" />
            </Array>
          </mxGeometry>
        </mxCell>
        <mxCell id="PI7zL99VQ0MmY-ACMDeV-147" style="edgeStyle=orthogonalEdgeStyle;rounded=0;orthogonalLoop=1;jettySize=auto;html=1;exitX=1;exitY=0.75;exitDx=0;exitDy=0;strokeColor=#EA6B66;" parent="1" source="PI7zL99VQ0MmY-ACMDeV-83" target="PI7zL99VQ0MmY-ACMDeV-141" edge="1">
          <mxGeometry relative="1" as="geometry">
            <Array as="points">
              <mxPoint x="1039" y="529.5" />
              <mxPoint x="1039" y="549.5" />
            </Array>
          </mxGeometry>
        </mxCell>
        <mxCell id="PI7zL99VQ0MmY-ACMDeV-148" style="edgeStyle=orthogonalEdgeStyle;rounded=0;orthogonalLoop=1;jettySize=auto;html=1;exitX=1;exitY=0.75;exitDx=0;exitDy=0;entryX=0;entryY=0.5;entryDx=0;entryDy=0;strokeColor=#EA6B66;" parent="1" source="PI7zL99VQ0MmY-ACMDeV-83" target="PI7zL99VQ0MmY-ACMDeV-142" edge="1">
          <mxGeometry relative="1" as="geometry">
            <Array as="points">
              <mxPoint x="1035" y="529.5" />
              <mxPoint x="1035" y="609.5" />
            </Array>
          </mxGeometry>
        </mxCell>
        <mxCell id="PI7zL99VQ0MmY-ACMDeV-83" value="Fuente de AlimentaciÃ³n&lt;br&gt;24V DC" style="rounded=1;whiteSpace=wrap;html=1;fillColor=#f8cecc;strokeColor=#b85450;" parent="1" vertex="1">
          <mxGeometry x="955" y="192.5" width="100" height="450" as="geometry" />
        </mxCell>
        <mxCell id="PI7zL99VQ0MmY-ACMDeV-192" style="edgeStyle=orthogonalEdgeStyle;rounded=0;orthogonalLoop=1;jettySize=auto;html=1;exitX=0;exitY=0.75;exitDx=0;exitDy=0;entryX=0;entryY=0.25;entryDx=0;entryDy=0;strokeColor=#97D077;" parent="1" source="PI7zL99VQ0MmY-ACMDeV-86" target="PI7zL99VQ0MmY-ACMDeV-101" edge="1">
          <mxGeometry relative="1" as="geometry">
            <Array as="points">
              <mxPoint x="1105" y="252.5" />
              <mxPoint x="1105" y="297.5" />
            </Array>
          </mxGeometry>
        </mxCell>
        <mxCell id="PI7zL99VQ0MmY-ACMDeV-193" style="edgeStyle=orthogonalEdgeStyle;rounded=0;orthogonalLoop=1;jettySize=auto;html=1;exitX=0;exitY=0.75;exitDx=0;exitDy=0;entryX=0;entryY=0.25;entryDx=0;entryDy=0;strokeColor=#97D077;" parent="1" source="PI7zL99VQ0MmY-ACMDeV-86" target="PI7zL99VQ0MmY-ACMDeV-138" edge="1">
          <mxGeometry relative="1" as="geometry">
            <Array as="points">
              <mxPoint x="1105" y="252.5" />
              <mxPoint x="1105" y="357.5" />
            </Array>
          </mxGeometry>
        </mxCell>
        <mxCell id="PI7zL99VQ0MmY-ACMDeV-194" style="edgeStyle=orthogonalEdgeStyle;rounded=0;orthogonalLoop=1;jettySize=auto;html=1;exitX=0;exitY=0.75;exitDx=0;exitDy=0;entryX=0;entryY=0.25;entryDx=0;entryDy=0;strokeColor=#97D077;" parent="1" source="PI7zL99VQ0MmY-ACMDeV-86" target="PI7zL99VQ0MmY-ACMDeV-139" edge="1">
          <mxGeometry relative="1" as="geometry">
            <Array as="points">
              <mxPoint x="1105" y="252.5" />
              <mxPoint x="1105" y="417.5" />
            </Array>
          </mxGeometry>
        </mxCell>
        <mxCell id="PI7zL99VQ0MmY-ACMDeV-195" style="edgeStyle=orthogonalEdgeStyle;rounded=0;orthogonalLoop=1;jettySize=auto;html=1;exitX=0;exitY=0.75;exitDx=0;exitDy=0;entryX=0;entryY=0.25;entryDx=0;entryDy=0;strokeColor=#97D077;" parent="1" source="PI7zL99VQ0MmY-ACMDeV-86" target="PI7zL99VQ0MmY-ACMDeV-140" edge="1">
          <mxGeometry relative="1" as="geometry">
            <Array as="points">
              <mxPoint x="1105" y="252.5" />
              <mxPoint x="1105" y="477.5" />
            </Array>
          </mxGeometry>
        </mxCell>
        <mxCell id="PI7zL99VQ0MmY-ACMDeV-196" style="edgeStyle=orthogonalEdgeStyle;rounded=0;orthogonalLoop=1;jettySize=auto;html=1;exitX=0;exitY=0.75;exitDx=0;exitDy=0;entryX=0;entryY=0.25;entryDx=0;entryDy=0;strokeColor=#97D077;" parent="1" source="PI7zL99VQ0MmY-ACMDeV-86" target="PI7zL99VQ0MmY-ACMDeV-141" edge="1">
          <mxGeometry relative="1" as="geometry" />
        </mxCell>
        <mxCell id="PI7zL99VQ0MmY-ACMDeV-197" style="edgeStyle=orthogonalEdgeStyle;rounded=0;orthogonalLoop=1;jettySize=auto;html=1;exitX=0;exitY=0.75;exitDx=0;exitDy=0;entryX=0;entryY=0.25;entryDx=0;entryDy=0;strokeColor=#97D077;" parent="1" source="PI7zL99VQ0MmY-ACMDeV-86" target="PI7zL99VQ0MmY-ACMDeV-142" edge="1">
          <mxGeometry relative="1" as="geometry">
            <Array as="points">
              <mxPoint x="1105" y="252.5" />
              <mxPoint x="1105" y="597.5" />
            </Array>
          </mxGeometry>
        </mxCell>
        <mxCell id="PI7zL99VQ0MmY-ACMDeV-86" value="Tarjeta de Control de Encendido de Motores" style="rounded=1;whiteSpace=wrap;html=1;fillColor=#d5e8d4;strokeColor=#82b366;" parent="1" vertex="1">
          <mxGeometry x="1275" y="192.5" width="120" height="80" as="geometry" />
        </mxCell>
        <mxCell id="PI7zL99VQ0MmY-ACMDeV-88" value="Motor 1" style="rounded=1;whiteSpace=wrap;html=1;fillColor=#e1d5e7;strokeColor=#9673a6;" parent="1" vertex="1">
          <mxGeometry x="1329" y="288.5" width="66" height="25" as="geometry" />
        </mxCell>
        <mxCell id="PI7zL99VQ0MmY-ACMDeV-163" style="edgeStyle=orthogonalEdgeStyle;rounded=0;orthogonalLoop=1;jettySize=auto;html=1;exitX=1;exitY=0.25;exitDx=0;exitDy=0;entryX=-0.002;entryY=0.553;entryDx=0;entryDy=0;entryPerimeter=0;strokeColor=#7EA6E0;" parent="1" source="PI7zL99VQ0MmY-ACMDeV-101" target="PI7zL99VQ0MmY-ACMDeV-88" edge="1">
          <mxGeometry relative="1" as="geometry">
            <mxPoint x="1225" y="272.5" as="targetPoint" />
            <Array as="points">
              <mxPoint x="1205" y="297.5" />
              <mxPoint x="1205" y="302.5" />
            </Array>
          </mxGeometry>
        </mxCell>
        <mxCell id="PI7zL99VQ0MmY-ACMDeV-101" value="Tarjeta Controladora de Motor" style="rounded=1;whiteSpace=wrap;html=1;fillColor=#dae8fc;strokeColor=#6c8ebf;" parent="1" vertex="1">
          <mxGeometry x="1128" y="284.5" width="86" height="51" as="geometry" />
        </mxCell>
        <mxCell id="PI7zL99VQ0MmY-ACMDeV-180" style="edgeStyle=orthogonalEdgeStyle;rounded=0;orthogonalLoop=1;jettySize=auto;html=1;exitX=0;exitY=0.5;exitDx=0;exitDy=0;strokeColor=#FFD966;startArrow=classic;startFill=1;" parent="1" source="PI7zL99VQ0MmY-ACMDeV-113" target="PI7zL99VQ0MmY-ACMDeV-101" edge="1">
          <mxGeometry relative="1" as="geometry" />
        </mxCell>
        <mxCell id="PI7zL99VQ0MmY-ACMDeV-113" value="Encoder" style="rounded=1;whiteSpace=wrap;html=1;fillColor=#fff2cc;strokeColor=#d6b656;" parent="1" vertex="1">
          <mxGeometry x="1329" y="314.5" width="66" height="16" as="geometry" />
        </mxCell>
        <mxCell id="PI7zL99VQ0MmY-ACMDeV-173" style="edgeStyle=orthogonalEdgeStyle;rounded=0;orthogonalLoop=1;jettySize=auto;html=1;exitX=1;exitY=0.25;exitDx=0;exitDy=0;strokeColor=#7EA6E0;" parent="1" source="PI7zL99VQ0MmY-ACMDeV-138" target="PI7zL99VQ0MmY-ACMDeV-164" edge="1">
          <mxGeometry relative="1" as="geometry">
            <Array as="points">
              <mxPoint x="1205" y="357.5" />
              <mxPoint x="1205" y="361.5" />
            </Array>
          </mxGeometry>
        </mxCell>
        <mxCell id="PI7zL99VQ0MmY-ACMDeV-138" value="Tarjeta Controladora de Motor" style="rounded=1;whiteSpace=wrap;html=1;fillColor=#dae8fc;strokeColor=#6c8ebf;" parent="1" vertex="1">
          <mxGeometry x="1128" y="344.5" width="86" height="51" as="geometry" />
        </mxCell>
        <mxCell id="PI7zL99VQ0MmY-ACMDeV-168" style="edgeStyle=orthogonalEdgeStyle;rounded=0;orthogonalLoop=1;jettySize=auto;html=1;exitX=1;exitY=0.25;exitDx=0;exitDy=0;entryX=0;entryY=0.5;entryDx=0;entryDy=0;strokeColor=#7EA6E0;" parent="1" source="PI7zL99VQ0MmY-ACMDeV-139" target="PI7zL99VQ0MmY-ACMDeV-166" edge="1">
          <mxGeometry relative="1" as="geometry">
            <Array as="points">
              <mxPoint x="1205" y="417.5" />
              <mxPoint x="1205" y="421.5" />
            </Array>
          </mxGeometry>
        </mxCell>
        <mxCell id="PI7zL99VQ0MmY-ACMDeV-139" value="Tarjeta Controladora de Motor" style="rounded=1;whiteSpace=wrap;html=1;fillColor=#dae8fc;strokeColor=#6c8ebf;" parent="1" vertex="1">
          <mxGeometry x="1128" y="404.5" width="86" height="51" as="geometry" />
        </mxCell>
        <mxCell id="PI7zL99VQ0MmY-ACMDeV-176" style="edgeStyle=orthogonalEdgeStyle;rounded=0;orthogonalLoop=1;jettySize=auto;html=1;exitX=1;exitY=0.25;exitDx=0;exitDy=0;strokeColor=#7EA6E0;" parent="1" source="PI7zL99VQ0MmY-ACMDeV-140" target="PI7zL99VQ0MmY-ACMDeV-174" edge="1">
          <mxGeometry relative="1" as="geometry">
            <Array as="points">
              <mxPoint x="1205" y="477.5" />
              <mxPoint x="1205" y="481.5" />
            </Array>
          </mxGeometry>
        </mxCell>
        <mxCell id="PI7zL99VQ0MmY-ACMDeV-140" value="Tarjeta Controladora de Motor" style="rounded=1;whiteSpace=wrap;html=1;fillColor=#dae8fc;strokeColor=#6c8ebf;" parent="1" vertex="1">
          <mxGeometry x="1128" y="464.5" width="86" height="51" as="geometry" />
        </mxCell>
        <mxCell id="PI7zL99VQ0MmY-ACMDeV-185" style="edgeStyle=orthogonalEdgeStyle;rounded=0;orthogonalLoop=1;jettySize=auto;html=1;exitX=1;exitY=0.25;exitDx=0;exitDy=0;strokeColor=#7EA6E0;" parent="1" source="PI7zL99VQ0MmY-ACMDeV-141" target="PI7zL99VQ0MmY-ACMDeV-181" edge="1">
          <mxGeometry relative="1" as="geometry">
            <Array as="points">
              <mxPoint x="1195" y="537.5" />
              <mxPoint x="1195" y="541.5" />
            </Array>
          </mxGeometry>
        </mxCell>
        <mxCell id="PI7zL99VQ0MmY-ACMDeV-141" value="Tarjeta Controladora de Motor" style="rounded=1;whiteSpace=wrap;html=1;fillColor=#dae8fc;strokeColor=#6c8ebf;" parent="1" vertex="1">
          <mxGeometry x="1125" y="524.5" width="86" height="51" as="geometry" />
        </mxCell>
        <mxCell id="PI7zL99VQ0MmY-ACMDeV-187" style="edgeStyle=orthogonalEdgeStyle;rounded=0;orthogonalLoop=1;jettySize=auto;html=1;exitX=1;exitY=0.25;exitDx=0;exitDy=0;strokeColor=#7EA6E0;" parent="1" source="PI7zL99VQ0MmY-ACMDeV-142" target="PI7zL99VQ0MmY-ACMDeV-183" edge="1">
          <mxGeometry relative="1" as="geometry">
            <Array as="points">
              <mxPoint x="1205" y="597.5" />
              <mxPoint x="1205" y="601.5" />
            </Array>
          </mxGeometry>
        </mxCell>
        <mxCell id="PI7zL99VQ0MmY-ACMDeV-142" value="Tarjeta Controladora de Motor" style="rounded=1;whiteSpace=wrap;html=1;fillColor=#dae8fc;strokeColor=#6c8ebf;" parent="1" vertex="1">
          <mxGeometry x="1128" y="584.5" width="86" height="51" as="geometry" />
        </mxCell>
        <mxCell id="PI7zL99VQ0MmY-ACMDeV-164" value="Motor 2" style="rounded=1;whiteSpace=wrap;html=1;fillColor=#e1d5e7;strokeColor=#9673a6;" parent="1" vertex="1">
          <mxGeometry x="1329" y="349" width="66" height="25" as="geometry" />
        </mxCell>
        <mxCell id="PI7zL99VQ0MmY-ACMDeV-179" style="edgeStyle=orthogonalEdgeStyle;rounded=0;orthogonalLoop=1;jettySize=auto;html=1;exitX=0;exitY=0.5;exitDx=0;exitDy=0;strokeColor=#FFD966;startArrow=classic;startFill=1;" parent="1" source="PI7zL99VQ0MmY-ACMDeV-165" target="PI7zL99VQ0MmY-ACMDeV-138" edge="1">
          <mxGeometry relative="1" as="geometry" />
        </mxCell>
        <mxCell id="PI7zL99VQ0MmY-ACMDeV-165" value="Encoder" style="rounded=1;whiteSpace=wrap;html=1;fillColor=#fff2cc;strokeColor=#d6b656;" parent="1" vertex="1">
          <mxGeometry x="1329" y="375" width="66" height="16" as="geometry" />
        </mxCell>
        <mxCell id="PI7zL99VQ0MmY-ACMDeV-166" value="Motor 3" style="rounded=1;whiteSpace=wrap;html=1;fillColor=#e1d5e7;strokeColor=#9673a6;" parent="1" vertex="1">
          <mxGeometry x="1329" y="409" width="66" height="25" as="geometry" />
        </mxCell>
        <mxCell id="PI7zL99VQ0MmY-ACMDeV-178" style="edgeStyle=orthogonalEdgeStyle;rounded=0;orthogonalLoop=1;jettySize=auto;html=1;exitX=0;exitY=0.5;exitDx=0;exitDy=0;entryX=1;entryY=0.5;entryDx=0;entryDy=0;strokeColor=#FFD966;startArrow=classic;startFill=1;" parent="1" source="PI7zL99VQ0MmY-ACMDeV-167" target="PI7zL99VQ0MmY-ACMDeV-139" edge="1">
          <mxGeometry relative="1" as="geometry" />
        </mxCell>
        <mxCell id="PI7zL99VQ0MmY-ACMDeV-167" value="Encoder" style="rounded=1;whiteSpace=wrap;html=1;fillColor=#fff2cc;strokeColor=#d6b656;" parent="1" vertex="1">
          <mxGeometry x="1329" y="435" width="66" height="16" as="geometry" />
        </mxCell>
        <mxCell id="PI7zL99VQ0MmY-ACMDeV-174" value="Motor 4" style="rounded=1;whiteSpace=wrap;html=1;fillColor=#e1d5e7;strokeColor=#9673a6;" parent="1" vertex="1">
          <mxGeometry x="1329" y="469" width="66" height="25" as="geometry" />
        </mxCell>
        <mxCell id="PI7zL99VQ0MmY-ACMDeV-177" style="edgeStyle=orthogonalEdgeStyle;rounded=0;orthogonalLoop=1;jettySize=auto;html=1;exitX=0;exitY=0.5;exitDx=0;exitDy=0;entryX=1;entryY=0.5;entryDx=0;entryDy=0;strokeColor=#FFD966;startArrow=classic;startFill=1;" parent="1" source="PI7zL99VQ0MmY-ACMDeV-175" target="PI7zL99VQ0MmY-ACMDeV-140" edge="1">
          <mxGeometry relative="1" as="geometry" />
        </mxCell>
        <mxCell id="PI7zL99VQ0MmY-ACMDeV-175" value="Encoder" style="rounded=1;whiteSpace=wrap;html=1;fillColor=#fff2cc;strokeColor=#d6b656;" parent="1" vertex="1">
          <mxGeometry x="1329" y="495" width="66" height="16" as="geometry" />
        </mxCell>
        <mxCell id="PI7zL99VQ0MmY-ACMDeV-181" value="Motor 5" style="rounded=1;whiteSpace=wrap;html=1;fillColor=#e1d5e7;strokeColor=#9673a6;" parent="1" vertex="1">
          <mxGeometry x="1329" y="529" width="66" height="25" as="geometry" />
        </mxCell>
        <mxCell id="PI7zL99VQ0MmY-ACMDeV-186" style="edgeStyle=orthogonalEdgeStyle;rounded=0;orthogonalLoop=1;jettySize=auto;html=1;exitX=0;exitY=0.5;exitDx=0;exitDy=0;strokeColor=#FFD966;startArrow=classic;startFill=1;" parent="1" source="PI7zL99VQ0MmY-ACMDeV-182" target="PI7zL99VQ0MmY-ACMDeV-141" edge="1">
          <mxGeometry relative="1" as="geometry" />
        </mxCell>
        <mxCell id="PI7zL99VQ0MmY-ACMDeV-182" value="Encoder" style="rounded=1;whiteSpace=wrap;html=1;fillColor=#fff2cc;strokeColor=#d6b656;" parent="1" vertex="1">
          <mxGeometry x="1329" y="555" width="66" height="16" as="geometry" />
        </mxCell>
        <mxCell id="PI7zL99VQ0MmY-ACMDeV-183" value="Motor 6" style="rounded=1;whiteSpace=wrap;html=1;fillColor=#e1d5e7;strokeColor=#9673a6;" parent="1" vertex="1">
          <mxGeometry x="1329" y="589" width="66" height="25" as="geometry" />
        </mxCell>
        <mxCell id="PI7zL99VQ0MmY-ACMDeV-191" style="edgeStyle=orthogonalEdgeStyle;rounded=0;orthogonalLoop=1;jettySize=auto;html=1;exitX=0;exitY=0.5;exitDx=0;exitDy=0;strokeColor=#FFD966;startArrow=classic;startFill=1;" parent="1" source="PI7zL99VQ0MmY-ACMDeV-184" target="PI7zL99VQ0MmY-ACMDeV-142" edge="1">
          <mxGeometry relative="1" as="geometry" />
        </mxCell>
        <mxCell id="PI7zL99VQ0MmY-ACMDeV-184" value="Encoder" style="rounded=1;whiteSpace=wrap;html=1;fillColor=#fff2cc;strokeColor=#d6b656;" parent="1" vertex="1">
          <mxGeometry x="1329" y="615" width="66" height="16" as="geometry" />
        </mxCell>
        <mxCell id="PI7zL99VQ0MmY-ACMDeV-202" style="edgeStyle=orthogonalEdgeStyle;rounded=0;orthogonalLoop=1;jettySize=auto;html=1;exitX=1;exitY=0.25;exitDx=0;exitDy=0;entryX=0;entryY=0.5;entryDx=0;entryDy=0;strokeColor=#EA6B66;" parent="1" source="PI7zL99VQ0MmY-ACMDeV-210" target="PI7zL99VQ0MmY-ACMDeV-217" edge="1">
          <mxGeometry relative="1" as="geometry">
            <Array as="points">
              <mxPoint x="923" y="912" />
              <mxPoint x="923" y="839" />
            </Array>
          </mxGeometry>
        </mxCell>
        <mxCell id="PI7zL99VQ0MmY-ACMDeV-203" value="24V DC" style="edgeLabel;html=1;align=center;verticalAlign=middle;resizable=0;points=[];" parent="PI7zL99VQ0MmY-ACMDeV-202" vertex="1" connectable="0">
          <mxGeometry x="0.1038" relative="1" as="geometry">
            <mxPoint as="offset" />
          </mxGeometry>
        </mxCell>
        <mxCell id="PI7zL99VQ0MmY-ACMDeV-204" style="edgeStyle=orthogonalEdgeStyle;rounded=0;orthogonalLoop=1;jettySize=auto;html=1;exitX=1;exitY=0.5;exitDx=0;exitDy=0;strokeColor=#EA6B66;" parent="1" source="PI7zL99VQ0MmY-ACMDeV-210" target="PI7zL99VQ0MmY-ACMDeV-220" edge="1">
          <mxGeometry relative="1" as="geometry">
            <Array as="points">
              <mxPoint x="922" y="1024" />
              <mxPoint x="922" y="919" />
            </Array>
          </mxGeometry>
        </mxCell>
        <mxCell id="PI7zL99VQ0MmY-ACMDeV-205" style="edgeStyle=orthogonalEdgeStyle;rounded=0;orthogonalLoop=1;jettySize=auto;html=1;exitX=1;exitY=0.5;exitDx=0;exitDy=0;strokeColor=#EA6B66;" parent="1" source="PI7zL99VQ0MmY-ACMDeV-210" target="PI7zL99VQ0MmY-ACMDeV-224" edge="1">
          <mxGeometry relative="1" as="geometry">
            <Array as="points">
              <mxPoint x="927" y="1024" />
              <mxPoint x="927" y="976" />
            </Array>
          </mxGeometry>
        </mxCell>
        <mxCell id="PI7zL99VQ0MmY-ACMDeV-206" style="edgeStyle=orthogonalEdgeStyle;rounded=0;orthogonalLoop=1;jettySize=auto;html=1;exitX=1;exitY=0.5;exitDx=0;exitDy=0;entryX=0;entryY=0.5;entryDx=0;entryDy=0;strokeColor=#EA6B66;" parent="1" source="PI7zL99VQ0MmY-ACMDeV-210" target="PI7zL99VQ0MmY-ACMDeV-226" edge="1">
          <mxGeometry relative="1" as="geometry">
            <Array as="points">
              <mxPoint x="922" y="1024" />
              <mxPoint x="922" y="1036" />
            </Array>
          </mxGeometry>
        </mxCell>
        <mxCell id="PI7zL99VQ0MmY-ACMDeV-207" style="edgeStyle=orthogonalEdgeStyle;rounded=0;orthogonalLoop=1;jettySize=auto;html=1;exitX=1;exitY=0.5;exitDx=0;exitDy=0;strokeColor=#EA6B66;" parent="1" source="PI7zL99VQ0MmY-ACMDeV-210" target="PI7zL99VQ0MmY-ACMDeV-228" edge="1">
          <mxGeometry relative="1" as="geometry">
            <Array as="points">
              <mxPoint x="924" y="1024" />
              <mxPoint x="924" y="1096" />
            </Array>
          </mxGeometry>
        </mxCell>
        <mxCell id="PI7zL99VQ0MmY-ACMDeV-208" style="edgeStyle=orthogonalEdgeStyle;rounded=0;orthogonalLoop=1;jettySize=auto;html=1;exitX=1;exitY=0.75;exitDx=0;exitDy=0;strokeColor=#EA6B66;" parent="1" source="PI7zL99VQ0MmY-ACMDeV-210" target="PI7zL99VQ0MmY-ACMDeV-230" edge="1">
          <mxGeometry relative="1" as="geometry">
            <Array as="points">
              <mxPoint x="914" y="1136" />
              <mxPoint x="914" y="1156" />
            </Array>
          </mxGeometry>
        </mxCell>
        <mxCell id="PI7zL99VQ0MmY-ACMDeV-210" value="Fuente de AlimentaciÃ³n&lt;br&gt;24V DC" style="rounded=1;whiteSpace=wrap;html=1;fillColor=#f8cecc;strokeColor=#b85450;" parent="1" vertex="1">
          <mxGeometry x="830" y="799" width="100" height="450" as="geometry" />
        </mxCell>
        <mxCell id="PI7zL99VQ0MmY-ACMDeV-211" style="edgeStyle=orthogonalEdgeStyle;rounded=0;orthogonalLoop=1;jettySize=auto;html=1;exitX=0;exitY=0.75;exitDx=0;exitDy=0;entryX=0;entryY=0.25;entryDx=0;entryDy=0;strokeColor=#97D077;" parent="1" source="PI7zL99VQ0MmY-ACMDeV-217" target="PI7zL99VQ0MmY-ACMDeV-220" edge="1">
          <mxGeometry relative="1" as="geometry">
            <Array as="points">
              <mxPoint x="980" y="859" />
              <mxPoint x="980" y="904" />
            </Array>
          </mxGeometry>
        </mxCell>
        <mxCell id="PI7zL99VQ0MmY-ACMDeV-212" style="edgeStyle=orthogonalEdgeStyle;rounded=0;orthogonalLoop=1;jettySize=auto;html=1;exitX=0;exitY=0.75;exitDx=0;exitDy=0;entryX=0;entryY=0.25;entryDx=0;entryDy=0;strokeColor=#97D077;" parent="1" source="PI7zL99VQ0MmY-ACMDeV-217" target="PI7zL99VQ0MmY-ACMDeV-224" edge="1">
          <mxGeometry relative="1" as="geometry">
            <Array as="points">
              <mxPoint x="980" y="859" />
              <mxPoint x="980" y="964" />
            </Array>
          </mxGeometry>
        </mxCell>
        <mxCell id="PI7zL99VQ0MmY-ACMDeV-213" style="edgeStyle=orthogonalEdgeStyle;rounded=0;orthogonalLoop=1;jettySize=auto;html=1;exitX=0;exitY=0.75;exitDx=0;exitDy=0;entryX=0;entryY=0.25;entryDx=0;entryDy=0;strokeColor=#97D077;" parent="1" source="PI7zL99VQ0MmY-ACMDeV-217" target="PI7zL99VQ0MmY-ACMDeV-226" edge="1">
          <mxGeometry relative="1" as="geometry">
            <Array as="points">
              <mxPoint x="980" y="859" />
              <mxPoint x="980" y="1024" />
            </Array>
          </mxGeometry>
        </mxCell>
        <mxCell id="PI7zL99VQ0MmY-ACMDeV-214" style="edgeStyle=orthogonalEdgeStyle;rounded=0;orthogonalLoop=1;jettySize=auto;html=1;exitX=0;exitY=0.75;exitDx=0;exitDy=0;entryX=0;entryY=0.25;entryDx=0;entryDy=0;strokeColor=#97D077;" parent="1" source="PI7zL99VQ0MmY-ACMDeV-217" target="PI7zL99VQ0MmY-ACMDeV-228" edge="1">
          <mxGeometry relative="1" as="geometry">
            <Array as="points">
              <mxPoint x="980" y="859" />
              <mxPoint x="980" y="1084" />
            </Array>
          </mxGeometry>
        </mxCell>
        <mxCell id="PI7zL99VQ0MmY-ACMDeV-215" style="edgeStyle=orthogonalEdgeStyle;rounded=0;orthogonalLoop=1;jettySize=auto;html=1;exitX=0;exitY=0.75;exitDx=0;exitDy=0;entryX=0;entryY=0.25;entryDx=0;entryDy=0;strokeColor=#97D077;" parent="1" source="PI7zL99VQ0MmY-ACMDeV-217" target="PI7zL99VQ0MmY-ACMDeV-230" edge="1">
          <mxGeometry relative="1" as="geometry" />
        </mxCell>
        <mxCell id="PI7zL99VQ0MmY-ACMDeV-217" value="Tarjeta de Control de Encendido de Motores" style="rounded=1;whiteSpace=wrap;html=1;fillColor=#d5e8d4;strokeColor=#82b366;" parent="1" vertex="1">
          <mxGeometry x="1150" y="799" width="120" height="80" as="geometry" />
        </mxCell>
        <mxCell id="PI7zL99VQ0MmY-ACMDeV-218" value="Motor 1" style="rounded=1;whiteSpace=wrap;html=1;fillColor=#e1d5e7;strokeColor=#9673a6;" parent="1" vertex="1">
          <mxGeometry x="1204" y="895" width="66" height="25" as="geometry" />
        </mxCell>
        <mxCell id="PI7zL99VQ0MmY-ACMDeV-219" style="edgeStyle=orthogonalEdgeStyle;rounded=0;orthogonalLoop=1;jettySize=auto;html=1;exitX=1;exitY=0.25;exitDx=0;exitDy=0;entryX=-0.002;entryY=0.553;entryDx=0;entryDy=0;entryPerimeter=0;strokeColor=#7EA6E0;" parent="1" source="PI7zL99VQ0MmY-ACMDeV-220" target="PI7zL99VQ0MmY-ACMDeV-218" edge="1">
          <mxGeometry relative="1" as="geometry">
            <mxPoint x="1100" y="879" as="targetPoint" />
            <Array as="points">
              <mxPoint x="1080" y="904" />
              <mxPoint x="1080" y="909" />
            </Array>
          </mxGeometry>
        </mxCell>
        <mxCell id="PI7zL99VQ0MmY-ACMDeV-220" value="Tarjeta Controladora de Motor" style="rounded=1;whiteSpace=wrap;html=1;fillColor=#dae8fc;strokeColor=#6c8ebf;" parent="1" vertex="1">
          <mxGeometry x="1003" y="891" width="86" height="51" as="geometry" />
        </mxCell>
        <mxCell id="PI7zL99VQ0MmY-ACMDeV-221" style="edgeStyle=orthogonalEdgeStyle;rounded=0;orthogonalLoop=1;jettySize=auto;html=1;exitX=0;exitY=0.5;exitDx=0;exitDy=0;strokeColor=#FFD966;startArrow=classic;startFill=1;" parent="1" source="PI7zL99VQ0MmY-ACMDeV-222" target="PI7zL99VQ0MmY-ACMDeV-220" edge="1">
          <mxGeometry relative="1" as="geometry" />
        </mxCell>
        <mxCell id="PI7zL99VQ0MmY-ACMDeV-222" value="Encoder" style="rounded=1;whiteSpace=wrap;html=1;fillColor=#fff2cc;strokeColor=#d6b656;" parent="1" vertex="1">
          <mxGeometry x="1204" y="921" width="66" height="16" as="geometry" />
        </mxCell>
        <mxCell id="PI7zL99VQ0MmY-ACMDeV-223" style="edgeStyle=orthogonalEdgeStyle;rounded=0;orthogonalLoop=1;jettySize=auto;html=1;exitX=1;exitY=0.25;exitDx=0;exitDy=0;strokeColor=#7EA6E0;" parent="1" source="PI7zL99VQ0MmY-ACMDeV-224" target="PI7zL99VQ0MmY-ACMDeV-233" edge="1">
          <mxGeometry relative="1" as="geometry">
            <Array as="points">
              <mxPoint x="1080" y="964" />
              <mxPoint x="1080" y="968" />
            </Array>
          </mxGeometry>
        </mxCell>
        <mxCell id="PI7zL99VQ0MmY-ACMDeV-224" value="Tarjeta Controladora de Motor" style="rounded=1;whiteSpace=wrap;html=1;fillColor=#dae8fc;strokeColor=#6c8ebf;" parent="1" vertex="1">
          <mxGeometry x="1003" y="951" width="86" height="51" as="geometry" />
        </mxCell>
        <mxCell id="PI7zL99VQ0MmY-ACMDeV-225" style="edgeStyle=orthogonalEdgeStyle;rounded=0;orthogonalLoop=1;jettySize=auto;html=1;exitX=1;exitY=0.25;exitDx=0;exitDy=0;entryX=0;entryY=0.5;entryDx=0;entryDy=0;strokeColor=#7EA6E0;" parent="1" source="PI7zL99VQ0MmY-ACMDeV-226" target="PI7zL99VQ0MmY-ACMDeV-236" edge="1">
          <mxGeometry relative="1" as="geometry">
            <Array as="points">
              <mxPoint x="1080" y="1024" />
              <mxPoint x="1080" y="1028" />
            </Array>
          </mxGeometry>
        </mxCell>
        <mxCell id="PI7zL99VQ0MmY-ACMDeV-226" value="Tarjeta Controladora de Motor" style="rounded=1;whiteSpace=wrap;html=1;fillColor=#dae8fc;strokeColor=#6c8ebf;" parent="1" vertex="1">
          <mxGeometry x="1003" y="1011" width="86" height="51" as="geometry" />
        </mxCell>
        <mxCell id="PI7zL99VQ0MmY-ACMDeV-227" style="edgeStyle=orthogonalEdgeStyle;rounded=0;orthogonalLoop=1;jettySize=auto;html=1;exitX=1;exitY=0.25;exitDx=0;exitDy=0;strokeColor=#7EA6E0;" parent="1" source="PI7zL99VQ0MmY-ACMDeV-228" target="PI7zL99VQ0MmY-ACMDeV-239" edge="1">
          <mxGeometry relative="1" as="geometry">
            <Array as="points">
              <mxPoint x="1080" y="1084" />
              <mxPoint x="1080" y="1088" />
            </Array>
          </mxGeometry>
        </mxCell>
        <mxCell id="PI7zL99VQ0MmY-ACMDeV-228" value="Tarjeta Controladora de Motor" style="rounded=1;whiteSpace=wrap;html=1;fillColor=#dae8fc;strokeColor=#6c8ebf;" parent="1" vertex="1">
          <mxGeometry x="1003" y="1071" width="86" height="51" as="geometry" />
        </mxCell>
        <mxCell id="PI7zL99VQ0MmY-ACMDeV-229" style="edgeStyle=orthogonalEdgeStyle;rounded=0;orthogonalLoop=1;jettySize=auto;html=1;exitX=1;exitY=0.25;exitDx=0;exitDy=0;strokeColor=#7EA6E0;" parent="1" source="PI7zL99VQ0MmY-ACMDeV-230" target="PI7zL99VQ0MmY-ACMDeV-242" edge="1">
          <mxGeometry relative="1" as="geometry">
            <Array as="points">
              <mxPoint x="1070" y="1144" />
              <mxPoint x="1070" y="1148" />
            </Array>
          </mxGeometry>
        </mxCell>
        <mxCell id="PI7zL99VQ0MmY-ACMDeV-230" value="Tarjeta Controladora de Motor" style="rounded=1;whiteSpace=wrap;html=1;fillColor=#dae8fc;strokeColor=#6c8ebf;" parent="1" vertex="1">
          <mxGeometry x="1000" y="1131" width="86" height="51" as="geometry" />
        </mxCell>
        <mxCell id="PI7zL99VQ0MmY-ACMDeV-233" value="Motor 2" style="rounded=1;whiteSpace=wrap;html=1;fillColor=#e1d5e7;strokeColor=#9673a6;" parent="1" vertex="1">
          <mxGeometry x="1204" y="955.5" width="66" height="25" as="geometry" />
        </mxCell>
        <mxCell id="PI7zL99VQ0MmY-ACMDeV-234" style="edgeStyle=orthogonalEdgeStyle;rounded=0;orthogonalLoop=1;jettySize=auto;html=1;exitX=0;exitY=0.5;exitDx=0;exitDy=0;strokeColor=#FFD966;startArrow=classic;startFill=1;" parent="1" source="PI7zL99VQ0MmY-ACMDeV-235" target="PI7zL99VQ0MmY-ACMDeV-224" edge="1">
          <mxGeometry relative="1" as="geometry" />
        </mxCell>
        <mxCell id="PI7zL99VQ0MmY-ACMDeV-235" value="Encoder" style="rounded=1;whiteSpace=wrap;html=1;fillColor=#fff2cc;strokeColor=#d6b656;" parent="1" vertex="1">
          <mxGeometry x="1204" y="981.5" width="66" height="16" as="geometry" />
        </mxCell>
        <mxCell id="PI7zL99VQ0MmY-ACMDeV-236" value="Motor 3" style="rounded=1;whiteSpace=wrap;html=1;fillColor=#e1d5e7;strokeColor=#9673a6;" parent="1" vertex="1">
          <mxGeometry x="1204" y="1015.5" width="66" height="25" as="geometry" />
        </mxCell>
        <mxCell id="PI7zL99VQ0MmY-ACMDeV-237" style="edgeStyle=orthogonalEdgeStyle;rounded=0;orthogonalLoop=1;jettySize=auto;html=1;exitX=0;exitY=0.5;exitDx=0;exitDy=0;entryX=1;entryY=0.5;entryDx=0;entryDy=0;strokeColor=#FFD966;startArrow=classic;startFill=1;" parent="1" source="PI7zL99VQ0MmY-ACMDeV-238" target="PI7zL99VQ0MmY-ACMDeV-226" edge="1">
          <mxGeometry relative="1" as="geometry" />
        </mxCell>
        <mxCell id="PI7zL99VQ0MmY-ACMDeV-238" value="Encoder" style="rounded=1;whiteSpace=wrap;html=1;fillColor=#fff2cc;strokeColor=#d6b656;" parent="1" vertex="1">
          <mxGeometry x="1204" y="1041.5" width="66" height="16" as="geometry" />
        </mxCell>
        <mxCell id="PI7zL99VQ0MmY-ACMDeV-239" value="Motor 4" style="rounded=1;whiteSpace=wrap;html=1;fillColor=#e1d5e7;strokeColor=#9673a6;" parent="1" vertex="1">
          <mxGeometry x="1204" y="1075.5" width="66" height="25" as="geometry" />
        </mxCell>
        <mxCell id="PI7zL99VQ0MmY-ACMDeV-240" style="edgeStyle=orthogonalEdgeStyle;rounded=0;orthogonalLoop=1;jettySize=auto;html=1;exitX=0;exitY=0.5;exitDx=0;exitDy=0;entryX=1;entryY=0.5;entryDx=0;entryDy=0;strokeColor=#FFD966;startArrow=classic;startFill=1;" parent="1" source="PI7zL99VQ0MmY-ACMDeV-241" target="PI7zL99VQ0MmY-ACMDeV-228" edge="1">
          <mxGeometry relative="1" as="geometry" />
        </mxCell>
        <mxCell id="PI7zL99VQ0MmY-ACMDeV-241" value="Encoder" style="rounded=1;whiteSpace=wrap;html=1;fillColor=#fff2cc;strokeColor=#d6b656;" parent="1" vertex="1">
          <mxGeometry x="1204" y="1101.5" width="66" height="16" as="geometry" />
        </mxCell>
        <mxCell id="PI7zL99VQ0MmY-ACMDeV-242" value="Motor 5" style="rounded=1;whiteSpace=wrap;html=1;fillColor=#e1d5e7;strokeColor=#9673a6;" parent="1" vertex="1">
          <mxGeometry x="1204" y="1135.5" width="66" height="25" as="geometry" />
        </mxCell>
        <mxCell id="PI7zL99VQ0MmY-ACMDeV-243" style="edgeStyle=orthogonalEdgeStyle;rounded=0;orthogonalLoop=1;jettySize=auto;html=1;exitX=0;exitY=0.5;exitDx=0;exitDy=0;strokeColor=#FFD966;startArrow=classic;startFill=1;" parent="1" source="PI7zL99VQ0MmY-ACMDeV-244" target="PI7zL99VQ0MmY-ACMDeV-230" edge="1">
          <mxGeometry relative="1" as="geometry" />
        </mxCell>
        <mxCell id="PI7zL99VQ0MmY-ACMDeV-244" value="Encoder" style="rounded=1;whiteSpace=wrap;html=1;fillColor=#fff2cc;strokeColor=#d6b656;" parent="1" vertex="1">
          <mxGeometry x="1204" y="1161.5" width="66" height="16" as="geometry" />
        </mxCell>
        <mxCell id="LHox1asgE501jTqtss1L-132" style="edgeStyle=orthogonalEdgeStyle;rounded=0;orthogonalLoop=1;jettySize=auto;html=1;exitX=1;exitY=0.5;exitDx=0;exitDy=0;entryX=0;entryY=0.5;entryDx=0;entryDy=0;strokeColor=#EA6B66;" parent="1" source="LHox1asgE501jTqtss1L-9" target="LHox1asgE501jTqtss1L-16" edge="1">
          <mxGeometry relative="1" as="geometry" />
        </mxCell>
        <mxCell id="LHox1asgE501jTqtss1L-9" value="Power Supply&lt;br style=&quot;border-color: var(--border-color);&quot;&gt;&lt;span style=&quot;&quot;&gt;24V DC 10A&lt;/span&gt;&lt;br style=&quot;border-color: var(--border-color);&quot;&gt;&lt;span style=&quot;&quot;&gt;PWM&lt;/span&gt;" style="rounded=1;whiteSpace=wrap;html=1;fillColor=#f8cecc;strokeColor=#b85450;align=right;" parent="1" vertex="1">
          <mxGeometry x="1939" y="226.25" width="120" height="47.75" as="geometry" />
        </mxCell>
        <mxCell id="LHox1asgE501jTqtss1L-111" style="edgeStyle=orthogonalEdgeStyle;rounded=0;orthogonalLoop=1;jettySize=auto;html=1;exitX=0;exitY=0.75;exitDx=0;exitDy=0;entryX=0;entryY=0.75;entryDx=0;entryDy=0;strokeColor=#97D077;" parent="1" source="LHox1asgE501jTqtss1L-16" target="LHox1asgE501jTqtss1L-17" edge="1">
          <mxGeometry relative="1" as="geometry" />
        </mxCell>
        <mxCell id="LHox1asgE501jTqtss1L-112" style="edgeStyle=orthogonalEdgeStyle;rounded=0;orthogonalLoop=1;jettySize=auto;html=1;exitX=0;exitY=0.75;exitDx=0;exitDy=0;entryX=0;entryY=0.75;entryDx=0;entryDy=0;strokeColor=#97D077;" parent="1" source="LHox1asgE501jTqtss1L-16" target="LHox1asgE501jTqtss1L-32" edge="1">
          <mxGeometry relative="1" as="geometry" />
        </mxCell>
        <mxCell id="LHox1asgE501jTqtss1L-113" style="edgeStyle=orthogonalEdgeStyle;rounded=0;orthogonalLoop=1;jettySize=auto;html=1;exitX=0;exitY=0.75;exitDx=0;exitDy=0;entryX=0;entryY=0.75;entryDx=0;entryDy=0;strokeColor=#97D077;" parent="1" source="LHox1asgE501jTqtss1L-16" target="LHox1asgE501jTqtss1L-35" edge="1">
          <mxGeometry relative="1" as="geometry" />
        </mxCell>
        <mxCell id="LHox1asgE501jTqtss1L-114" style="edgeStyle=orthogonalEdgeStyle;rounded=0;orthogonalLoop=1;jettySize=auto;html=1;exitX=0;exitY=0.75;exitDx=0;exitDy=0;entryX=0;entryY=0.75;entryDx=0;entryDy=0;strokeColor=#97D077;" parent="1" source="LHox1asgE501jTqtss1L-16" target="LHox1asgE501jTqtss1L-38" edge="1">
          <mxGeometry relative="1" as="geometry" />
        </mxCell>
        <mxCell id="LHox1asgE501jTqtss1L-115" style="edgeStyle=orthogonalEdgeStyle;rounded=0;orthogonalLoop=1;jettySize=auto;html=1;exitX=0;exitY=0.75;exitDx=0;exitDy=0;entryX=0;entryY=0.75;entryDx=0;entryDy=0;strokeColor=#97D077;" parent="1" source="LHox1asgE501jTqtss1L-16" target="LHox1asgE501jTqtss1L-41" edge="1">
          <mxGeometry relative="1" as="geometry" />
        </mxCell>
        <mxCell id="LHox1asgE501jTqtss1L-116" style="edgeStyle=orthogonalEdgeStyle;rounded=0;orthogonalLoop=1;jettySize=auto;html=1;exitX=0;exitY=0.75;exitDx=0;exitDy=0;entryX=0;entryY=0.75;entryDx=0;entryDy=0;strokeColor=#97D077;" parent="1" source="LHox1asgE501jTqtss1L-16" target="LHox1asgE501jTqtss1L-44" edge="1">
          <mxGeometry relative="1" as="geometry" />
        </mxCell>
        <mxCell id="LHox1asgE501jTqtss1L-16" value="Tarjeta de Control de Encendido de Motores" style="rounded=1;whiteSpace=wrap;html=1;fillColor=#d5e8d4;strokeColor=#82b366;" parent="1" vertex="1">
          <mxGeometry x="2150" y="209.5" width="87" height="80" as="geometry" />
        </mxCell>
        <mxCell id="LHox1asgE501jTqtss1L-17" value="Motor 1" style="rounded=1;whiteSpace=wrap;html=1;fillColor=#e1d5e7;strokeColor=#9673a6;" parent="1" vertex="1">
          <mxGeometry x="2171" y="309.51" width="66" height="25" as="geometry" />
        </mxCell>
        <mxCell id="LHox1asgE501jTqtss1L-108" style="edgeStyle=orthogonalEdgeStyle;rounded=0;orthogonalLoop=1;jettySize=auto;html=1;exitX=0;exitY=0.5;exitDx=0;exitDy=0;entryX=1;entryY=0.75;entryDx=0;entryDy=0;startArrow=none;startFill=0;strokeColor=#FFD966;" parent="1" source="LHox1asgE501jTqtss1L-21" target="LHox1asgE501jTqtss1L-29" edge="1">
          <mxGeometry relative="1" as="geometry" />
        </mxCell>
        <mxCell id="LHox1asgE501jTqtss1L-21" value="Encoder" style="rounded=1;whiteSpace=wrap;html=1;fillColor=#fff2cc;strokeColor=#d6b656;" parent="1" vertex="1">
          <mxGeometry x="2171" y="334.51" width="66" height="16" as="geometry" />
        </mxCell>
        <mxCell id="LHox1asgE501jTqtss1L-130" style="edgeStyle=orthogonalEdgeStyle;rounded=0;orthogonalLoop=1;jettySize=auto;html=1;exitX=1;exitY=0.5;exitDx=0;exitDy=0;entryX=0;entryY=0.5;entryDx=0;entryDy=0;strokeColor=#7EA6E0;" parent="1" source="LHox1asgE501jTqtss1L-29" target="LHox1asgE501jTqtss1L-53" edge="1">
          <mxGeometry relative="1" as="geometry" />
        </mxCell>
        <mxCell id="LHox1asgE501jTqtss1L-29" value="MCU 1" style="rounded=1;whiteSpace=wrap;html=1;fillColor=#dae8fc;strokeColor=#6c8ebf;" parent="1" vertex="1">
          <mxGeometry x="1820" y="299.38" width="70" height="51" as="geometry" />
        </mxCell>
        <mxCell id="LHox1asgE501jTqtss1L-32" value="Motor 2" style="rounded=1;whiteSpace=wrap;html=1;fillColor=#e1d5e7;strokeColor=#9673a6;" parent="1" vertex="1">
          <mxGeometry x="2171" y="369.5" width="66" height="25" as="geometry" />
        </mxCell>
        <mxCell id="LHox1asgE501jTqtss1L-107" style="edgeStyle=orthogonalEdgeStyle;rounded=0;orthogonalLoop=1;jettySize=auto;html=1;exitX=0;exitY=0.5;exitDx=0;exitDy=0;entryX=1;entryY=0.75;entryDx=0;entryDy=0;startArrow=none;startFill=0;strokeColor=#FFD966;" parent="1" source="LHox1asgE501jTqtss1L-34" target="LHox1asgE501jTqtss1L-86" edge="1">
          <mxGeometry relative="1" as="geometry" />
        </mxCell>
        <mxCell id="LHox1asgE501jTqtss1L-34" value="Encoder" style="rounded=1;whiteSpace=wrap;html=1;fillColor=#fff2cc;strokeColor=#d6b656;" parent="1" vertex="1">
          <mxGeometry x="2171" y="394.5" width="66" height="16" as="geometry" />
        </mxCell>
        <mxCell id="LHox1asgE501jTqtss1L-35" value="Motor 3" style="rounded=1;whiteSpace=wrap;html=1;fillColor=#e1d5e7;strokeColor=#9673a6;" parent="1" vertex="1">
          <mxGeometry x="2171" y="429.5" width="66" height="25" as="geometry" />
        </mxCell>
        <mxCell id="LHox1asgE501jTqtss1L-106" style="edgeStyle=orthogonalEdgeStyle;rounded=0;orthogonalLoop=1;jettySize=auto;html=1;exitX=0;exitY=0.5;exitDx=0;exitDy=0;entryX=1;entryY=0.75;entryDx=0;entryDy=0;startArrow=none;startFill=0;strokeColor=#FFD966;" parent="1" source="LHox1asgE501jTqtss1L-37" target="LHox1asgE501jTqtss1L-89" edge="1">
          <mxGeometry relative="1" as="geometry" />
        </mxCell>
        <mxCell id="LHox1asgE501jTqtss1L-37" value="Encoder" style="rounded=1;whiteSpace=wrap;html=1;fillColor=#fff2cc;strokeColor=#d6b656;" parent="1" vertex="1">
          <mxGeometry x="2171" y="454.5" width="66" height="16" as="geometry" />
        </mxCell>
        <mxCell id="LHox1asgE501jTqtss1L-38" value="Motor 4" style="rounded=1;whiteSpace=wrap;html=1;fillColor=#e1d5e7;strokeColor=#9673a6;" parent="1" vertex="1">
          <mxGeometry x="2171" y="489.5" width="66" height="25" as="geometry" />
        </mxCell>
        <mxCell id="LHox1asgE501jTqtss1L-105" style="edgeStyle=orthogonalEdgeStyle;rounded=0;orthogonalLoop=1;jettySize=auto;html=1;exitX=0;exitY=0.5;exitDx=0;exitDy=0;entryX=1;entryY=0.75;entryDx=0;entryDy=0;startArrow=none;startFill=0;strokeColor=#FFD966;" parent="1" source="LHox1asgE501jTqtss1L-40" target="LHox1asgE501jTqtss1L-90" edge="1">
          <mxGeometry relative="1" as="geometry" />
        </mxCell>
        <mxCell id="LHox1asgE501jTqtss1L-40" value="Encoder" style="rounded=1;whiteSpace=wrap;html=1;fillColor=#fff2cc;strokeColor=#d6b656;" parent="1" vertex="1">
          <mxGeometry x="2171" y="514.5" width="66" height="16" as="geometry" />
        </mxCell>
        <mxCell id="LHox1asgE501jTqtss1L-41" value="Motor 5" style="rounded=1;whiteSpace=wrap;html=1;fillColor=#e1d5e7;strokeColor=#9673a6;" parent="1" vertex="1">
          <mxGeometry x="2171" y="549.5" width="66" height="25" as="geometry" />
        </mxCell>
        <mxCell id="LHox1asgE501jTqtss1L-103" style="edgeStyle=orthogonalEdgeStyle;rounded=0;orthogonalLoop=1;jettySize=auto;html=1;exitX=0;exitY=0.5;exitDx=0;exitDy=0;entryX=1;entryY=0.75;entryDx=0;entryDy=0;startArrow=none;startFill=0;fillColor=#fff2cc;strokeColor=#FFD966;" parent="1" source="LHox1asgE501jTqtss1L-43" target="LHox1asgE501jTqtss1L-91" edge="1">
          <mxGeometry relative="1" as="geometry" />
        </mxCell>
        <mxCell id="LHox1asgE501jTqtss1L-43" value="Encoder" style="rounded=1;whiteSpace=wrap;html=1;fillColor=#fff2cc;strokeColor=#d6b656;" parent="1" vertex="1">
          <mxGeometry x="2171" y="574.5" width="66" height="16" as="geometry" />
        </mxCell>
        <mxCell id="LHox1asgE501jTqtss1L-44" value="Motor 6" style="rounded=1;whiteSpace=wrap;html=1;fillColor=#e1d5e7;strokeColor=#9673a6;" parent="1" vertex="1">
          <mxGeometry x="2171" y="609.5" width="66" height="25" as="geometry" />
        </mxCell>
        <mxCell id="LHox1asgE501jTqtss1L-104" style="edgeStyle=orthogonalEdgeStyle;rounded=0;orthogonalLoop=1;jettySize=auto;html=1;exitX=0;exitY=0.5;exitDx=0;exitDy=0;entryX=1;entryY=0.75;entryDx=0;entryDy=0;startArrow=none;startFill=0;strokeColor=#FFD966;" parent="1" source="LHox1asgE501jTqtss1L-46" target="LHox1asgE501jTqtss1L-92" edge="1">
          <mxGeometry relative="1" as="geometry" />
        </mxCell>
        <mxCell id="LHox1asgE501jTqtss1L-46" value="Encoder" style="rounded=1;whiteSpace=wrap;html=1;fillColor=#fff2cc;strokeColor=#d6b656;" parent="1" vertex="1">
          <mxGeometry x="2171" y="634.5" width="66" height="16" as="geometry" />
        </mxCell>
        <mxCell id="LHox1asgE501jTqtss1L-99" style="edgeStyle=orthogonalEdgeStyle;rounded=0;orthogonalLoop=1;jettySize=auto;html=1;exitX=1;exitY=0.5;exitDx=0;exitDy=0;strokeColor=#EA6B66;" parent="1" source="LHox1asgE501jTqtss1L-53" target="LHox1asgE501jTqtss1L-17" edge="1">
          <mxGeometry relative="1" as="geometry" />
        </mxCell>
        <mxCell id="LHox1asgE501jTqtss1L-53" value="Power Supply&lt;br style=&quot;border-color: var(--border-color);&quot;&gt;24V DC 10A PWM" style="rounded=1;whiteSpace=wrap;html=1;fillColor=#f8cecc;strokeColor=#b85450;align=right;" parent="1" vertex="1">
          <mxGeometry x="1940" y="299.38" width="120" height="29.12" as="geometry" />
        </mxCell>
        <mxCell id="LHox1asgE501jTqtss1L-100" style="edgeStyle=orthogonalEdgeStyle;rounded=0;orthogonalLoop=1;jettySize=auto;html=1;exitX=1;exitY=0.5;exitDx=0;exitDy=0;entryX=0;entryY=0.5;entryDx=0;entryDy=0;strokeColor=#EA6B66;" parent="1" source="LHox1asgE501jTqtss1L-58" target="LHox1asgE501jTqtss1L-32" edge="1">
          <mxGeometry relative="1" as="geometry" />
        </mxCell>
        <mxCell id="LHox1asgE501jTqtss1L-58" value="Power Supply&lt;br style=&quot;border-color: var(--border-color);&quot;&gt;24V DC 10A PWM" style="rounded=1;whiteSpace=wrap;html=1;fillColor=#f8cecc;strokeColor=#b85450;align=right;" parent="1" vertex="1">
          <mxGeometry x="1940" y="359.38" width="120" height="29.12" as="geometry" />
        </mxCell>
        <mxCell id="LHox1asgE501jTqtss1L-78" style="edgeStyle=orthogonalEdgeStyle;rounded=0;orthogonalLoop=1;jettySize=auto;html=1;exitX=1;exitY=0.5;exitDx=0;exitDy=0;entryX=0;entryY=0.5;entryDx=0;entryDy=0;strokeColor=#EA6B66;" parent="1" source="LHox1asgE501jTqtss1L-59" target="LHox1asgE501jTqtss1L-35" edge="1">
          <mxGeometry relative="1" as="geometry" />
        </mxCell>
        <mxCell id="LHox1asgE501jTqtss1L-59" value="Power Supply&lt;br style=&quot;border-color: var(--border-color);&quot;&gt;24V DC 10A PWM" style="rounded=1;whiteSpace=wrap;html=1;fillColor=#f8cecc;strokeColor=#b85450;align=right;" parent="1" vertex="1">
          <mxGeometry x="1940" y="419.37" width="120" height="29.13" as="geometry" />
        </mxCell>
        <mxCell id="LHox1asgE501jTqtss1L-79" style="edgeStyle=orthogonalEdgeStyle;rounded=0;orthogonalLoop=1;jettySize=auto;html=1;exitX=1;exitY=0.5;exitDx=0;exitDy=0;strokeColor=#EA6B66;" parent="1" source="LHox1asgE501jTqtss1L-60" target="LHox1asgE501jTqtss1L-38" edge="1">
          <mxGeometry relative="1" as="geometry" />
        </mxCell>
        <mxCell id="LHox1asgE501jTqtss1L-60" value="Power Supply&lt;br style=&quot;border-color: var(--border-color);&quot;&gt;24V DC 10A PWM" style="rounded=1;whiteSpace=wrap;html=1;fillColor=#f8cecc;strokeColor=#b85450;align=right;" parent="1" vertex="1">
          <mxGeometry x="1940" y="479.37" width="120" height="29.13" as="geometry" />
        </mxCell>
        <mxCell id="LHox1asgE501jTqtss1L-82" style="edgeStyle=orthogonalEdgeStyle;rounded=0;orthogonalLoop=1;jettySize=auto;html=1;exitX=1;exitY=0.5;exitDx=0;exitDy=0;entryX=0;entryY=0.5;entryDx=0;entryDy=0;strokeColor=#EA6B66;" parent="1" source="LHox1asgE501jTqtss1L-61" target="LHox1asgE501jTqtss1L-41" edge="1">
          <mxGeometry relative="1" as="geometry" />
        </mxCell>
        <mxCell id="LHox1asgE501jTqtss1L-61" value="Power Supply&lt;br style=&quot;border-color: var(--border-color);&quot;&gt;24V DC 10A PWM" style="rounded=1;whiteSpace=wrap;html=1;fillColor=#f8cecc;strokeColor=#b85450;align=right;" parent="1" vertex="1">
          <mxGeometry x="1940" y="539.37" width="120" height="29.13" as="geometry" />
        </mxCell>
        <mxCell id="LHox1asgE501jTqtss1L-83" style="edgeStyle=orthogonalEdgeStyle;rounded=0;orthogonalLoop=1;jettySize=auto;html=1;exitX=1;exitY=0.5;exitDx=0;exitDy=0;entryX=0;entryY=0.5;entryDx=0;entryDy=0;strokeColor=#EA6B66;" parent="1" source="LHox1asgE501jTqtss1L-62" target="LHox1asgE501jTqtss1L-44" edge="1">
          <mxGeometry relative="1" as="geometry" />
        </mxCell>
        <mxCell id="LHox1asgE501jTqtss1L-62" value="Power Supply&lt;br&gt;24V DC 10A PWM" style="rounded=1;whiteSpace=wrap;html=1;fillColor=#f8cecc;strokeColor=#b85450;align=right;" parent="1" vertex="1">
          <mxGeometry x="1940" y="599.37" width="120" height="29.13" as="geometry" />
        </mxCell>
        <mxCell id="LHox1asgE501jTqtss1L-131" style="edgeStyle=orthogonalEdgeStyle;rounded=0;orthogonalLoop=1;jettySize=auto;html=1;exitX=1;exitY=0.5;exitDx=0;exitDy=0;strokeColor=#7EA6E0;" parent="1" source="LHox1asgE501jTqtss1L-86" target="LHox1asgE501jTqtss1L-58" edge="1">
          <mxGeometry relative="1" as="geometry" />
        </mxCell>
        <mxCell id="LHox1asgE501jTqtss1L-86" value="MCU 2" style="rounded=1;whiteSpace=wrap;html=1;fillColor=#dae8fc;strokeColor=#6c8ebf;" parent="1" vertex="1">
          <mxGeometry x="1820" y="356.5" width="70" height="51" as="geometry" />
        </mxCell>
        <mxCell id="LHox1asgE501jTqtss1L-93" style="edgeStyle=orthogonalEdgeStyle;rounded=0;orthogonalLoop=1;jettySize=auto;html=1;exitX=1;exitY=0.5;exitDx=0;exitDy=0;entryX=0;entryY=0.5;entryDx=0;entryDy=0;strokeColor=#7EA6E0;" parent="1" source="LHox1asgE501jTqtss1L-89" target="LHox1asgE501jTqtss1L-59" edge="1">
          <mxGeometry relative="1" as="geometry" />
        </mxCell>
        <mxCell id="LHox1asgE501jTqtss1L-89" value="MCU 3" style="rounded=1;whiteSpace=wrap;html=1;fillColor=#dae8fc;strokeColor=#6c8ebf;" parent="1" vertex="1">
          <mxGeometry x="1820" y="416.5" width="70" height="51" as="geometry" />
        </mxCell>
        <mxCell id="LHox1asgE501jTqtss1L-94" style="edgeStyle=orthogonalEdgeStyle;rounded=0;orthogonalLoop=1;jettySize=auto;html=1;exitX=1;exitY=0.5;exitDx=0;exitDy=0;entryX=0;entryY=0.5;entryDx=0;entryDy=0;strokeColor=#7EA6E0;" parent="1" source="LHox1asgE501jTqtss1L-90" target="LHox1asgE501jTqtss1L-60" edge="1">
          <mxGeometry relative="1" as="geometry" />
        </mxCell>
        <mxCell id="LHox1asgE501jTqtss1L-90" value="MCU 4" style="rounded=1;whiteSpace=wrap;html=1;fillColor=#dae8fc;strokeColor=#6c8ebf;" parent="1" vertex="1">
          <mxGeometry x="1820" y="476.5" width="70" height="51" as="geometry" />
        </mxCell>
        <mxCell id="LHox1asgE501jTqtss1L-95" style="edgeStyle=orthogonalEdgeStyle;rounded=0;orthogonalLoop=1;jettySize=auto;html=1;exitX=1;exitY=0.5;exitDx=0;exitDy=0;strokeColor=#7EA6E0;" parent="1" source="LHox1asgE501jTqtss1L-91" target="LHox1asgE501jTqtss1L-61" edge="1">
          <mxGeometry relative="1" as="geometry" />
        </mxCell>
        <mxCell id="LHox1asgE501jTqtss1L-91" value="MCU 5" style="rounded=1;whiteSpace=wrap;html=1;fillColor=#dae8fc;strokeColor=#6c8ebf;" parent="1" vertex="1">
          <mxGeometry x="1820" y="536.5" width="70" height="51" as="geometry" />
        </mxCell>
        <mxCell id="LHox1asgE501jTqtss1L-96" style="edgeStyle=orthogonalEdgeStyle;rounded=0;orthogonalLoop=1;jettySize=auto;html=1;exitX=1;exitY=0.5;exitDx=0;exitDy=0;entryX=0;entryY=0.5;entryDx=0;entryDy=0;strokeColor=#7EA6E0;" parent="1" source="LHox1asgE501jTqtss1L-92" target="LHox1asgE501jTqtss1L-62" edge="1">
          <mxGeometry relative="1" as="geometry" />
        </mxCell>
        <mxCell id="LHox1asgE501jTqtss1L-92" value="MCU 6" style="rounded=1;whiteSpace=wrap;html=1;fillColor=#dae8fc;strokeColor=#6c8ebf;" parent="1" vertex="1">
          <mxGeometry x="1820" y="596.5" width="70" height="51" as="geometry" />
        </mxCell>
        <mxCell id="LHox1asgE501jTqtss1L-136" style="edgeStyle=orthogonalEdgeStyle;rounded=0;orthogonalLoop=1;jettySize=auto;html=1;exitX=1;exitY=0.25;exitDx=0;exitDy=0;entryX=0;entryY=0.5;entryDx=0;entryDy=0;" parent="1" source="LHox1asgE501jTqtss1L-133" target="LHox1asgE501jTqtss1L-29" edge="1">
          <mxGeometry relative="1" as="geometry">
            <Array as="points">
              <mxPoint x="1770" y="387" />
              <mxPoint x="1770" y="325" />
            </Array>
          </mxGeometry>
        </mxCell>
        <mxCell id="LHox1asgE501jTqtss1L-139" style="edgeStyle=orthogonalEdgeStyle;rounded=0;orthogonalLoop=1;jettySize=auto;html=1;exitX=1;exitY=0.5;exitDx=0;exitDy=0;entryX=0;entryY=0.5;entryDx=0;entryDy=0;" parent="1" source="LHox1asgE501jTqtss1L-133" target="LHox1asgE501jTqtss1L-86" edge="1">
          <mxGeometry relative="1" as="geometry">
            <Array as="points">
              <mxPoint x="1780" y="475" />
              <mxPoint x="1780" y="382" />
            </Array>
          </mxGeometry>
        </mxCell>
        <mxCell id="LHox1asgE501jTqtss1L-140" style="edgeStyle=orthogonalEdgeStyle;rounded=0;orthogonalLoop=1;jettySize=auto;html=1;exitX=1;exitY=0.5;exitDx=0;exitDy=0;entryX=0;entryY=0.5;entryDx=0;entryDy=0;" parent="1" source="LHox1asgE501jTqtss1L-133" target="LHox1asgE501jTqtss1L-89" edge="1">
          <mxGeometry relative="1" as="geometry">
            <Array as="points">
              <mxPoint x="1780" y="475" />
              <mxPoint x="1780" y="442" />
            </Array>
          </mxGeometry>
        </mxCell>
        <mxCell id="LHox1asgE501jTqtss1L-141" style="edgeStyle=orthogonalEdgeStyle;rounded=0;orthogonalLoop=1;jettySize=auto;html=1;exitX=1;exitY=0.5;exitDx=0;exitDy=0;entryX=0;entryY=0.5;entryDx=0;entryDy=0;" parent="1" source="LHox1asgE501jTqtss1L-133" target="LHox1asgE501jTqtss1L-90" edge="1">
          <mxGeometry relative="1" as="geometry">
            <Array as="points">
              <mxPoint x="1780" y="475" />
              <mxPoint x="1780" y="502" />
            </Array>
          </mxGeometry>
        </mxCell>
        <mxCell id="LHox1asgE501jTqtss1L-142" style="edgeStyle=orthogonalEdgeStyle;rounded=0;orthogonalLoop=1;jettySize=auto;html=1;exitX=1;exitY=0.5;exitDx=0;exitDy=0;entryX=0;entryY=0.5;entryDx=0;entryDy=0;" parent="1" source="LHox1asgE501jTqtss1L-133" target="LHox1asgE501jTqtss1L-91" edge="1">
          <mxGeometry relative="1" as="geometry">
            <Array as="points">
              <mxPoint x="1780" y="475" />
              <mxPoint x="1780" y="562" />
            </Array>
          </mxGeometry>
        </mxCell>
        <mxCell id="LHox1asgE501jTqtss1L-143" style="edgeStyle=orthogonalEdgeStyle;rounded=0;orthogonalLoop=1;jettySize=auto;html=1;exitX=1;exitY=0.5;exitDx=0;exitDy=0;entryX=0;entryY=0.5;entryDx=0;entryDy=0;" parent="1" source="LHox1asgE501jTqtss1L-133" target="LHox1asgE501jTqtss1L-92" edge="1">
          <mxGeometry relative="1" as="geometry">
            <Array as="points">
              <mxPoint x="1780" y="475" />
              <mxPoint x="1780" y="622" />
            </Array>
          </mxGeometry>
        </mxCell>
        <mxCell id="LHox1asgE501jTqtss1L-133" value="MCU&lt;br&gt;Main" style="rounded=1;whiteSpace=wrap;html=1;fillColor=#dae8fc;strokeColor=#6c8ebf;" parent="1" vertex="1">
          <mxGeometry x="1720" y="299.38" width="70" height="350.62" as="geometry" />
        </mxCell>
        <mxCell id="LHox1asgE501jTqtss1L-145" value="" style="edgeStyle=orthogonalEdgeStyle;rounded=0;orthogonalLoop=1;jettySize=auto;html=1;fillColor=#ffe6cc;strokeColor=#d79b00;" parent="1" source="LHox1asgE501jTqtss1L-144" target="LHox1asgE501jTqtss1L-133" edge="1">
          <mxGeometry relative="1" as="geometry" />
        </mxCell>
        <mxCell id="LHox1asgE501jTqtss1L-146" value="Enable" style="edgeLabel;html=1;align=center;verticalAlign=middle;resizable=0;points=[];" parent="LHox1asgE501jTqtss1L-145" vertex="1" connectable="0">
          <mxGeometry x="-0.0684" y="3" relative="1" as="geometry">
            <mxPoint x="-3" y="1" as="offset" />
          </mxGeometry>
        </mxCell>
        <mxCell id="LHox1asgE501jTqtss1L-144" value="Selector&lt;br&gt;Control Automatico" style="rounded=1;whiteSpace=wrap;html=1;fillColor=#ffe6cc;strokeColor=#d79b00;" parent="1" vertex="1">
          <mxGeometry x="1690" y="170" width="130" height="80" as="geometry" />
        </mxCell>
        <mxCell id="LHox1asgE501jTqtss1L-147" style="edgeStyle=orthogonalEdgeStyle;rounded=0;orthogonalLoop=1;jettySize=auto;html=1;exitX=1;exitY=0.5;exitDx=0;exitDy=0;entryX=0;entryY=0.5;entryDx=0;entryDy=0;strokeColor=#EA6B66;" parent="1" source="LHox1asgE501jTqtss1L-148" target="LHox1asgE501jTqtss1L-155" edge="1">
          <mxGeometry relative="1" as="geometry" />
        </mxCell>
        <mxCell id="DbFJll_KEH7Bvn8PF8tY-11" style="edgeStyle=orthogonalEdgeStyle;rounded=0;orthogonalLoop=1;jettySize=auto;html=1;exitX=0;exitY=0.5;exitDx=0;exitDy=0;entryX=0;entryY=0.75;entryDx=0;entryDy=0;fillColor=#e51400;strokeColor=#B20000;" parent="1" source="LHox1asgE501jTqtss1L-148" target="DbFJll_KEH7Bvn8PF8tY-4" edge="1">
          <mxGeometry relative="1" as="geometry" />
        </mxCell>
        <mxCell id="_4ULPOaJ6XxAIvbVORD--7" style="edgeStyle=orthogonalEdgeStyle;rounded=0;orthogonalLoop=1;jettySize=auto;html=1;exitX=0;exitY=0.5;exitDx=0;exitDy=0;entryX=0;entryY=0.75;entryDx=0;entryDy=0;fillColor=#e51400;strokeColor=#B20000;" parent="1" source="LHox1asgE501jTqtss1L-148" target="DbFJll_KEH7Bvn8PF8tY-5" edge="1">
          <mxGeometry relative="1" as="geometry" />
        </mxCell>
        <mxCell id="_4ULPOaJ6XxAIvbVORD--8" style="edgeStyle=orthogonalEdgeStyle;rounded=0;orthogonalLoop=1;jettySize=auto;html=1;exitX=0;exitY=0.5;exitDx=0;exitDy=0;entryX=0;entryY=0.75;entryDx=0;entryDy=0;fillColor=#e51400;strokeColor=#B20000;" parent="1" source="LHox1asgE501jTqtss1L-148" target="DbFJll_KEH7Bvn8PF8tY-6" edge="1">
          <mxGeometry relative="1" as="geometry" />
        </mxCell>
        <mxCell id="_4ULPOaJ6XxAIvbVORD--9" style="edgeStyle=orthogonalEdgeStyle;rounded=0;orthogonalLoop=1;jettySize=auto;html=1;exitX=0;exitY=0.5;exitDx=0;exitDy=0;entryX=0;entryY=0.75;entryDx=0;entryDy=0;fillColor=#e51400;strokeColor=#B20000;" parent="1" source="LHox1asgE501jTqtss1L-148" target="DbFJll_KEH7Bvn8PF8tY-7" edge="1">
          <mxGeometry relative="1" as="geometry" />
        </mxCell>
        <mxCell id="_4ULPOaJ6XxAIvbVORD--10" style="edgeStyle=orthogonalEdgeStyle;rounded=0;orthogonalLoop=1;jettySize=auto;html=1;exitX=0;exitY=0.5;exitDx=0;exitDy=0;entryX=0;entryY=0.75;entryDx=0;entryDy=0;fillColor=#e51400;strokeColor=#B20000;" parent="1" source="LHox1asgE501jTqtss1L-148" target="DbFJll_KEH7Bvn8PF8tY-8" edge="1">
          <mxGeometry relative="1" as="geometry" />
        </mxCell>
        <mxCell id="LHox1asgE501jTqtss1L-148" value="Power Supply&lt;br style=&quot;border-color: var(--border-color);&quot;&gt;&lt;span style=&quot;&quot;&gt;24V DC 65A&lt;/span&gt;&lt;br style=&quot;border-color: var(--border-color);&quot;&gt;&lt;span style=&quot;&quot;&gt;PWM&lt;/span&gt;" style="rounded=1;whiteSpace=wrap;html=1;fillColor=#f8cecc;strokeColor=#b85450;align=right;" parent="1" vertex="1">
          <mxGeometry x="1949" y="840" width="120" height="47.75" as="geometry" />
        </mxCell>
        <mxCell id="LHox1asgE501jTqtss1L-149" style="edgeStyle=orthogonalEdgeStyle;rounded=0;orthogonalLoop=1;jettySize=auto;html=1;exitX=0;exitY=0.75;exitDx=0;exitDy=0;entryX=0;entryY=0.75;entryDx=0;entryDy=0;strokeColor=#97D077;" parent="1" source="LHox1asgE501jTqtss1L-155" target="LHox1asgE501jTqtss1L-156" edge="1">
          <mxGeometry relative="1" as="geometry" />
        </mxCell>
        <mxCell id="LHox1asgE501jTqtss1L-150" style="edgeStyle=orthogonalEdgeStyle;rounded=0;orthogonalLoop=1;jettySize=auto;html=1;exitX=0;exitY=0.75;exitDx=0;exitDy=0;entryX=0;entryY=0.75;entryDx=0;entryDy=0;strokeColor=#97D077;" parent="1" source="LHox1asgE501jTqtss1L-155" target="LHox1asgE501jTqtss1L-161" edge="1">
          <mxGeometry relative="1" as="geometry" />
        </mxCell>
        <mxCell id="LHox1asgE501jTqtss1L-151" style="edgeStyle=orthogonalEdgeStyle;rounded=0;orthogonalLoop=1;jettySize=auto;html=1;exitX=0;exitY=0.75;exitDx=0;exitDy=0;entryX=0;entryY=0.75;entryDx=0;entryDy=0;strokeColor=#97D077;" parent="1" source="LHox1asgE501jTqtss1L-155" target="LHox1asgE501jTqtss1L-164" edge="1">
          <mxGeometry relative="1" as="geometry" />
        </mxCell>
        <mxCell id="LHox1asgE501jTqtss1L-152" style="edgeStyle=orthogonalEdgeStyle;rounded=0;orthogonalLoop=1;jettySize=auto;html=1;exitX=0;exitY=0.75;exitDx=0;exitDy=0;entryX=0;entryY=0.75;entryDx=0;entryDy=0;strokeColor=#97D077;" parent="1" source="LHox1asgE501jTqtss1L-155" target="LHox1asgE501jTqtss1L-167" edge="1">
          <mxGeometry relative="1" as="geometry" />
        </mxCell>
        <mxCell id="LHox1asgE501jTqtss1L-153" style="edgeStyle=orthogonalEdgeStyle;rounded=0;orthogonalLoop=1;jettySize=auto;html=1;exitX=0;exitY=0.75;exitDx=0;exitDy=0;entryX=0;entryY=0.75;entryDx=0;entryDy=0;strokeColor=#97D077;" parent="1" source="LHox1asgE501jTqtss1L-155" target="LHox1asgE501jTqtss1L-170" edge="1">
          <mxGeometry relative="1" as="geometry" />
        </mxCell>
        <mxCell id="LHox1asgE501jTqtss1L-154" style="edgeStyle=orthogonalEdgeStyle;rounded=0;orthogonalLoop=1;jettySize=auto;html=1;exitX=0;exitY=0.75;exitDx=0;exitDy=0;entryX=0;entryY=0.75;entryDx=0;entryDy=0;strokeColor=#97D077;" parent="1" source="LHox1asgE501jTqtss1L-155" target="LHox1asgE501jTqtss1L-173" edge="1">
          <mxGeometry relative="1" as="geometry" />
        </mxCell>
        <mxCell id="LHox1asgE501jTqtss1L-155" value="Tarjeta de Control de Encendido de Motores" style="rounded=1;whiteSpace=wrap;html=1;fillColor=#d5e8d4;strokeColor=#82b366;" parent="1" vertex="1">
          <mxGeometry x="2160" y="823.25" width="87" height="80" as="geometry" />
        </mxCell>
        <mxCell id="LHox1asgE501jTqtss1L-156" value="Motor 1" style="rounded=1;whiteSpace=wrap;html=1;fillColor=#e1d5e7;strokeColor=#9673a6;" parent="1" vertex="1">
          <mxGeometry x="2181" y="923.26" width="66" height="25" as="geometry" />
        </mxCell>
        <mxCell id="_4ULPOaJ6XxAIvbVORD--31" style="edgeStyle=orthogonalEdgeStyle;rounded=0;orthogonalLoop=1;jettySize=auto;html=1;exitX=1;exitY=0.5;exitDx=0;exitDy=0;entryX=0;entryY=0.5;entryDx=0;entryDy=0;" parent="1" source="LHox1asgE501jTqtss1L-158" target="_4ULPOaJ6XxAIvbVORD--26" edge="1">
          <mxGeometry relative="1" as="geometry" />
        </mxCell>
        <mxCell id="LHox1asgE501jTqtss1L-158" value="Encoder" style="rounded=1;whiteSpace=wrap;html=1;fillColor=#fff2cc;strokeColor=#d6b656;" parent="1" vertex="1">
          <mxGeometry x="2181" y="948.26" width="66" height="16" as="geometry" />
        </mxCell>
        <mxCell id="LHox1asgE501jTqtss1L-161" value="Motor 2" style="rounded=1;whiteSpace=wrap;html=1;fillColor=#e1d5e7;strokeColor=#9673a6;" parent="1" vertex="1">
          <mxGeometry x="2181" y="983.25" width="66" height="25" as="geometry" />
        </mxCell>
        <mxCell id="_4ULPOaJ6XxAIvbVORD--30" style="edgeStyle=orthogonalEdgeStyle;rounded=0;orthogonalLoop=1;jettySize=auto;html=1;exitX=1;exitY=0.5;exitDx=0;exitDy=0;entryX=0;entryY=0.5;entryDx=0;entryDy=0;" parent="1" source="LHox1asgE501jTqtss1L-163" target="_4ULPOaJ6XxAIvbVORD--26" edge="1">
          <mxGeometry relative="1" as="geometry" />
        </mxCell>
        <mxCell id="LHox1asgE501jTqtss1L-163" value="Encoder" style="rounded=1;whiteSpace=wrap;html=1;fillColor=#fff2cc;strokeColor=#d6b656;" parent="1" vertex="1">
          <mxGeometry x="2181" y="1008.25" width="66" height="16" as="geometry" />
        </mxCell>
        <mxCell id="LHox1asgE501jTqtss1L-164" value="Motor 3" style="rounded=1;whiteSpace=wrap;html=1;fillColor=#e1d5e7;strokeColor=#9673a6;" parent="1" vertex="1">
          <mxGeometry x="2181" y="1043.25" width="66" height="25" as="geometry" />
        </mxCell>
        <mxCell id="_4ULPOaJ6XxAIvbVORD--33" style="edgeStyle=orthogonalEdgeStyle;rounded=0;orthogonalLoop=1;jettySize=auto;html=1;exitX=1;exitY=0.5;exitDx=0;exitDy=0;entryX=0;entryY=0.5;entryDx=0;entryDy=0;" parent="1" source="LHox1asgE501jTqtss1L-166" target="_4ULPOaJ6XxAIvbVORD--32" edge="1">
          <mxGeometry relative="1" as="geometry" />
        </mxCell>
        <mxCell id="LHox1asgE501jTqtss1L-166" value="Encoder" style="rounded=1;whiteSpace=wrap;html=1;fillColor=#fff2cc;strokeColor=#d6b656;" parent="1" vertex="1">
          <mxGeometry x="2181" y="1068.25" width="66" height="16" as="geometry" />
        </mxCell>
        <mxCell id="LHox1asgE501jTqtss1L-167" value="Motor 4" style="rounded=1;whiteSpace=wrap;html=1;fillColor=#e1d5e7;strokeColor=#9673a6;" parent="1" vertex="1">
          <mxGeometry x="2181" y="1103.25" width="66" height="25" as="geometry" />
        </mxCell>
        <mxCell id="_4ULPOaJ6XxAIvbVORD--34" style="edgeStyle=orthogonalEdgeStyle;rounded=0;orthogonalLoop=1;jettySize=auto;html=1;exitX=1;exitY=0.5;exitDx=0;exitDy=0;entryX=0;entryY=0.5;entryDx=0;entryDy=0;" parent="1" source="LHox1asgE501jTqtss1L-169" target="_4ULPOaJ6XxAIvbVORD--32" edge="1">
          <mxGeometry relative="1" as="geometry" />
        </mxCell>
        <mxCell id="LHox1asgE501jTqtss1L-169" value="Encoder" style="rounded=1;whiteSpace=wrap;html=1;fillColor=#fff2cc;strokeColor=#d6b656;" parent="1" vertex="1">
          <mxGeometry x="2181" y="1128.25" width="66" height="16" as="geometry" />
        </mxCell>
        <mxCell id="LHox1asgE501jTqtss1L-170" value="Motor 5" style="rounded=1;whiteSpace=wrap;html=1;fillColor=#e1d5e7;strokeColor=#9673a6;" parent="1" vertex="1">
          <mxGeometry x="2181" y="1163.25" width="66" height="25" as="geometry" />
        </mxCell>
        <mxCell id="_4ULPOaJ6XxAIvbVORD--36" style="edgeStyle=orthogonalEdgeStyle;rounded=0;orthogonalLoop=1;jettySize=auto;html=1;exitX=1;exitY=0.5;exitDx=0;exitDy=0;entryX=0;entryY=0.5;entryDx=0;entryDy=0;" parent="1" source="LHox1asgE501jTqtss1L-172" target="_4ULPOaJ6XxAIvbVORD--35" edge="1">
          <mxGeometry relative="1" as="geometry" />
        </mxCell>
        <mxCell id="LHox1asgE501jTqtss1L-172" value="Encoder" style="rounded=1;whiteSpace=wrap;html=1;fillColor=#fff2cc;strokeColor=#d6b656;" parent="1" vertex="1">
          <mxGeometry x="2181" y="1188.25" width="66" height="16" as="geometry" />
        </mxCell>
        <mxCell id="LHox1asgE501jTqtss1L-173" value="Motor 6" style="rounded=1;whiteSpace=wrap;html=1;fillColor=#e1d5e7;strokeColor=#9673a6;" parent="1" vertex="1">
          <mxGeometry x="2181" y="1223.25" width="66" height="25" as="geometry" />
        </mxCell>
        <mxCell id="_4ULPOaJ6XxAIvbVORD--37" style="edgeStyle=orthogonalEdgeStyle;rounded=0;orthogonalLoop=1;jettySize=auto;html=1;exitX=1;exitY=0.5;exitDx=0;exitDy=0;entryX=0;entryY=0.5;entryDx=0;entryDy=0;" parent="1" source="LHox1asgE501jTqtss1L-175" target="_4ULPOaJ6XxAIvbVORD--35" edge="1">
          <mxGeometry relative="1" as="geometry" />
        </mxCell>
        <mxCell id="LHox1asgE501jTqtss1L-175" value="Encoder" style="rounded=1;whiteSpace=wrap;html=1;fillColor=#fff2cc;strokeColor=#d6b656;" parent="1" vertex="1">
          <mxGeometry x="2181" y="1248.25" width="66" height="16" as="geometry" />
        </mxCell>
        <mxCell id="LHox1asgE501jTqtss1L-176" style="edgeStyle=orthogonalEdgeStyle;rounded=0;orthogonalLoop=1;jettySize=auto;html=1;exitX=1;exitY=0.5;exitDx=0;exitDy=0;strokeColor=#EA6B66;" parent="1" source="DbFJll_KEH7Bvn8PF8tY-4" target="LHox1asgE501jTqtss1L-156" edge="1">
          <mxGeometry relative="1" as="geometry">
            <mxPoint x="2070" y="927.69" as="sourcePoint" />
          </mxGeometry>
        </mxCell>
        <mxCell id="LHox1asgE501jTqtss1L-178" style="edgeStyle=orthogonalEdgeStyle;rounded=0;orthogonalLoop=1;jettySize=auto;html=1;exitX=1;exitY=0.5;exitDx=0;exitDy=0;entryX=0;entryY=0.5;entryDx=0;entryDy=0;strokeColor=#EA6B66;" parent="1" source="DbFJll_KEH7Bvn8PF8tY-5" target="LHox1asgE501jTqtss1L-161" edge="1">
          <mxGeometry relative="1" as="geometry">
            <mxPoint x="2070" y="987.69" as="sourcePoint" />
          </mxGeometry>
        </mxCell>
        <mxCell id="LHox1asgE501jTqtss1L-180" style="edgeStyle=orthogonalEdgeStyle;rounded=0;orthogonalLoop=1;jettySize=auto;html=1;exitX=1;exitY=0.5;exitDx=0;exitDy=0;entryX=0;entryY=0.5;entryDx=0;entryDy=0;strokeColor=#EA6B66;" parent="1" source="DbFJll_KEH7Bvn8PF8tY-6" target="LHox1asgE501jTqtss1L-164" edge="1">
          <mxGeometry relative="1" as="geometry">
            <mxPoint x="2070" y="1047.685" as="sourcePoint" />
          </mxGeometry>
        </mxCell>
        <mxCell id="LHox1asgE501jTqtss1L-182" style="edgeStyle=orthogonalEdgeStyle;rounded=0;orthogonalLoop=1;jettySize=auto;html=1;exitX=1;exitY=0.5;exitDx=0;exitDy=0;strokeColor=#EA6B66;" parent="1" source="DbFJll_KEH7Bvn8PF8tY-7" target="LHox1asgE501jTqtss1L-167" edge="1">
          <mxGeometry relative="1" as="geometry">
            <mxPoint x="2070" y="1107.685" as="sourcePoint" />
            <Array as="points">
              <mxPoint x="2070" y="1101" />
              <mxPoint x="2070" y="1116" />
            </Array>
          </mxGeometry>
        </mxCell>
        <mxCell id="LHox1asgE501jTqtss1L-184" style="edgeStyle=orthogonalEdgeStyle;rounded=0;orthogonalLoop=1;jettySize=auto;html=1;exitX=1;exitY=0.5;exitDx=0;exitDy=0;entryX=0;entryY=0.5;entryDx=0;entryDy=0;strokeColor=#EA6B66;" parent="1" source="DbFJll_KEH7Bvn8PF8tY-8" target="LHox1asgE501jTqtss1L-170" edge="1">
          <mxGeometry relative="1" as="geometry">
            <mxPoint x="2070" y="1167.685" as="sourcePoint" />
          </mxGeometry>
        </mxCell>
        <mxCell id="LHox1asgE501jTqtss1L-186" style="edgeStyle=orthogonalEdgeStyle;rounded=0;orthogonalLoop=1;jettySize=auto;html=1;exitX=1;exitY=0.5;exitDx=0;exitDy=0;entryX=0;entryY=0.5;entryDx=0;entryDy=0;strokeColor=#EA6B66;" parent="1" source="DbFJll_KEH7Bvn8PF8tY-9" target="LHox1asgE501jTqtss1L-173" edge="1">
          <mxGeometry relative="1" as="geometry">
            <mxPoint x="2070" y="1227.685" as="sourcePoint" />
          </mxGeometry>
        </mxCell>
        <mxCell id="LHox1asgE501jTqtss1L-229" style="edgeStyle=orthogonalEdgeStyle;rounded=0;orthogonalLoop=1;jettySize=auto;html=1;exitX=0;exitY=0.5;exitDx=0;exitDy=0;entryX=0.75;entryY=0;entryDx=0;entryDy=0;" parent="1" source="LHox1asgE501jTqtss1L-207" target="LHox1asgE501jTqtss1L-208" edge="1">
          <mxGeometry relative="1" as="geometry" />
        </mxCell>
        <mxCell id="LHox1asgE501jTqtss1L-267" value="Enable" style="edgeLabel;html=1;align=center;verticalAlign=middle;resizable=0;points=[];" parent="LHox1asgE501jTqtss1L-229" vertex="1" connectable="0">
          <mxGeometry x="0.1576" y="1" relative="1" as="geometry">
            <mxPoint x="-1" y="6" as="offset" />
          </mxGeometry>
        </mxCell>
        <mxCell id="LHox1asgE501jTqtss1L-207" value="Selector&lt;br&gt;Control Automatico" style="rounded=1;whiteSpace=wrap;html=1;fillColor=#ffe6cc;strokeColor=#d79b00;" parent="1" vertex="1">
          <mxGeometry x="1700" y="790" width="130" height="80" as="geometry" />
        </mxCell>
        <mxCell id="LHox1asgE501jTqtss1L-209" style="edgeStyle=orthogonalEdgeStyle;rounded=0;orthogonalLoop=1;jettySize=auto;html=1;exitX=1;exitY=0.5;exitDx=0;exitDy=0;entryX=0;entryY=0.5;entryDx=0;entryDy=0;strokeColor=#7EA6E0;" parent="1" source="LHox1asgE501jTqtss1L-208" target="DbFJll_KEH7Bvn8PF8tY-4" edge="1">
          <mxGeometry relative="1" as="geometry">
            <Array as="points">
              <mxPoint x="1860" y="1074" />
              <mxPoint x="1860" y="921" />
            </Array>
            <mxPoint x="1950" y="920.00232" as="targetPoint" />
          </mxGeometry>
        </mxCell>
        <mxCell id="LHox1asgE501jTqtss1L-210" style="edgeStyle=orthogonalEdgeStyle;rounded=0;orthogonalLoop=1;jettySize=auto;html=1;exitX=1;exitY=0.5;exitDx=0;exitDy=0;strokeColor=#7EA6E0;" parent="1" source="LHox1asgE501jTqtss1L-208" target="DbFJll_KEH7Bvn8PF8tY-5" edge="1">
          <mxGeometry relative="1" as="geometry">
            <Array as="points">
              <mxPoint x="1860" y="1074" />
              <mxPoint x="1860" y="980" />
            </Array>
            <mxPoint x="1950" y="980.4100000000003" as="targetPoint" />
          </mxGeometry>
        </mxCell>
        <mxCell id="LHox1asgE501jTqtss1L-211" style="edgeStyle=orthogonalEdgeStyle;rounded=0;orthogonalLoop=1;jettySize=auto;html=1;exitX=1;exitY=0.5;exitDx=0;exitDy=0;strokeColor=#7EA6E0;entryX=0;entryY=0.5;entryDx=0;entryDy=0;" parent="1" source="LHox1asgE501jTqtss1L-208" target="DbFJll_KEH7Bvn8PF8tY-6" edge="1">
          <mxGeometry relative="1" as="geometry">
            <Array as="points">
              <mxPoint x="1860" y="1074" />
              <mxPoint x="1860" y="1040" />
              <mxPoint x="1966" y="1040" />
            </Array>
            <mxPoint x="1950" y="1040.4025" as="targetPoint" />
          </mxGeometry>
        </mxCell>
        <mxCell id="LHox1asgE501jTqtss1L-212" style="edgeStyle=orthogonalEdgeStyle;rounded=0;orthogonalLoop=1;jettySize=auto;html=1;exitX=1;exitY=0.5;exitDx=0;exitDy=0;strokeColor=#7EA6E0;entryX=0;entryY=0.5;entryDx=0;entryDy=0;" parent="1" source="LHox1asgE501jTqtss1L-208" target="DbFJll_KEH7Bvn8PF8tY-7" edge="1">
          <mxGeometry relative="1" as="geometry">
            <Array as="points">
              <mxPoint x="1860" y="1074" />
              <mxPoint x="1860" y="1100" />
              <mxPoint x="1966" y="1100" />
            </Array>
            <mxPoint x="1950" y="1100.4025" as="targetPoint" />
          </mxGeometry>
        </mxCell>
        <mxCell id="LHox1asgE501jTqtss1L-213" style="edgeStyle=orthogonalEdgeStyle;rounded=0;orthogonalLoop=1;jettySize=auto;html=1;exitX=1;exitY=0.5;exitDx=0;exitDy=0;entryX=0;entryY=0.5;entryDx=0;entryDy=0;strokeColor=#7EA6E0;" parent="1" source="LHox1asgE501jTqtss1L-208" target="DbFJll_KEH7Bvn8PF8tY-8" edge="1">
          <mxGeometry relative="1" as="geometry">
            <Array as="points">
              <mxPoint x="1860" y="1074" />
              <mxPoint x="1860" y="1160" />
              <mxPoint x="1966" y="1160" />
            </Array>
            <mxPoint x="1950" y="1160.4025" as="targetPoint" />
          </mxGeometry>
        </mxCell>
        <mxCell id="DbFJll_KEH7Bvn8PF8tY-10" style="edgeStyle=orthogonalEdgeStyle;rounded=0;orthogonalLoop=1;jettySize=auto;html=1;exitX=1;exitY=0.5;exitDx=0;exitDy=0;entryX=0;entryY=0.5;entryDx=0;entryDy=0;fillColor=#dae8fc;strokeColor=#6c8ebf;" parent="1" source="LHox1asgE501jTqtss1L-208" target="DbFJll_KEH7Bvn8PF8tY-9" edge="1">
          <mxGeometry relative="1" as="geometry">
            <Array as="points">
              <mxPoint x="1860" y="1074" />
              <mxPoint x="1860" y="1221" />
            </Array>
          </mxGeometry>
        </mxCell>
        <mxCell id="LHox1asgE501jTqtss1L-208" value="MCU&lt;br&gt;Main" style="rounded=1;whiteSpace=wrap;html=1;fillColor=#dae8fc;strokeColor=#6c8ebf;" parent="1" vertex="1">
          <mxGeometry x="1591" y="879" width="109" height="390" as="geometry" />
        </mxCell>
        <mxCell id="LHox1asgE501jTqtss1L-269" style="edgeStyle=orthogonalEdgeStyle;rounded=0;orthogonalLoop=1;jettySize=auto;html=1;exitX=1;exitY=0.5;exitDx=0;exitDy=0;entryX=0.25;entryY=0;entryDx=0;entryDy=0;" parent="1" source="LHox1asgE501jTqtss1L-268" target="LHox1asgE501jTqtss1L-208" edge="1">
          <mxGeometry relative="1" as="geometry" />
        </mxCell>
        <mxCell id="LHox1asgE501jTqtss1L-270" value="Enable" style="edgeLabel;html=1;align=center;verticalAlign=middle;resizable=0;points=[];" parent="LHox1asgE501jTqtss1L-269" vertex="1" connectable="0">
          <mxGeometry x="0.4157" relative="1" as="geometry">
            <mxPoint y="-4" as="offset" />
          </mxGeometry>
        </mxCell>
        <mxCell id="LHox1asgE501jTqtss1L-268" value="Safety Mat" style="rounded=1;whiteSpace=wrap;html=1;fillColor=#f8cecc;strokeColor=#b85450;" parent="1" vertex="1">
          <mxGeometry x="1520" y="790" width="71" height="80" as="geometry" />
        </mxCell>
        <mxCell id="DbFJll_KEH7Bvn8PF8tY-3" style="edgeStyle=orthogonalEdgeStyle;rounded=0;orthogonalLoop=1;jettySize=auto;html=1;exitX=0;exitY=0.5;exitDx=0;exitDy=0;entryX=1;entryY=0.25;entryDx=0;entryDy=0;startArrow=classic;startFill=1;fillColor=#b1ddf0;strokeColor=#10739e;" parent="1" source="DbFJll_KEH7Bvn8PF8tY-1" target="LHox1asgE501jTqtss1L-208" edge="1">
          <mxGeometry relative="1" as="geometry" />
        </mxCell>
        <mxCell id="DbFJll_KEH7Bvn8PF8tY-1" value="HMI" style="rounded=1;whiteSpace=wrap;html=1;fillColor=#b1ddf0;strokeColor=#10739e;" parent="1" vertex="1">
          <mxGeometry x="1731" y="983.25" width="120" height="60" as="geometry" />
        </mxCell>
        <mxCell id="DbFJll_KEH7Bvn8PF8tY-4" value="Tarjeta Controladora de Motor" style="rounded=1;whiteSpace=wrap;html=1;fillColor=#dae8fc;strokeColor=#6c8ebf;" parent="1" vertex="1">
          <mxGeometry x="1966" y="895" width="86" height="51" as="geometry" />
        </mxCell>
        <mxCell id="DbFJll_KEH7Bvn8PF8tY-5" value="Tarjeta Controladora de Motor" style="rounded=1;whiteSpace=wrap;html=1;fillColor=#dae8fc;strokeColor=#6c8ebf;" parent="1" vertex="1">
          <mxGeometry x="1966" y="956" width="86" height="51" as="geometry" />
        </mxCell>
        <mxCell id="DbFJll_KEH7Bvn8PF8tY-6" value="Tarjeta Controladora de Motor" style="rounded=1;whiteSpace=wrap;html=1;fillColor=#dae8fc;strokeColor=#6c8ebf;" parent="1" vertex="1">
          <mxGeometry x="1966.14" y="1014.5" width="86" height="51" as="geometry" />
        </mxCell>
        <mxCell id="DbFJll_KEH7Bvn8PF8tY-7" value="Tarjeta Controladora de Motor" style="rounded=1;whiteSpace=wrap;html=1;fillColor=#dae8fc;strokeColor=#6c8ebf;" parent="1" vertex="1">
          <mxGeometry x="1966.2800000000002" y="1075.5" width="86" height="51" as="geometry" />
        </mxCell>
        <mxCell id="DbFJll_KEH7Bvn8PF8tY-8" value="Tarjeta Controladora de Motor" style="rounded=1;whiteSpace=wrap;html=1;fillColor=#dae8fc;strokeColor=#6c8ebf;" parent="1" vertex="1">
          <mxGeometry x="1966.0000000000002" y="1135.5" width="86" height="51" as="geometry" />
        </mxCell>
        <mxCell id="DbFJll_KEH7Bvn8PF8tY-9" value="Tarjeta Controladora de Motor" style="rounded=1;whiteSpace=wrap;html=1;fillColor=#dae8fc;strokeColor=#6c8ebf;" parent="1" vertex="1">
          <mxGeometry x="1969.0000000000002" y="1195" width="86" height="51" as="geometry" />
        </mxCell>
        <mxCell id="_4ULPOaJ6XxAIvbVORD--11" style="edgeStyle=orthogonalEdgeStyle;rounded=0;orthogonalLoop=1;jettySize=auto;html=1;exitX=0;exitY=0.5;exitDx=0;exitDy=0;entryX=0.009;entryY=0.649;entryDx=0;entryDy=0;entryPerimeter=0;fillColor=#e51400;strokeColor=#B20000;" parent="1" source="LHox1asgE501jTqtss1L-148" target="DbFJll_KEH7Bvn8PF8tY-9" edge="1">
          <mxGeometry relative="1" as="geometry" />
        </mxCell>
        <mxCell id="_4ULPOaJ6XxAIvbVORD--12" style="edgeStyle=orthogonalEdgeStyle;rounded=0;orthogonalLoop=1;jettySize=auto;html=1;exitX=0;exitY=0.5;exitDx=0;exitDy=0;entryX=0.423;entryY=0.037;entryDx=0;entryDy=0;entryPerimeter=0;fillColor=#b1ddf0;strokeColor=#10739e;" parent="1" source="LHox1asgE501jTqtss1L-148" target="DbFJll_KEH7Bvn8PF8tY-1" edge="1">
          <mxGeometry relative="1" as="geometry">
            <Array as="points">
              <mxPoint x="1890" y="864" />
              <mxPoint x="1890" y="890" />
              <mxPoint x="1782" y="890" />
            </Array>
          </mxGeometry>
        </mxCell>
        <mxCell id="_4ULPOaJ6XxAIvbVORD--42" style="edgeStyle=orthogonalEdgeStyle;rounded=0;orthogonalLoop=1;jettySize=auto;html=1;exitX=1;exitY=0.5;exitDx=0;exitDy=0;endArrow=none;endFill=0;" parent="1" source="_4ULPOaJ6XxAIvbVORD--26" edge="1">
          <mxGeometry relative="1" as="geometry">
            <mxPoint x="2440.5217391304354" y="1158" as="targetPoint" />
          </mxGeometry>
        </mxCell>
        <mxCell id="_4ULPOaJ6XxAIvbVORD--26" value="MCU&lt;br&gt;Secundario&lt;br&gt;Lector Encoders" style="rounded=1;whiteSpace=wrap;html=1;fillColor=#dae8fc;strokeColor=#6c8ebf;" parent="1" vertex="1">
          <mxGeometry x="2310" y="942" width="109" height="85" as="geometry" />
        </mxCell>
        <mxCell id="_4ULPOaJ6XxAIvbVORD--40" style="edgeStyle=orthogonalEdgeStyle;rounded=0;orthogonalLoop=1;jettySize=auto;html=1;exitX=1;exitY=0.5;exitDx=0;exitDy=0;endArrow=none;endFill=0;" parent="1" source="_4ULPOaJ6XxAIvbVORD--32" edge="1">
          <mxGeometry relative="1" as="geometry">
            <mxPoint x="2440.5217391304354" y="1228" as="targetPoint" />
          </mxGeometry>
        </mxCell>
        <mxCell id="_4ULPOaJ6XxAIvbVORD--32" value="MCU&lt;br style=&quot;border-color: var(--border-color);&quot;&gt;Secundario&lt;br style=&quot;border-color: var(--border-color);&quot;&gt;Lector Encoders" style="rounded=1;whiteSpace=wrap;html=1;fillColor=#dae8fc;strokeColor=#6c8ebf;" parent="1" vertex="1">
          <mxGeometry x="2310" y="1065.5" width="109" height="85" as="geometry" />
        </mxCell>
        <mxCell id="_4ULPOaJ6XxAIvbVORD--38" style="edgeStyle=orthogonalEdgeStyle;rounded=0;orthogonalLoop=1;jettySize=auto;html=1;exitX=1;exitY=0.5;exitDx=0;exitDy=0;entryX=0.5;entryY=1;entryDx=0;entryDy=0;" parent="1" source="_4ULPOaJ6XxAIvbVORD--35" target="LHox1asgE501jTqtss1L-208" edge="1">
          <mxGeometry relative="1" as="geometry">
            <Array as="points">
              <mxPoint x="2440" y="1221" />
              <mxPoint x="2440" y="1290" />
              <mxPoint x="1645" y="1290" />
            </Array>
          </mxGeometry>
        </mxCell>
        <mxCell id="_4ULPOaJ6XxAIvbVORD--35" value="MCU&lt;br style=&quot;border-color: var(--border-color);&quot;&gt;Secundario&lt;br style=&quot;border-color: var(--border-color);&quot;&gt;Lector Encoders" style="rounded=1;whiteSpace=wrap;html=1;fillColor=#dae8fc;strokeColor=#6c8ebf;" parent="1" vertex="1">
          <mxGeometry x="2310" y="1178" width="109" height="85" as="geometry" />
        </mxCell>
        <mxCell id="N86940-7wMCQ7KzxhsME-1" style="edgeStyle=orthogonalEdgeStyle;rounded=0;orthogonalLoop=1;jettySize=auto;html=1;exitX=1;exitY=0.5;exitDx=0;exitDy=0;entryX=0;entryY=0.5;entryDx=0;entryDy=0;strokeColor=#EA6B66;" parent="1" source="N86940-7wMCQ7KzxhsME-7" target="N86940-7wMCQ7KzxhsME-14" edge="1">
          <mxGeometry relative="1" as="geometry" />
        </mxCell>
        <mxCell id="N86940-7wMCQ7KzxhsME-96" style="edgeStyle=orthogonalEdgeStyle;rounded=0;orthogonalLoop=1;jettySize=auto;html=1;exitX=0;exitY=0.5;exitDx=0;exitDy=0;entryX=0;entryY=0.75;entryDx=0;entryDy=0;fillColor=#f8cecc;strokeColor=#b85450;" parent="1" source="N86940-7wMCQ7KzxhsME-7" target="N86940-7wMCQ7KzxhsME-54" edge="1">
          <mxGeometry relative="1" as="geometry">
            <Array as="points">
              <mxPoint x="1900" y="1491" />
              <mxPoint x="1900" y="1560" />
            </Array>
          </mxGeometry>
        </mxCell>
        <mxCell id="N86940-7wMCQ7KzxhsME-97" value="B+, B-" style="edgeLabel;html=1;align=center;verticalAlign=middle;resizable=0;points=[];fontSize=8;" parent="N86940-7wMCQ7KzxhsME-96" vertex="1" connectable="0">
          <mxGeometry x="-0.3779" relative="1" as="geometry">
            <mxPoint as="offset" />
          </mxGeometry>
        </mxCell>
        <mxCell id="N86940-7wMCQ7KzxhsME-7" value="Power Supply&lt;br style=&quot;border-color: var(--border-color); font-size: 10px;&quot;&gt;&lt;span style=&quot;font-size: 10px;&quot;&gt;24V DC 65A&lt;/span&gt;&lt;br style=&quot;border-color: var(--border-color); font-size: 10px;&quot;&gt;&lt;span style=&quot;font-size: 10px;&quot;&gt;PWM&lt;/span&gt;" style="rounded=1;whiteSpace=wrap;html=1;fillColor=#f8cecc;strokeColor=#b85450;align=right;fontSize=10;" parent="1" vertex="1">
          <mxGeometry x="1970" y="1472" width="120" height="38" as="geometry" />
        </mxCell>
        <mxCell id="N86940-7wMCQ7KzxhsME-14" value="Tarjeta de Control de Encendido de Motores" style="rounded=1;whiteSpace=wrap;html=1;fillColor=#d5e8d4;strokeColor=#82b366;fontSize=10;" parent="1" vertex="1">
          <mxGeometry x="2164" y="1455.25" width="136" height="80" as="geometry" />
        </mxCell>
        <mxCell id="N86940-7wMCQ7KzxhsME-15" value="Motor 1" style="rounded=1;whiteSpace=wrap;html=1;fillColor=#e1d5e7;strokeColor=#9673a6;fontSize=10;" parent="1" vertex="1">
          <mxGeometry x="2185" y="1555" width="66" height="25" as="geometry" />
        </mxCell>
        <mxCell id="N86940-7wMCQ7KzxhsME-86" style="edgeStyle=orthogonalEdgeStyle;rounded=0;orthogonalLoop=1;jettySize=auto;html=1;exitX=0;exitY=0.5;exitDx=0;exitDy=0;entryX=1;entryY=0.75;entryDx=0;entryDy=0;fillColor=#fff2cc;strokeColor=#d6b656;" parent="1" source="N86940-7wMCQ7KzxhsME-17" target="N86940-7wMCQ7KzxhsME-82" edge="1">
          <mxGeometry relative="1" as="geometry">
            <Array as="points">
              <mxPoint x="2150" y="1595" />
              <mxPoint x="2150" y="1610" />
              <mxPoint x="1920" y="1610" />
              <mxPoint x="1920" y="1571" />
              <mxPoint x="1840" y="1571" />
            </Array>
          </mxGeometry>
        </mxCell>
        <mxCell id="N86940-7wMCQ7KzxhsME-87" value="&lt;font style=&quot;font-size: 10px;&quot;&gt;Movimiento&lt;br style=&quot;font-size: 10px;&quot;&gt;Diferencial&lt;/font&gt;" style="edgeLabel;html=1;align=center;verticalAlign=middle;resizable=0;points=[];fontSize=10;" parent="N86940-7wMCQ7KzxhsME-86" vertex="1" connectable="0">
          <mxGeometry x="-0.4419" y="1" relative="1" as="geometry">
            <mxPoint x="-66" y="-1" as="offset" />
          </mxGeometry>
        </mxCell>
        <mxCell id="N86940-7wMCQ7KzxhsME-17" value="Encoder" style="rounded=1;whiteSpace=wrap;html=1;fillColor=#fff2cc;strokeColor=#d6b656;fontSize=10;" parent="1" vertex="1">
          <mxGeometry x="2185" y="1580" width="66" height="30" as="geometry" />
        </mxCell>
        <mxCell id="N86940-7wMCQ7KzxhsME-33" style="edgeStyle=orthogonalEdgeStyle;rounded=0;orthogonalLoop=1;jettySize=auto;html=1;exitX=1;exitY=0.5;exitDx=0;exitDy=0;strokeColor=#EA6B66;" parent="1" source="N86940-7wMCQ7KzxhsME-54" target="N86940-7wMCQ7KzxhsME-15" edge="1">
          <mxGeometry relative="1" as="geometry">
            <mxPoint x="2074" y="1559.69" as="sourcePoint" />
            <Array as="points">
              <mxPoint x="2150" y="1550" />
              <mxPoint x="2150" y="1567" />
            </Array>
          </mxGeometry>
        </mxCell>
        <mxCell id="N86940-7wMCQ7KzxhsME-78" value="M+&lt;br style=&quot;font-size: 10px;&quot;&gt;M-" style="edgeLabel;html=1;align=center;verticalAlign=middle;resizable=0;points=[];fontSize=10;" parent="N86940-7wMCQ7KzxhsME-33" vertex="1" connectable="0">
          <mxGeometry x="-0.5444" relative="1" as="geometry">
            <mxPoint y="-1" as="offset" />
          </mxGeometry>
        </mxCell>
        <mxCell id="N86940-7wMCQ7KzxhsME-39" style="edgeStyle=orthogonalEdgeStyle;rounded=0;orthogonalLoop=1;jettySize=auto;html=1;exitX=0;exitY=0.5;exitDx=0;exitDy=0;entryX=0.75;entryY=0;entryDx=0;entryDy=0;" parent="1" source="N86940-7wMCQ7KzxhsME-41" target="N86940-7wMCQ7KzxhsME-48" edge="1">
          <mxGeometry relative="1" as="geometry">
            <mxPoint x="1612.75" y="1511" as="targetPoint" />
          </mxGeometry>
        </mxCell>
        <mxCell id="N86940-7wMCQ7KzxhsME-40" value="Enable" style="edgeLabel;html=1;align=center;verticalAlign=middle;resizable=0;points=[];" parent="N86940-7wMCQ7KzxhsME-39" vertex="1" connectable="0">
          <mxGeometry x="0.1576" y="1" relative="1" as="geometry">
            <mxPoint x="-1" y="6" as="offset" />
          </mxGeometry>
        </mxCell>
        <mxCell id="N86940-7wMCQ7KzxhsME-41" value="Selector&lt;br&gt;Control Automatico" style="rounded=1;whiteSpace=wrap;html=1;fillColor=#ffe6cc;strokeColor=#d79b00;" parent="1" vertex="1">
          <mxGeometry x="1630" y="1407.5" width="130" height="80" as="geometry" />
        </mxCell>
        <mxCell id="N86940-7wMCQ7KzxhsME-42" style="edgeStyle=orthogonalEdgeStyle;rounded=0;orthogonalLoop=1;jettySize=auto;html=1;exitX=1;exitY=0.5;exitDx=0;exitDy=0;strokeColor=#7EA6E0;startArrow=classic;startFill=1;entryX=0.5;entryY=1;entryDx=0;entryDy=0;" parent="1" target="N86940-7wMCQ7KzxhsME-82" edge="1">
          <mxGeometry relative="1" as="geometry">
            <Array as="points">
              <mxPoint x="1780" y="1740" />
            </Array>
            <mxPoint x="1760" y="1610" as="targetPoint" />
            <mxPoint x="1629" y="1740.065" as="sourcePoint" />
          </mxGeometry>
        </mxCell>
        <mxCell id="N86940-7wMCQ7KzxhsME-84" value="PosiciÃ³n &lt;br style=&quot;font-size: 8px;&quot;&gt;Deseada" style="edgeLabel;html=1;align=center;verticalAlign=middle;resizable=0;points=[];fontSize=8;" parent="N86940-7wMCQ7KzxhsME-42" vertex="1" connectable="0">
          <mxGeometry x="0.4873" relative="1" as="geometry">
            <mxPoint y="-16" as="offset" />
          </mxGeometry>
        </mxCell>
        <mxCell id="N86940-7wMCQ7KzxhsME-94" value="&lt;font style=&quot;font-size: 8px;&quot;&gt;Serial&lt;br style=&quot;border-color: var(--border-color);&quot;&gt;Tx Rx&lt;/font&gt;" style="edgeLabel;html=1;align=center;verticalAlign=middle;resizable=0;points=[];" parent="N86940-7wMCQ7KzxhsME-42" vertex="1" connectable="0">
          <mxGeometry x="-0.4437" relative="1" as="geometry">
            <mxPoint as="offset" />
          </mxGeometry>
        </mxCell>
        <mxCell id="N86940-7wMCQ7KzxhsME-48" value="MCU&lt;br&gt;Main" style="rounded=1;whiteSpace=wrap;html=1;fillColor=#dae8fc;strokeColor=#6c8ebf;" parent="1" vertex="1">
          <mxGeometry x="1520" y="1519.75" width="109" height="390.25" as="geometry" />
        </mxCell>
        <mxCell id="N86940-7wMCQ7KzxhsME-49" style="edgeStyle=orthogonalEdgeStyle;rounded=0;orthogonalLoop=1;jettySize=auto;html=1;exitX=1;exitY=0.5;exitDx=0;exitDy=0;entryX=0.25;entryY=0;entryDx=0;entryDy=0;" parent="1" source="N86940-7wMCQ7KzxhsME-51" target="N86940-7wMCQ7KzxhsME-48" edge="1">
          <mxGeometry relative="1" as="geometry">
            <mxPoint x="1580" y="1490" as="targetPoint" />
            <Array as="points">
              <mxPoint x="1547" y="1462" />
              <mxPoint x="1547" y="1510" />
            </Array>
          </mxGeometry>
        </mxCell>
        <mxCell id="N86940-7wMCQ7KzxhsME-50" value="Enable" style="edgeLabel;html=1;align=center;verticalAlign=middle;resizable=0;points=[];" parent="N86940-7wMCQ7KzxhsME-49" vertex="1" connectable="0">
          <mxGeometry x="0.4157" relative="1" as="geometry">
            <mxPoint y="-4" as="offset" />
          </mxGeometry>
        </mxCell>
        <mxCell id="N86940-7wMCQ7KzxhsME-51" value="Safety Mat" style="rounded=1;whiteSpace=wrap;html=1;fillColor=#f8cecc;strokeColor=#b85450;" parent="1" vertex="1">
          <mxGeometry x="1440" y="1407.5" width="71" height="80" as="geometry" />
        </mxCell>
        <mxCell id="N86940-7wMCQ7KzxhsME-53" value="HMI" style="rounded=1;whiteSpace=wrap;html=1;fillColor=#b1ddf0;strokeColor=#10739e;fontSize=10;" parent="1" vertex="1">
          <mxGeometry x="1380" y="1565" width="120" height="60" as="geometry" />
        </mxCell>
        <mxCell id="N86940-7wMCQ7KzxhsME-54" value="Driver" style="rounded=1;whiteSpace=wrap;html=1;fillColor=#dae8fc;strokeColor=#6c8ebf;fontSize=10;" parent="1" vertex="1">
          <mxGeometry x="2004" y="1530.26" width="86" height="39.74" as="geometry" />
        </mxCell>
        <mxCell id="N86940-7wMCQ7KzxhsME-88" style="edgeStyle=orthogonalEdgeStyle;rounded=0;orthogonalLoop=1;jettySize=auto;html=1;exitX=0;exitY=0.5;exitDx=0;exitDy=0;fillColor=#dae8fc;strokeColor=#6c8ebf;startArrow=classic;startFill=1;" parent="1" source="N86940-7wMCQ7KzxhsME-82" target="N86940-7wMCQ7KzxhsME-48" edge="1">
          <mxGeometry relative="1" as="geometry">
            <mxPoint x="1712" y="1550.1299999999999" as="sourcePoint" />
            <mxPoint x="1660" y="1617" as="targetPoint" />
            <Array as="points">
              <mxPoint x="1660" y="1550" />
              <mxPoint x="1660" y="1617" />
            </Array>
          </mxGeometry>
        </mxCell>
        <mxCell id="N86940-7wMCQ7KzxhsME-89" value="PosiciÃ³n&lt;br style=&quot;font-size: 8px;&quot;&gt;Actual" style="edgeLabel;html=1;align=center;verticalAlign=middle;resizable=0;points=[];fontSize=8;" parent="N86940-7wMCQ7KzxhsME-88" vertex="1" connectable="0">
          <mxGeometry x="0.0727" relative="1" as="geometry">
            <mxPoint y="24" as="offset" />
          </mxGeometry>
        </mxCell>
        <mxCell id="N86940-7wMCQ7KzxhsME-93" value="Serial&lt;br style=&quot;font-size: 8px;&quot;&gt;Tx Rx" style="edgeLabel;html=1;align=center;verticalAlign=middle;resizable=0;points=[];fontSize=8;" parent="N86940-7wMCQ7KzxhsME-88" vertex="1" connectable="0">
          <mxGeometry x="-0.5489" relative="1" as="geometry">
            <mxPoint x="-2" as="offset" />
          </mxGeometry>
        </mxCell>
        <mxCell id="N86940-7wMCQ7KzxhsME-102" style="edgeStyle=orthogonalEdgeStyle;rounded=0;orthogonalLoop=1;jettySize=auto;html=1;exitX=1;exitY=0.5;exitDx=0;exitDy=0;entryX=0;entryY=0.5;entryDx=0;entryDy=0;fillColor=#dae8fc;strokeColor=#6c8ebf;" parent="1" source="N86940-7wMCQ7KzxhsME-82" target="N86940-7wMCQ7KzxhsME-54" edge="1">
          <mxGeometry relative="1" as="geometry" />
        </mxCell>
        <mxCell id="N86940-7wMCQ7KzxhsME-103" value="&lt;font style=&quot;font-size: 8px;&quot;&gt;RPWM&lt;br style=&quot;border-color: var(--border-color);&quot;&gt;&lt;span style=&quot;border-color: var(--border-color);&quot;&gt;LPWM&lt;/span&gt;&lt;/font&gt;" style="edgeLabel;html=1;align=center;verticalAlign=middle;resizable=0;points=[];" parent="N86940-7wMCQ7KzxhsME-102" vertex="1" connectable="0">
          <mxGeometry x="-0.7019" y="2" relative="1" as="geometry">
            <mxPoint x="2" y="2" as="offset" />
          </mxGeometry>
        </mxCell>
        <mxCell id="N86940-7wMCQ7KzxhsME-82" value="MCU&lt;br style=&quot;font-size: 10px;&quot;&gt;Secundario&lt;br style=&quot;font-size: 10px;&quot;&gt;&lt;b style=&quot;font-size: 10px;&quot;&gt;control de posiciÃ³n&lt;br style=&quot;font-size: 10px;&quot;&gt;de motor&lt;br&gt;(PID)&lt;br&gt;&lt;/b&gt;" style="rounded=1;whiteSpace=wrap;html=1;fillColor=#dae8fc;strokeColor=#6c8ebf;fontSize=10;" parent="1" vertex="1">
          <mxGeometry x="1720" y="1507.63" width="120" height="85" as="geometry" />
        </mxCell>
        <mxCell id="N86940-7wMCQ7KzxhsME-91" style="edgeStyle=orthogonalEdgeStyle;rounded=0;orthogonalLoop=1;jettySize=auto;html=1;fillColor=#d5e8d4;strokeColor=#82b366;fontSize=10;entryX=0;entryY=0.25;entryDx=0;entryDy=0;exitX=1;exitY=0.25;exitDx=0;exitDy=0;" parent="1" source="N86940-7wMCQ7KzxhsME-82" edge="1">
          <mxGeometry relative="1" as="geometry">
            <mxPoint x="1870" y="1520" as="sourcePoint" />
            <mxPoint x="2004" y="1540.195" as="targetPoint" />
            <Array as="points">
              <mxPoint x="1970" y="1529" />
              <mxPoint x="1970" y="1540" />
            </Array>
          </mxGeometry>
        </mxCell>
        <mxCell id="N86940-7wMCQ7KzxhsME-92" value="R_EN, L_EN&amp;nbsp;" style="edgeLabel;html=1;align=center;verticalAlign=middle;resizable=0;points=[];fontSize=8;" parent="N86940-7wMCQ7KzxhsME-91" vertex="1" connectable="0">
          <mxGeometry x="-0.1906" y="-1" relative="1" as="geometry">
            <mxPoint x="25" y="-2" as="offset" />
          </mxGeometry>
        </mxCell>
        <mxCell id="OQNPQIhbmYLAiWT2xSHp-118" style="edgeStyle=orthogonalEdgeStyle;rounded=0;orthogonalLoop=1;jettySize=auto;html=1;exitX=0;exitY=0.5;exitDx=0;exitDy=0;entryX=1;entryY=0.25;entryDx=0;entryDy=0;fillColor=#f8cecc;strokeColor=#b85450;" parent="1" source="OQNPQIhbmYLAiWT2xSHp-4" target="OQNPQIhbmYLAiWT2xSHp-23" edge="1">
          <mxGeometry relative="1" as="geometry">
            <Array as="points">
              <mxPoint x="1990" y="2371" />
              <mxPoint x="1990" y="2379" />
            </Array>
          </mxGeometry>
        </mxCell>
        <mxCell id="OQNPQIhbmYLAiWT2xSHp-133" value="&lt;font style=&quot;font-size: 7px;&quot;&gt;&amp;nbsp;B +&amp;nbsp;&lt;/font&gt;" style="edgeLabel;html=1;align=center;verticalAlign=middle;resizable=0;points=[];" parent="OQNPQIhbmYLAiWT2xSHp-118" vertex="1" connectable="0">
          <mxGeometry x="0.6459" relative="1" as="geometry">
            <mxPoint x="1" y="-2" as="offset" />
          </mxGeometry>
        </mxCell>
        <mxCell id="OQNPQIhbmYLAiWT2xSHp-119" value="&lt;font style=&quot;font-size: 7px;&quot;&gt;24V DC&lt;/font&gt;" style="edgeLabel;html=1;align=center;verticalAlign=middle;resizable=0;points=[];" parent="OQNPQIhbmYLAiWT2xSHp-118" vertex="1" connectable="0">
          <mxGeometry x="-0.4782" y="-1" relative="1" as="geometry">
            <mxPoint x="-3" as="offset" />
          </mxGeometry>
        </mxCell>
        <mxCell id="OQNPQIhbmYLAiWT2xSHp-4" value="Power Supply&lt;br style=&quot;border-color: var(--border-color); font-size: 9px;&quot;&gt;&lt;span style=&quot;font-size: 9px;&quot;&gt;16V DC 10A&lt;/span&gt;&lt;br style=&quot;border-color: var(--border-color); font-size: 9px;&quot;&gt;Power" style="rounded=1;whiteSpace=wrap;html=1;fillColor=#f8cecc;strokeColor=#b85450;align=right;fontSize=9;" parent="1" vertex="1">
          <mxGeometry x="2040" y="2352.25" width="120" height="38" as="geometry" />
        </mxCell>
        <mxCell id="OQNPQIhbmYLAiWT2xSHp-6" value="Motor 1" style="rounded=1;whiteSpace=wrap;html=1;fillColor=#d5e8d4;strokeColor=#82b366;fontSize=9;" parent="1" vertex="1">
          <mxGeometry x="2024" y="2410" width="66" height="35" as="geometry" />
        </mxCell>
        <mxCell id="OQNPQIhbmYLAiWT2xSHp-100" style="edgeStyle=orthogonalEdgeStyle;rounded=0;orthogonalLoop=1;jettySize=auto;html=1;exitX=0;exitY=0.5;exitDx=0;exitDy=0;fillColor=#fff2cc;strokeColor=#d6b656;" parent="1" source="OQNPQIhbmYLAiWT2xSHp-9" target="OQNPQIhbmYLAiWT2xSHp-18" edge="1">
          <mxGeometry relative="1" as="geometry">
            <Array as="points">
              <mxPoint x="2024" y="2486" />
            </Array>
          </mxGeometry>
        </mxCell>
        <mxCell id="OQNPQIhbmYLAiWT2xSHp-104" value="&lt;font style=&quot;font-size: 7px;&quot;&gt;GPIO 18&amp;nbsp;&lt;/font&gt;" style="edgeLabel;html=1;align=center;verticalAlign=middle;resizable=0;points=[];" parent="OQNPQIhbmYLAiWT2xSHp-100" vertex="1" connectable="0">
          <mxGeometry x="0.8885" y="-1" relative="1" as="geometry">
            <mxPoint x="9" y="-1" as="offset" />
          </mxGeometry>
        </mxCell>
        <mxCell id="OQNPQIhbmYLAiWT2xSHp-108" value="&lt;font style=&quot;font-size: 7px;&quot;&gt;CHB1 (Encoder Pulse B)&lt;/font&gt;" style="edgeLabel;html=1;align=center;verticalAlign=middle;resizable=0;points=[];" parent="OQNPQIhbmYLAiWT2xSHp-100" vertex="1" connectable="0">
          <mxGeometry x="-0.7916" relative="1" as="geometry">
            <mxPoint x="-18" y="-2" as="offset" />
          </mxGeometry>
        </mxCell>
        <mxCell id="OQNPQIhbmYLAiWT2xSHp-130" style="edgeStyle=orthogonalEdgeStyle;rounded=0;orthogonalLoop=1;jettySize=auto;html=1;exitX=0;exitY=0.25;exitDx=0;exitDy=0;endArrow=none;endFill=0;" parent="1" source="OQNPQIhbmYLAiWT2xSHp-9" edge="1">
          <mxGeometry relative="1" as="geometry">
            <mxPoint x="1730" y="2469" as="targetPoint" />
          </mxGeometry>
        </mxCell>
        <mxCell id="OQNPQIhbmYLAiWT2xSHp-131" value="&lt;font style=&quot;font-size: 7px;&quot;&gt;GND&lt;/font&gt;" style="edgeLabel;html=1;align=center;verticalAlign=middle;resizable=0;points=[];" parent="OQNPQIhbmYLAiWT2xSHp-130" vertex="1" connectable="0">
          <mxGeometry x="0.6144" y="-1" relative="1" as="geometry">
            <mxPoint x="3" y="-1" as="offset" />
          </mxGeometry>
        </mxCell>
        <mxCell id="OQNPQIhbmYLAiWT2xSHp-9" value="Encoder" style="rounded=1;whiteSpace=wrap;html=1;fillColor=#fff2cc;strokeColor=#d6b656;fontSize=9;" parent="1" vertex="1">
          <mxGeometry x="2024" y="2445" width="66" height="95" as="geometry" />
        </mxCell>
        <mxCell id="OQNPQIhbmYLAiWT2xSHp-84" style="edgeStyle=orthogonalEdgeStyle;rounded=0;orthogonalLoop=1;jettySize=auto;html=1;exitX=1;exitY=0.75;exitDx=0;exitDy=0;entryX=0;entryY=0.75;entryDx=0;entryDy=0;fillColor=#f8cecc;strokeColor=#000000;" parent="1" source="OQNPQIhbmYLAiWT2xSHp-23" target="OQNPQIhbmYLAiWT2xSHp-6" edge="1">
          <mxGeometry relative="1" as="geometry">
            <Array as="points">
              <mxPoint x="1960" y="2436" />
            </Array>
          </mxGeometry>
        </mxCell>
        <mxCell id="OQNPQIhbmYLAiWT2xSHp-87" value="&lt;font style=&quot;font-size: 7px;&quot;&gt;&amp;nbsp;M -&amp;nbsp;&lt;/font&gt;" style="edgeLabel;html=1;align=center;verticalAlign=middle;resizable=0;points=[];" parent="OQNPQIhbmYLAiWT2xSHp-84" vertex="1" connectable="0">
          <mxGeometry x="-0.3712" relative="1" as="geometry">
            <mxPoint y="-2" as="offset" />
          </mxGeometry>
        </mxCell>
        <mxCell id="OQNPQIhbmYLAiWT2xSHp-18" value="Arduino&lt;br style=&quot;font-size: 9px;&quot;&gt;&lt;b&gt;MEGA 2650&lt;/b&gt;" style="rounded=1;whiteSpace=wrap;html=1;fillColor=#dae8fc;strokeColor=#6c8ebf;fontSize=9;" parent="1" vertex="1">
          <mxGeometry x="1620" y="2352.25" width="109" height="267.75" as="geometry" />
        </mxCell>
        <mxCell id="OQNPQIhbmYLAiWT2xSHp-85" style="edgeStyle=orthogonalEdgeStyle;rounded=0;orthogonalLoop=1;jettySize=auto;html=1;exitX=1;exitY=0.5;exitDx=0;exitDy=0;entryX=0;entryY=0.5;entryDx=0;entryDy=0;fillColor=#f8cecc;strokeColor=#b85450;" parent="1" source="OQNPQIhbmYLAiWT2xSHp-23" target="OQNPQIhbmYLAiWT2xSHp-6" edge="1">
          <mxGeometry relative="1" as="geometry">
            <Array as="points">
              <mxPoint x="1960" y="2427" />
            </Array>
          </mxGeometry>
        </mxCell>
        <mxCell id="OQNPQIhbmYLAiWT2xSHp-86" value="&lt;font style=&quot;font-size: 7px;&quot;&gt;&amp;nbsp;M +&amp;nbsp;&lt;/font&gt;" style="edgeLabel;html=1;align=center;verticalAlign=middle;resizable=0;points=[];" parent="OQNPQIhbmYLAiWT2xSHp-85" vertex="1" connectable="0">
          <mxGeometry x="-0.0845" relative="1" as="geometry">
            <mxPoint y="-3" as="offset" />
          </mxGeometry>
        </mxCell>
        <mxCell id="OQNPQIhbmYLAiWT2xSHp-23" value="Motor Driver&lt;br style=&quot;font-size: 9px;&quot;&gt;&lt;b&gt;IBT_2&lt;/b&gt;" style="rounded=1;whiteSpace=wrap;html=1;fillColor=#dae8fc;strokeColor=#6c8ebf;fontSize=9;" parent="1" vertex="1">
          <mxGeometry x="1854" y="2352.25" width="106" height="107.75" as="geometry" />
        </mxCell>
        <mxCell id="OQNPQIhbmYLAiWT2xSHp-34" style="edgeStyle=orthogonalEdgeStyle;rounded=0;orthogonalLoop=1;jettySize=auto;html=1;exitX=1;exitY=0.5;exitDx=0;exitDy=0;entryX=0.983;entryY=0.608;entryDx=0;entryDy=0;entryPerimeter=0;" parent="1" source="OQNPQIhbmYLAiWT2xSHp-32" target="OQNPQIhbmYLAiWT2xSHp-5" edge="1">
          <mxGeometry relative="1" as="geometry">
            <mxPoint x="2350" y="2320" as="targetPoint" />
            <Array as="points">
              <mxPoint x="2160" y="2320" />
              <mxPoint x="2210" y="2320" />
              <mxPoint x="2210" y="2489" />
            </Array>
          </mxGeometry>
        </mxCell>
        <mxCell id="OQNPQIhbmYLAiWT2xSHp-122" value="&lt;font style=&quot;font-size: 7px;&quot;&gt;GND&lt;/font&gt;" style="edgeLabel;html=1;align=center;verticalAlign=middle;resizable=0;points=[];" parent="OQNPQIhbmYLAiWT2xSHp-34" vertex="1" connectable="0">
          <mxGeometry x="0.722" relative="1" as="geometry">
            <mxPoint x="-7" y="-1" as="offset" />
          </mxGeometry>
        </mxCell>
        <mxCell id="OQNPQIhbmYLAiWT2xSHp-32" value="Festo Power Supply&lt;br style=&quot;border-color: var(--border-color); font-size: 9px;&quot;&gt;&lt;span style=&quot;font-size: 9px;&quot;&gt;24V DC 4A&lt;/span&gt;&lt;br style=&quot;border-color: var(--border-color); font-size: 9px;&quot;&gt;&lt;span style=&quot;font-size: 9px;&quot;&gt;Relay Enable&lt;/span&gt;" style="rounded=1;whiteSpace=wrap;html=1;fillColor=#f8cecc;strokeColor=#b85450;align=right;fontSize=9;" parent="1" vertex="1">
          <mxGeometry x="2040" y="2300" width="120" height="38" as="geometry" />
        </mxCell>
        <mxCell id="pYpoy-xko2efmzYNH34E-1" style="edgeStyle=orthogonalEdgeStyle;rounded=0;orthogonalLoop=1;jettySize=auto;html=1;exitX=1;exitY=0.25;exitDx=0;exitDy=0;entryX=0.25;entryY=1;entryDx=0;entryDy=0;fillColor=#f8cecc;strokeColor=#b85450;" edge="1" parent="1" source="OQNPQIhbmYLAiWT2xSHp-33" target="OQNPQIhbmYLAiWT2xSHp-9">
          <mxGeometry relative="1" as="geometry" />
        </mxCell>
        <mxCell id="pYpoy-xko2efmzYNH34E-2" value="&lt;font style=&quot;font-size: 7px;&quot;&gt;5V DC&lt;/font&gt;" style="edgeLabel;html=1;align=center;verticalAlign=middle;resizable=0;points=[];" vertex="1" connectable="0" parent="pYpoy-xko2efmzYNH34E-1">
          <mxGeometry x="0.0203" relative="1" as="geometry">
            <mxPoint y="-2" as="offset" />
          </mxGeometry>
        </mxCell>
        <mxCell id="OQNPQIhbmYLAiWT2xSHp-33" value="Power Supply&lt;br style=&quot;border-color: var(--border-color); font-size: 9px;&quot;&gt;&lt;span style=&quot;font-size: 9px;&quot;&gt;5V DC 10A&lt;/span&gt;&lt;br style=&quot;border-color: var(--border-color); font-size: 9px;&quot;&gt;&lt;span style=&quot;font-size: 9px;&quot;&gt;Encoder&lt;/span&gt;" style="rounded=1;whiteSpace=wrap;html=1;fillColor=#f8cecc;strokeColor=#b85450;align=right;fontSize=9;" parent="1" vertex="1">
          <mxGeometry x="1834" y="2570" width="120" height="38" as="geometry" />
        </mxCell>
        <mxCell id="OQNPQIhbmYLAiWT2xSHp-62" style="edgeStyle=orthogonalEdgeStyle;rounded=0;orthogonalLoop=1;jettySize=auto;html=1;exitX=1;exitY=0.5;exitDx=0;exitDy=0;entryX=0.006;entryY=0.179;entryDx=0;entryDy=0;entryPerimeter=0;fillColor=#d5e8d4;strokeColor=#82b366;" parent="1" source="OQNPQIhbmYLAiWT2xSHp-18" target="OQNPQIhbmYLAiWT2xSHp-23" edge="1">
          <mxGeometry relative="1" as="geometry">
            <Array as="points">
              <mxPoint x="1729" y="2372" />
              <mxPoint x="1740" y="2372" />
            </Array>
          </mxGeometry>
        </mxCell>
        <mxCell id="OQNPQIhbmYLAiWT2xSHp-71" value="&lt;font style=&quot;font-size: 7px;&quot;&gt;GPIO 5&lt;/font&gt;" style="edgeLabel;html=1;align=center;verticalAlign=middle;resizable=0;points=[];" parent="OQNPQIhbmYLAiWT2xSHp-62" vertex="1" connectable="0">
          <mxGeometry x="0.1032" y="-1" relative="1" as="geometry">
            <mxPoint x="-3" y="-2" as="offset" />
          </mxGeometry>
        </mxCell>
        <mxCell id="OQNPQIhbmYLAiWT2xSHp-72" value="&lt;font style=&quot;font-size: 7px;&quot;&gt;L_PWM&lt;/font&gt;" style="edgeLabel;html=1;align=center;verticalAlign=middle;resizable=0;points=[];" parent="OQNPQIhbmYLAiWT2xSHp-62" vertex="1" connectable="0">
          <mxGeometry x="0.6945" relative="1" as="geometry">
            <mxPoint x="9" y="-2" as="offset" />
          </mxGeometry>
        </mxCell>
        <mxCell id="OQNPQIhbmYLAiWT2xSHp-63" style="edgeStyle=orthogonalEdgeStyle;rounded=0;orthogonalLoop=1;jettySize=auto;html=1;entryX=-0.002;entryY=0.302;entryDx=0;entryDy=0;entryPerimeter=0;fillColor=#d5e8d4;strokeColor=#82b366;" parent="1" source="OQNPQIhbmYLAiWT2xSHp-18" target="OQNPQIhbmYLAiWT2xSHp-23" edge="1">
          <mxGeometry relative="1" as="geometry">
            <Array as="points">
              <mxPoint x="1792" y="2385" />
            </Array>
          </mxGeometry>
        </mxCell>
        <mxCell id="OQNPQIhbmYLAiWT2xSHp-70" value="&lt;font style=&quot;font-size: 7px;&quot;&gt;GPIO 4&lt;/font&gt;" style="edgeLabel;html=1;align=center;verticalAlign=middle;resizable=0;points=[];" parent="OQNPQIhbmYLAiWT2xSHp-63" vertex="1" connectable="0">
          <mxGeometry x="-0.8296" relative="1" as="geometry">
            <mxPoint x="4" y="-2" as="offset" />
          </mxGeometry>
        </mxCell>
        <mxCell id="OQNPQIhbmYLAiWT2xSHp-73" value="&lt;font style=&quot;font-size: 7px;&quot;&gt;R_PWM&lt;/font&gt;" style="edgeLabel;html=1;align=center;verticalAlign=middle;resizable=0;points=[];" parent="OQNPQIhbmYLAiWT2xSHp-63" vertex="1" connectable="0">
          <mxGeometry x="0.333" relative="1" as="geometry">
            <mxPoint x="15" y="-2" as="offset" />
          </mxGeometry>
        </mxCell>
        <mxCell id="OQNPQIhbmYLAiWT2xSHp-66" style="edgeStyle=orthogonalEdgeStyle;rounded=0;orthogonalLoop=1;jettySize=auto;html=1;entryX=0.009;entryY=0.438;entryDx=0;entryDy=0;entryPerimeter=0;fillColor=#d5e8d4;strokeColor=#82b366;" parent="1" source="OQNPQIhbmYLAiWT2xSHp-18" target="OQNPQIhbmYLAiWT2xSHp-23" edge="1">
          <mxGeometry relative="1" as="geometry">
            <Array as="points">
              <mxPoint x="1791" y="2400" />
            </Array>
          </mxGeometry>
        </mxCell>
        <mxCell id="OQNPQIhbmYLAiWT2xSHp-69" value="&lt;font style=&quot;font-size: 7px;&quot;&gt;GPIO 3&lt;/font&gt;" style="edgeLabel;html=1;align=center;verticalAlign=middle;resizable=0;points=[];" parent="OQNPQIhbmYLAiWT2xSHp-66" vertex="1" connectable="0">
          <mxGeometry x="-0.8105" y="1" relative="1" as="geometry">
            <mxPoint x="3" as="offset" />
          </mxGeometry>
        </mxCell>
        <mxCell id="OQNPQIhbmYLAiWT2xSHp-74" value="&lt;font style=&quot;font-size: 7px;&quot;&gt;L_Enable&lt;/font&gt;" style="edgeLabel;html=1;align=center;verticalAlign=middle;resizable=0;points=[];" parent="OQNPQIhbmYLAiWT2xSHp-66" vertex="1" connectable="0">
          <mxGeometry x="0.3103" y="1" relative="1" as="geometry">
            <mxPoint x="14" y="-1" as="offset" />
          </mxGeometry>
        </mxCell>
        <mxCell id="OQNPQIhbmYLAiWT2xSHp-67" style="edgeStyle=orthogonalEdgeStyle;rounded=0;orthogonalLoop=1;jettySize=auto;html=1;entryX=-0.006;entryY=0.553;entryDx=0;entryDy=0;entryPerimeter=0;fillColor=#d5e8d4;strokeColor=#82b366;" parent="1" source="OQNPQIhbmYLAiWT2xSHp-18" target="OQNPQIhbmYLAiWT2xSHp-23" edge="1">
          <mxGeometry relative="1" as="geometry">
            <Array as="points">
              <mxPoint x="1770" y="2412" />
            </Array>
          </mxGeometry>
        </mxCell>
        <mxCell id="OQNPQIhbmYLAiWT2xSHp-68" value="&lt;font style=&quot;font-size: 7px;&quot;&gt;GPIO 2&lt;/font&gt;" style="edgeLabel;html=1;align=center;verticalAlign=middle;resizable=0;points=[];" parent="OQNPQIhbmYLAiWT2xSHp-67" vertex="1" connectable="0">
          <mxGeometry x="-0.8704" relative="1" as="geometry">
            <mxPoint x="7" y="-2" as="offset" />
          </mxGeometry>
        </mxCell>
        <mxCell id="OQNPQIhbmYLAiWT2xSHp-75" value="&lt;font style=&quot;font-size: 7px;&quot;&gt;R_Enable&lt;/font&gt;" style="edgeLabel;html=1;align=center;verticalAlign=middle;resizable=0;points=[];" parent="OQNPQIhbmYLAiWT2xSHp-67" vertex="1" connectable="0">
          <mxGeometry x="0.255" y="1" relative="1" as="geometry">
            <mxPoint x="17" y="-1" as="offset" />
          </mxGeometry>
        </mxCell>
        <mxCell id="OQNPQIhbmYLAiWT2xSHp-76" value="Control" style="text;html=1;strokeColor=none;fillColor=none;align=center;verticalAlign=middle;whiteSpace=wrap;rounded=0;rotation=90;" parent="1" vertex="1">
          <mxGeometry x="1834" y="2400.12" width="60" height="12" as="geometry" />
        </mxCell>
        <mxCell id="OQNPQIhbmYLAiWT2xSHp-77" value="Power" style="text;html=1;strokeColor=none;fillColor=none;align=center;verticalAlign=middle;whiteSpace=wrap;rounded=0;rotation=-90;" parent="1" vertex="1">
          <mxGeometry x="1918" y="2400.12" width="60" height="12" as="geometry" />
        </mxCell>
        <mxCell id="OQNPQIhbmYLAiWT2xSHp-101" style="edgeStyle=orthogonalEdgeStyle;rounded=0;orthogonalLoop=1;jettySize=auto;html=1;exitX=0;exitY=0.5;exitDx=0;exitDy=0;fillColor=#fff2cc;strokeColor=#d6b656;" parent="1" source="OQNPQIhbmYLAiWT2xSHp-9" edge="1">
          <mxGeometry relative="1" as="geometry">
            <mxPoint x="1730" y="2507" as="targetPoint" />
            <Array as="points">
              <mxPoint x="2024" y="2507" />
            </Array>
          </mxGeometry>
        </mxCell>
        <mxCell id="OQNPQIhbmYLAiWT2xSHp-106" value="&lt;font style=&quot;font-size: 7px;&quot;&gt;GPIO 19&lt;/font&gt;" style="edgeLabel;html=1;align=center;verticalAlign=middle;resizable=0;points=[];" parent="OQNPQIhbmYLAiWT2xSHp-101" vertex="1" connectable="0">
          <mxGeometry x="0.8667" relative="1" as="geometry">
            <mxPoint x="4" y="-2" as="offset" />
          </mxGeometry>
        </mxCell>
        <mxCell id="OQNPQIhbmYLAiWT2xSHp-109" value="&lt;font style=&quot;font-size: 7px;&quot;&gt;CHC1 (Encoder Index Pulse)&lt;/font&gt;" style="edgeLabel;html=1;align=center;verticalAlign=middle;resizable=0;points=[];" parent="OQNPQIhbmYLAiWT2xSHp-101" vertex="1" connectable="0">
          <mxGeometry x="-0.4989" y="-1" relative="1" as="geometry">
            <mxPoint x="14" as="offset" />
          </mxGeometry>
        </mxCell>
        <mxCell id="OQNPQIhbmYLAiWT2xSHp-102" style="edgeStyle=orthogonalEdgeStyle;rounded=0;orthogonalLoop=1;jettySize=auto;html=1;entryX=1.003;entryY=0.662;entryDx=0;entryDy=0;entryPerimeter=0;fillColor=#fff2cc;strokeColor=#d6b656;" parent="1" source="OQNPQIhbmYLAiWT2xSHp-9" target="OQNPQIhbmYLAiWT2xSHp-18" edge="1">
          <mxGeometry relative="1" as="geometry">
            <Array as="points">
              <mxPoint x="1990" y="2530" />
            </Array>
          </mxGeometry>
        </mxCell>
        <mxCell id="OQNPQIhbmYLAiWT2xSHp-107" value="&lt;font style=&quot;font-size: 7px;&quot;&gt;GPIO 20&lt;/font&gt;" style="edgeLabel;html=1;align=center;verticalAlign=middle;resizable=0;points=[];" parent="OQNPQIhbmYLAiWT2xSHp-102" vertex="1" connectable="0">
          <mxGeometry x="0.894" relative="1" as="geometry">
            <mxPoint x="10" y="-2" as="offset" />
          </mxGeometry>
        </mxCell>
        <mxCell id="OQNPQIhbmYLAiWT2xSHp-110" value="&lt;font style=&quot;font-size: 7px;&quot;&gt;MSWITCH (Home Switch)&lt;/font&gt;" style="edgeLabel;html=1;align=center;verticalAlign=middle;resizable=0;points=[];" parent="OQNPQIhbmYLAiWT2xSHp-102" vertex="1" connectable="0">
          <mxGeometry x="-0.6516" relative="1" as="geometry">
            <mxPoint x="6" y="-3" as="offset" />
          </mxGeometry>
        </mxCell>
        <mxCell id="OQNPQIhbmYLAiWT2xSHp-115" style="edgeStyle=orthogonalEdgeStyle;rounded=0;orthogonalLoop=1;jettySize=auto;html=1;exitX=1.001;exitY=0.544;exitDx=0;exitDy=0;entryX=0.5;entryY=1;entryDx=0;entryDy=0;exitPerimeter=0;" parent="1" source="OQNPQIhbmYLAiWT2xSHp-33" target="OQNPQIhbmYLAiWT2xSHp-9" edge="1">
          <mxGeometry relative="1" as="geometry">
            <Array as="points">
              <mxPoint x="2057" y="2591" />
            </Array>
          </mxGeometry>
        </mxCell>
        <mxCell id="OQNPQIhbmYLAiWT2xSHp-116" value="&lt;font style=&quot;font-size: 7px;&quot;&gt;GND&lt;/font&gt;" style="edgeLabel;html=1;align=center;verticalAlign=middle;resizable=0;points=[];" parent="OQNPQIhbmYLAiWT2xSHp-115" vertex="1" connectable="0">
          <mxGeometry x="0.7378" y="-1" relative="1" as="geometry">
            <mxPoint x="-37" y="28" as="offset" />
          </mxGeometry>
        </mxCell>
        <mxCell id="OQNPQIhbmYLAiWT2xSHp-121" style="edgeStyle=orthogonalEdgeStyle;rounded=0;orthogonalLoop=1;jettySize=auto;html=1;exitX=1;exitY=0.5;exitDx=0;exitDy=0;fillColor=#f8cecc;strokeColor=#b85450;entryX=1;entryY=0.5;entryDx=0;entryDy=0;" parent="1" source="OQNPQIhbmYLAiWT2xSHp-32" target="OQNPQIhbmYLAiWT2xSHp-5" edge="1">
          <mxGeometry relative="1" as="geometry">
            <mxPoint x="2330" y="2360" as="targetPoint" />
            <Array as="points">
              <mxPoint x="2160" y="2330" />
              <mxPoint x="2200" y="2330" />
              <mxPoint x="2200" y="2475" />
            </Array>
          </mxGeometry>
        </mxCell>
        <mxCell id="OQNPQIhbmYLAiWT2xSHp-123" value="&lt;font style=&quot;font-size: 7px;&quot;&gt;24V DC&lt;/font&gt;" style="edgeLabel;html=1;align=center;verticalAlign=middle;resizable=0;points=[];" parent="OQNPQIhbmYLAiWT2xSHp-121" vertex="1" connectable="0">
          <mxGeometry x="0.656" relative="1" as="geometry">
            <mxPoint x="-16" y="-3" as="offset" />
          </mxGeometry>
        </mxCell>
        <mxCell id="OQNPQIhbmYLAiWT2xSHp-5" value="Tarjeta de Control de Encendido de Motores" style="rounded=1;whiteSpace=wrap;html=1;fillColor=#f5f5f5;strokeColor=#666666;fontSize=9;fontColor=#333333;" parent="1" vertex="1">
          <mxGeometry x="2090" y="2410" width="70" height="130" as="geometry" />
        </mxCell>
      </root>
    </mxGraphModel>
  </diagram>
</mxfile>
